<?xml version="1.0" encoding="utf-8"?>
<!-- Generator: Adobe Illustrator 14.0.0, SVG Export Plug-In . SVG Version: 6.00 Build 43363)  -->
<!DOCTYPE svg PUBLIC "-//W3C//DTD SVG 1.1//EN" "http://www.w3.org/Graphics/SVG/1.1/DTD/svg11.dtd">
<svg version="1.1" xmlns="http://www.w3.org/2000/svg" xmlns:xlink="http://www.w3.org/1999/xlink" x="0px" y="0px" width="400px"
	 height="400px" viewBox="0 0 400 400" enable-background="new 0 0 400 400" xml:space="preserve">
<g id="Layer_1">
	<g>
		<circle fill="#FF96FF" cx="614.334" cy="200" r="200"/>
		<path fill="#FFFFFF" d="M762.006,159.119c-1.752-22.963-11.838-44.309-28.596-60.381c-17.529-16.811-40.527-26.068-64.76-26.068
			c-24.23,0.001-47.492,9.62-64.781,26.594C586.58,82.29,563.316,72.671,539.084,72.67c-51.631,0-93.637,42.006-93.637,93.639
			c0,33.696,21.559,71.59,64.076,112.629c32.123,31,68.029,55.779,84.182,65.535l7.064,4.262l3.1,1.869l3.1-1.869l7.062-4.26
			c9.459-5.715,21.984-14.281,34.127-23.324c12.066,8.832,20.744,14.117,20.836,14.172l7.043,4.254l3.102,1.871l3.102-1.871
			l7.059-4.262c0.252-0.152,25.051-15.238,49.791-37.727c33.24-30.213,50.096-58.541,50.096-84.197
			C789.186,192.009,779.078,171.938,762.006,159.119z M603.867,320.6c-37.689-23.521-132.76-95.445-132.76-154.291
			c0-37.485,30.494-67.981,67.977-67.981c24.869,0.001,47.66,13.909,59.479,36.296l5.307,10.052l5.307-10.052
			c11.818-22.387,34.607-36.295,59.475-36.296c30.078,0,56.566,20.228,65.098,48.361c-4.082-0.762-8.23-1.146-12.41-1.146
			c-15.471,0.001-30.258,5.289-42.199,14.992c-11.945-9.704-26.73-14.991-42.199-14.992c-37.412,0-67.848,30.437-67.848,67.848
			c0,34.043,30.344,67.641,58.162,91.285C618.928,310.711,610.654,316.348,603.867,320.6z M679.139,318.484
			c-19.648-11.863-90.391-62.275-90.391-105.094c0-26.614,21.578-48.188,48.191-48.188c18.5,0,34.125,10.428,42.199,25.726
			c8.074-15.298,23.695-25.726,42.199-25.726c26.609,0,48.191,21.574,48.191,48.188
			C769.529,256.209,698.783,306.621,679.139,318.484z"/>
	</g>
	<g>
		<circle fill="#FF9600" cx="1030.168" cy="200.333" r="200"/>
		<path fill="#FFFFFF" d="M912.156,223.853c0,0,1.426-6.605,2.105-9.385c0.676-2.773,1.656-4.434,1.57-5.482
			c-0.059-1.053-0.895-2.557-0.441-5.709c0.441-3.145,2.109-11.559,2.109-13.961c0-2.41,0.141-3.007-0.531-5.182
			c-0.676-2.186-2.109,4.955-2.852,7.43c-0.754,2.48-7.582,14.111-8.414,16.895c-0.82,2.781-3.531,8.111-3.605,10.973
			c-0.074,2.842-0.223,4.051,0.902,6.152s0.898,7.213,0.977,8.477c0.07,1.279,0.977,4.215,0.379,4.445
			c-0.605,0.211-1.281,0.141-1.281,0.141s-1.051,0.07-0.902,1.434c0.152,1.35-3.684,2.625-5.109,1.123
			c-1.418-1.494-2.324-2.031-2.324-5.707c0-3.682,0.598-7.885,1.883-15.168c1.277-7.283,0.441-16.217,0.977-19.68
			c0.523-3.449,0.969-9.756,1.203-12.537c0.227-2.781,0.973-2.029,1.641-4.657c0.688-2.626,3.836-12.011,3.684-18.02
			c-0.148-6.007,3.754-17.113,8.863-20.277c5.109-3.151,8.105-3.82,9.312-4.43c1.199-0.598,7.133-2.926,7.812-4.203
			c0.676-1.278-0.152-0.897-0.152-0.897s0.152-0.823,0.152-1.504c0-0.68-2.035,1.196-1.66,0.681
			c0.379-0.526,1.203-2.184,1.203-2.184s-2.777,1.731-2.625,1.503c0.145-0.225,1.121-1.431,1.203-1.947
			c0.074-0.523-1.652-0.453-1.727,0c-0.082,0.444-1.438,0.444-1.438,0.444s1.211-0.897,1.211-1.948c0-1.06,0.977-0.452,0.074-2.925
			c-0.906-2.484-1.43-3.605-1.43-3.605s-0.223,2.544,0.227,3.143c0.453,0.607-1.809-2.773-1.652-5.255
			c0.152-2.474-0.598-7.43,0.297-9.612c0.906-2.175-1.266,0.308-1.266,0.308s-0.387-0.237,1.871-3.679
			c2.25-3.46,4.727-11.642,10.59-12.99c5.852-1.351,9.461-2.413,14.039-0.31c4.586,2.111,9.008,5.717,9.914,7.737
			c0.895,2.029,0.605,4.059,1.574,5.78c0.98,1.729,0.453,2.183,0.297,2.626c-0.145,0.454-2.25,1.433-2.25,1.433
			s0.754-1.648,0.754-2.4s-1.879,2.555-1.879,3.225c0,0.681-1.426,1.804-0.973,3.75c0.453,1.959,1.273,4.967,0.754,5.72
			c-0.535,0.74-1.137,0.452-1.512,0.452c-0.371,0-0.594,1.876-0.594,2.174c0,0.299,0.75,0.824,0.223,1.432
			c-0.535,0.599-1.125,1.339-0.68,1.639c0.457,0.3,0.301,0.752,0.145,0.979c-0.145,0.227,0.535,3.534-0.219,4.131
			c-0.75,0.598-2.105,0.598-2.105,0.598s-1.273,1.877,2.859,3.235c4.133,1.351,5.777,1.793,11.035,7.882
			c5.262,6.078,8.484,15.548,10.586,22.225c2.102,6.685,4.426,13.827,7.203,18.398c2.793,4.576,4.816,14.941,6.098,18.4
			c1.273,3.455,1.574,8.852,2.922,10.895c1.355,2.016,4.281,6.676,3.98,9.529c-0.297,2.844-0.152,4.346-0.152,4.346
			s3.387,6.77,5.785,8.787c2.406,2.031,4.801,2.557,5.629,2.031c0.828-0.523,2.035-1.576,2.035-1.576s3.375-0.896,4.648-1.049
			c1.281-0.154,2.105-0.674,2.105-0.674s-1.652-2.852-2.023-5.932c-0.383-3.09-1.809-4.885-1.434-7.664
			c0.383-2.773-0.816-0.301-0.816-0.301s0.133-2.09,1.199-2.998c1.051-0.904-1.355,0-1.355-0.227s0.676-1.424,1.879-2.184
			c1.203-0.74,1.359-2.697,3.523-3.525c2.18-0.826-0.152-1.66,1.359-1.73c1.496-0.07,1.273-0.371,3.227-0.596
			c1.953-0.227,6.527,0.07,8.25,1.277c1.73,1.195,3.012,4.727,3.012,6.758c0,2.027,0.52,5.326,0.52,5.326s0.836-0.145,0.836,0.826
			c0,0.979,0.441,3.748-0.609,4.883c-1.043,1.133-1.582,1.133-1.582,1.133v3.15c0,0,3.465-0.225,5.559-0.225
			c2.109,0,3.309,0.311,6.02,0c2.703-0.297,6.598-3.607,8.402-6.16c1.812-2.547,2.707-4.275,2.707-5.709
			c0-1.424,0.145-3.977-0.379-4.955c-0.516-0.969-3.227-1.721-3-6.902c0.227-5.195,0.449-6.68,1.875-12.24
			c1.422-5.562,2.859-10.365,3.531-13.662c0.684-3.309,1.281-12.775,4.727-20.667c3.457-7.883,7.582-17.64,7.582-17.64
			s-2.621-3.75-2.621-3.975c0-0.229,5.406-10.511,8.184-15.921c2.781-5.409,8.559-18.399,14.34-22.306
			c5.785-3.904,9.609-5.481,13.438-5.708c3.84-0.226,6.688-1.267,6.688-1.267v-4.668c0,0-2.559-2.327-2.691-5.779
			c-0.156-3.451,1.043-9.315,0.133-12.084c-0.895-2.783-1.941-9.532-0.215-13.898c1.723-4.349,0.75-3.523,0.75-3.523
			s0.145-0.683,0.895-1.351c0.758-0.68-1.043-0.525-0.816-0.68c0.223-0.155,0.594-0.372,1.945-1.423
			c1.355-1.05-0.605-1.433-0.605-1.433s3.305-1.875,6.613-3.226c3.305-1.349,9.164-1.501,14.871,0.455
			c5.711,1.947,7.805,5.027,9.012,8.779c1.203,3.76-0.227,11.413-0.227,12.156c0,0.764,0,0.764,0,0.764s1.953,0.152,0.301,3.975
			c-1.648,3.834-1.125,7.883-2.863,8.262c-1.715,0.372-1.715,0.372-1.715,0.372s-1.203,7.286-0.152,8.634
			c1.051,1.351,2.852,3.01,5.93,3.309s14.266,2.03,19.828,16.525c5.551,14.496,5.926,22.748,8.105,28.529s3.383,9.016,2.027,9.686
			c-1.352,0.679-4.207,1.132-4.207,1.132s3.379,12.611,3.004,19.597c-0.371,6.975-3.676,24.398-3.828,27.932
			c-0.148,3.533-0.977,11.941,0.91,15.703c1.867,3.748-0.613,4.344-1.438,8.621c-0.828,4.285-2.25,7.283-5.934,9.314
			c-3.676,2.027-7.426,4.203-8.254,2.625c-0.828-1.576,0.375-2.555,1.496-3.893c1.129-1.359,1.512-4.133,1.512-4.133
			s-2.18,3.6-3.086,2.703c-0.895-0.908-0.82-5.412-0.078-9.164c0.758-3.758,1.809-6.314,3.082-11.041
			c1.277-4.73,0.598-24.48,0.301-29.962c-0.301-5.481-0.531-7.654-1.352-14.857c-0.832-7.224,1.727-9.025-1.047-9.096
			c-2.781-0.074-2.855-1.054-2.855-2.63c0-1.575-0.523-4.201-0.523-4.201s-2.41,8.859-2.41,12.764c0,3.905-1.879,10.592-0.82,14.043
			c1.051,3.451,0,6.615-0.449,8.934c-0.453,2.328,0.449,17.578-0.609,24.109c-1.043,6.533-2.398,15.834-2.477,23.943
			c-0.07,8.117-2.023,23.963-2.098,29.52c-0.074,5.562,0.148,8.789-1.73,10.062c-1.879,1.279-4.129,3.607-5.113,3.154
			c-0.969-0.441-5.102,0.979-5.102,0.979s-3.379,14.268-5.098,18.545c-1.734,4.277-0.906,5.637-0.832,9.314
			c0.074,3.666,1.125,12.992,1.957,16.814c0.82,3.832,1.496,7.363-2.332,9.459c-3.828,2.111-12.168,3.688-12.684-0.527
			c-0.531-4.191-0.977-9.91-1.281-14.781c-0.309-4.885-0.309-5.268,1.199-8.562c1.5-3.311,3.902-9.541,3.902-12.85
			c0-3.307,0.902-11.93,0.902-11.93l-0.828-7.131c0,0-3.145-0.086-2.77-3.01c0.371-2.924-0.453-6.611-0.453-8.488
			c0-1.875-3.012-8.551-2.785-15.619c0.234-7.057,0.602-19.371,0.602-19.371s-2.852,7.357-3.973,14.496
			c-1.137,7.133-2.109,31.992-4.133,32.885c-2.027,0.902-3.605,0.982-3.605,0.982s-3.754,6.832-3.754,9.234
			c0,2.398-2.324,18.543-1.883,25.156c0.461,6.605,1.059,15.322,1.805,17.711c0.75,2.412,0.832,9.539,1.359,12.027
			c0.52,2.479-2.105,9.154-6.168,9.229c-4.051,0.07-6.676-1.053-8.25-4.047c-1.582-3.01-1.281-8.041-1.426-11.646
			c-0.156-3.607-0.301-5.934,0.668-7.436c0.984-1.494,1.727-5.186,1.797-6.605c0.082-1.434,0.387-10.52,0.238-13.588
			c-0.156-3.084-1.879-15.094-1.879-15.32c0-0.229-1.582-12.543-1.582-12.543s0.672-2.779-1.496-3.602
			c-2.184-0.824-4.137-2.25-3.98-5.102c0.148-2.867,2.996-12.693,3.75-17.576c0.758-4.885,0.902-9.76,0.984-10.818
			c0.07-1.043-0.68-5.102-0.914-10.654c-0.223-5.562-0.223-10.975-0.293-13.898c-0.078-2.926-0.078-12.848,1.566-17.723
			c1.652-4.881,4.219-9.611,4.957-13.062c0.762-3.45,2.41-20.946,2.715-25.604c0.297-4.654,2.023-11.269,2.023-12.311
			c0-1.061-2.484,2.021-3.75,3c-1.281,0.978-6.914,18.997-10.223,23.882c-3.297,4.872-7.727,15.463-7.5,21.398
			c0.219,5.934,1.047,15.318,1.203,18.318c0.145,3.01-1.43,3.75-1.43,3.75s1.352,2.414-0.152,3.006
			c-1.5,0.602-3.828,1.354-3.828,1.354s-4.504,13.443-8.633,15.771c-4.133,2.328-7.738,2.854-7.738,2.854
			s-1.797,18.248-2.027,21.402c-0.23,3.15-0.75,6.146-0.75,6.146s2.324,3.98,1.875,7.367c-0.453,3.381-0.156,13.293,1.285,15.92
			c1.414,2.629,1.879,10.891,0.078,11.943c-1.816,1.049-3.387,1.123-3.387,1.123s0.375,2.779-0.609,5.037
			c-0.969,2.242-5.023,4.801-6.449,3.818c-1.434-0.975-2.859-2.852-2.406-5.023c0.453-2.176,1.883-4.434,2.105-5.111
			c0.219-0.67,0.449-1.494,0.449-1.494s0.898-1.123-0.305-2.328c-1.203-1.207-1.797-1.574-1.871-3.008
			c-0.074-1.424-0.605-3.236-0.605-3.236s0.371,7.738-0.074,8.943c-0.449,1.205-1.273,3.521-1.199,4.955
			c0.078,1.424,1.727,6.762,0.832,7.129c-0.906,0.385-1.504,0.156-1.504,0.385c0,0.215,0,2.996-0.078,4.727
			c-0.07,1.73-1.809,3.822-3.676,4.203c-1.883,0.371-4.438,0.074-5.191-1.35c-0.742-1.43,0-3.676,0.453-5.553
			c0.449-1.887,0.449-1.887,0.23-4.213c-0.23-2.322-0.602-4.35-1.211-5.254c-0.594-0.896-2.996-7.582-2.848-11.789
			c0.152-4.201-0.227-15.691-0.305-18.996c-0.07-3.311,0.902-6.461,0.977-7.285c0.082-0.826-1.645-6.008-1.953-10.137
			c-0.297-4.133-1.203-8.865-1.203-8.865s-3.82,0.145-4.5-1.346c-0.672-1.506-0.223-4.059-0.223-4.059s-3.227,0.525-5.023,0.08
			c-1.809-0.455-4.52-1.207-7.07-3.762c-2.551-2.553-4.281-7.51-5.625-9.229c-1.359-1.732-1.359-1.732-1.359-1.732
			s-2.324,0.227-3.523-0.896c-1.207-1.133-1.578-2.111-1.055-2.557c0.527-0.453,1.055-0.834,1.273-0.834
			c0.23,0-2.102-3.141-2.543-4.715c-0.453-1.586-1.355-3.311-0.309-6.842c1.055-3.523,0.828-5.402-0.969-8.562
			c-1.797-3.145-6.758-8.924-7.438-10.512c-0.676-1.576-3.012-4.799-3.012-4.799s-2.926-2.855-4.203-4.73
			c-1.273-1.884-2.246-3.164-2.328-3.606c-0.066-0.452-0.969-3.308-0.969-3.308s-0.379,8.934,0.754,11.869
			c1.117,2.928,1.715,10.582,1.945,14.785s-0.23,7.514,0.527,9.766c0.75,2.248,1.504,15.539-0.297,25.758
			c-1.801,10.211-1.961,10.594-0.164,18.689c1.809,8.121,5.195,21.938,4.961,22.309c-0.227,0.367-1.797,0.367-1.797,0.367
			s1.512,6.02,2.406,6.842c0.902,0.824,2.855,5.328,3,8.252c0.152,2.939,2.703,6.688,0.449,8.562
			c-2.25,1.889-8.262,3.311-9.234,1.805c-0.977-1.494-2.551-6.686-2.406-9.014c0.152-2.32,0.152-5.482-0.371-7.121
			c-0.523-1.66-0.676-4.656-0.676-4.656l-10.359,0.824c0,0-2.105-9.17-2.105-14.797c0-5.635-0.824-10.66-1.809-14.111
			c-0.973-3.465-4.949-14.652-6.227-18.855c-1.273-4.207-1.953-6.309-2.176-6.379c-0.227-0.082-1.504-1.504-1.504-1.504
			s-3.605,9.844-5.781,15.619c-2.176,5.781-4.129,11.787-3.684,16.969c0.453,5.186,1.422,33.26,2.406,38.141
			c0.98,4.885,1.129,7.143,1.129,7.143l-4.062,1.5c0,0-0.516,3.752,0.68,5.186c1.199,1.42,2.711,6.006,1.199,8.037
			c-1.5,2.016-3.824,2.473-4.273,5.244c-0.457,2.779-1.277,7.666-3.383,9.24c-2.105,1.576-5.938,2.555-9.465,1.053
			c-3.531-1.504-3.301-3.678-1.352-7.584c1.957-3.906,6.914-9.686,7.285-11.416c0.379-1.73,0.68-6.689,0.68-6.689
			s-3.98,1.057-5.859-0.979c-1.875-2.018-1.348-3.076-1.504-7.125c-0.148-4.051-1.652-39.277-1.574-40.176
			C913.434,267.938,910.73,228.589,912.156,223.853z"/>
	</g>
	<g>
		<circle fill="#649600" cx="1459.833" cy="197.333" r="200"/>
		<g>
			<path fill="#FFFFFF" d="M1514.221,220.558c22.116-7.655,37.55-24.924,37.55-45.012c0-27.188-28.256-49.23-63.113-49.23
				c-4.076,0-8.058,0.312-11.919,0.889l-17.511-105.903c-0.541-3.271-3.654-5.478-6.898-4.941c-3.27,0.541-5.482,3.63-4.941,6.898
				l17.633,106.64c-23.144,7.299-39.48,24.981-39.48,45.648c0,20.088,15.436,37.356,37.554,45.012h-115.569v31.785h224.617v-31.785
				H1514.221z"/>
			<rect x="1347.524" y="307.438" fill="#FFFFFF" width="224.617" height="31.785"/>
			<rect x="1347.524" y="263.646" fill="#FFFFFF" width="224.617" height="10.596"/>
			<rect x="1347.524" y="285.54" fill="#FFFFFF" width="224.617" height="10.596"/>
		</g>
	</g>
	<path fill="#649600" d="M1525.782,143.825c6.295,6.631,10.023,14.836,10.023,23.721c0,22.033-22.898,39.9-51.148,39.9
		c-12.639,0-24.201-3.584-33.127-9.51c9.32,9.812,24.27,16.178,41.127,16.178c28.25,0,51.148-17.867,51.148-39.9
		C1543.806,162.038,1536.806,151.144,1525.782,143.825z"/>
</g>
<g id="Layer_2">
	<circle fill="#0096FF" cx="200" cy="200" r="200"/>
	<g>
		<defs>
			<circle id="SVGID_1_" cx="200" cy="200" r="200"/>
		</defs>
		<clipPath id="SVGID_2_">
			<use xlink:href="#SVGID_1_"  overflow="visible"/>
		</clipPath>
		<path clip-path="url(#SVGID_2_)" fill="#FFFFFF" d="M200,43.667c12,0,49.666,9.667,49.666,45.666c0,8.805-0.604,16.5-1.506,23.424
			c0.709-0.438,1.418-0.682,2.104-0.682c0.195,0,0.389,0.02,0.578,0.06c3.797,0.801,5.248,9.142,3.248,18.629
			c-1.896,8.996-6.219,15.793-9.896,15.793c-0.203,0-0.402-0.021-0.6-0.062c-0.668-0.142-1.262-0.528-1.777-1.103
			c-1.25,6.2-2.15,12.107-2.15,18.275c0,20.665-0.334,26-0.334,26S240.666,195,231.666,204c-9,9-27,25.334-27,25.334l15,16.666
			l-11.334,9.668l8,15.332l5,83l26-108.666v-48.667l13,9.001L325,225.334c0,0,17.666,5.666,22.666,22.666s25,163.332,25,163.332
			H27.334c0,0,20-146.332,25-163.332S75,225.334,75,225.334l64.667-19.666l13-9.001v48.667l26,108.666l5-83l8-15.332L180.334,246
			l15-16.666c0,0-18-16.334-27-25.334c-9-9-7.667-14.333-7.667-14.333s-0.333-5.334-0.333-26c0-6.168-0.899-12.075-2.149-18.275
			c-0.518,0.574-1.109,0.961-1.778,1.103c-0.197,0.042-0.397,0.062-0.599,0.062c-3.68,0-8.001-6.797-9.898-15.793
			c-2-9.487-0.548-17.828,3.249-18.629c0.19-0.04,0.383-0.06,0.577-0.06c0.687,0,1.395,0.243,2.105,0.682
			c-0.903-6.924-1.507-14.619-1.507-23.424C150.334,53.334,188,43.667,200,43.667 M200,31.667
			c-19.318,0-61.666,14.521-61.666,57.666c0,5.201,0.196,10.274,0.596,15.325c-5.491,5.66-7.405,16.044-4.763,28.581
			c1.95,9.242,6.442,18.963,13.699,23.169c0.32,2.629,0.468,4.977,0.468,7.259c0,10.621,0.086,17.267,0.175,21.285l-2.673,1.85
			l-11.457,7.932l-62.87,19.121l-0.087,0.025l-0.087,0.029c-0.969,0.311-23.797,7.869-30.514,30.705
			c-5.052,17.178-23.257,152.65-25.315,164.697l-2.397,14.021h14.226h345.332h14.225l-2.396-14.021
			c-2.059-12.047-20.264-147.52-25.316-164.697c-6.717-22.836-29.545-30.395-30.514-30.705l-0.086-0.029l-0.086-0.025
			l-62.873-19.121l-11.455-7.932l-2.674-1.85c0.09-4.018,0.176-10.665,0.176-21.285c0-2.458,0.184-4.898,0.469-7.259
			c7.258-4.206,11.75-13.928,13.697-23.17c2.643-12.535,0.729-22.919-4.762-28.58c0.4-5.052,0.596-10.124,0.596-15.325
			C261.666,46.188,219.318,31.667,200,31.667L200,31.667z"/>
	</g>
</g>
</svg>
