<?xml version="1.0" encoding="utf-8"?>
<!-- Generator: Adobe Illustrator 20.0.0, SVG Export Plug-In . SVG Version: 6.00 Build 0)  -->
<svg version="1.1" id="Layer_1" xmlns="http://www.w3.org/2000/svg" xmlns:xlink="http://www.w3.org/1999/xlink" x="0px" y="0px"
	 viewBox="0 0 960 1912" style="enable-background:new 0 0 960 1912;" xml:space="preserve">
<style type="text/css">
	.st0{fill:#909AB7;}
	.st1{fill:#FFFFFF;}
	.st2{opacity:0.6;fill:#006A3F;enable-background:new    ;}
	.st3{fill:#CCCCCC;}
	.st4{fill:#006A3F;}
	.st5{fill:#999999;}
	.st6{font-family:'Tahoma';}
	.st7{font-size:18px;}
	.st8{font-size:16px;}
	.st9{font-size:26px;}
	.st10{fill:#4D4D4D;}
	.st11{fill:none;}
	.st12{font-size:88px;}
	.st13{clip-path:url(#SVGID_2_);fill:#008C3D;}
	.st14{clip-path:url(#SVGID_4_);}
	.st15{clip-path:url(#SVGID_8_);fill:none;stroke:#FFFFFF;stroke-width:0.935;}
	.st16{clip-path:url(#SVGID_10_);fill:#008C3D;}
	.st17{clip-path:url(#SVGID_12_);}
	.st18{clip-path:url(#SVGID_16_);fill:none;stroke:#FFFFFF;stroke-width:0.935;}
	.st19{font-family:'MyriadPro-Regular';}
	.st20{clip-path:url(#SVGID_18_);fill:#008C3D;}
	.st21{clip-path:url(#SVGID_20_);}
	.st22{clip-path:url(#SVGID_24_);fill:none;stroke:#FFFFFF;stroke-width:0.935;}
	.st23{font-size:36px;}
	.st24{clip-path:url(#SVGID_26_);fill:#008C3D;}
	.st25{clip-path:url(#SVGID_28_);}
	.st26{clip-path:url(#SVGID_32_);fill:none;stroke:#FFFFFF;stroke-width:0.935;}
	.st27{clip-path:url(#SVGID_34_);fill:#008C3D;}
	.st28{clip-path:url(#SVGID_36_);}
	.st29{clip-path:url(#SVGID_40_);fill:none;stroke:#FFFFFF;stroke-width:0.935;}
	.st30{clip-path:url(#SVGID_42_);fill:#008C3D;}
	.st31{clip-path:url(#SVGID_44_);}
	.st32{clip-path:url(#SVGID_48_);fill:none;stroke:#FFFFFF;stroke-width:0.935;}
	.st33{fill:#0F2030;}
</style>
<image style="overflow:visible;enable-background:new    ;" width="640" height="427" xlink:href="../../EBF5E9DE.jpeg"  transform="matrix(1.5 0 0 1.296 0 0.999)">
</image>
<rect x="0.8" y="2025.1" class="st0" width="960" height="431"/>
<g>
	
		<image style="overflow:visible;opacity:0.1;enable-background:new    ;" width="990" height="458" xlink:href="../../EBF5E9E2.png"  transform="matrix(1 0 0 0.2969 -9.2136 1895)">
	</image>
	<g>
		<rect x="0.8" y="1898" class="st1" width="960" height="127.1"/>
	</g>
</g>
<g>
	
		<image style="overflow:visible;opacity:0.1;enable-background:new    ;" width="990" height="170" xlink:href="../../EBF5E9E5.png"  transform="matrix(1 0 0 1 -10 893)">
	</image>
	<g>
		<rect y="903" class="st1" width="960" height="140"/>
	</g>
</g>
<rect y="144.6" class="st2" width="960" height="315"/>
<g>
	
		<image style="overflow:visible;opacity:0.1;enable-background:new    ;" width="990" height="170" xlink:href="../../EBF5E9E6.png"  transform="matrix(1 0 0 1 -10 -9)">
	</image>
	<g>
		<rect y="1" class="st1" width="960" height="140"/>
	</g>
</g>
<g>
	<path class="st3" d="M108.9,64.8l2.2-1.7c0,0,2.7,3.4,4.5,5c0,0-2.2,1.8-2.9,2.3C112.7,70.5,110.9,67.2,108.9,64.8z"/>
	<path class="st3" d="M84.5,64.8l-2.2-1.7c0,0-2.7,3.4-4.5,5c0,0,2.2,1.8,2.9,2.3C80.6,70.5,82.4,67.2,84.5,64.8z"/>
	<path class="st3" d="M84.5,46.3L82.2,48c0,0-2.7-3.4-4.5-5c0,0,2.2-1.8,2.9-2.3C80.6,40.7,82.4,44,84.5,46.3z"/>
	<path class="st3" d="M108.7,46.3l2.2,1.7c0,0,2.7-3.4,4.5-5c0,0-2.2-1.8-2.9-2.3C112.5,40.7,110.7,44,108.7,46.3z"/>
	<path class="st3" d="M135,66.7c0,0-23.8-1.7-27.2,17.3h-0.3c0,0,1.5-18.4,27.5-17.6V66.7z"/>
	<path class="st3" d="M59,44.5c0,0,23.1,2.5,26.5-17.5h0.3c0,0,0.2,18.6-26.8,17.8C59,44.8,59,44.5,59,44.5z"/>
	<path class="st3" d="M59,67.1c0,0,22.7-2.1,26,16.9h0.3c0,0-1.3-18-26.3-17.2C59,66.8,59,67.1,59,67.1z"/>
	<path class="st3" d="M135,44.3c0,0-23.7,2.7-27.1-17.3h-0.3c0,0,1.4,18.4,27.4,17.6V44.3z"/>
	<rect x="97" y="18" class="st3" width="0" height="76.3"/>
	<polygon class="st3" points="111.5,56 144.5,56 144.5,56 	"/>
	<polygon class="st3" points="50,56 81.9,56 81.9,56 	"/>
	<ellipse class="st3" cx="89.2" cy="55.5" rx="7.9" ry="7.9"/>
	<ellipse class="st3" cx="104.2" cy="55.3" rx="7.9" ry="7.9"/>
	<path class="st4" d="M96.4,26.7c0,7.5,0,14.9,0,22.3c-0.3,0.1-0.7,0-1-0.1c-1.1-0.3-2-0.8-2.8-1.6c-1.3-1.2-2.3-2.6-3.1-4.2
		c-1.5-2.8-2.4-5.7-3-8.8c-0.5-2.1-0.8-4.3-0.9-6.4c0-0.3,0-0.6,0-0.8c0-0.3,0.1-0.4,0.4-0.4s0.6,0,0.9,0c3.1,0,6.1,0,9.2,0
		C96.1,26.7,96.2,26.7,96.4,26.7z"/>
	<path class="st4" d="M96.3,62.3c0,7.3,0,14.6,0,21.9c-3.7,0-7.4,0-11.1,0c0-0.1,0-0.1,0-0.1c0-0.1,0.1-0.1,0.1-0.2
		c0.1,0,0.2,0,0.2,0c0-0.1,0.1-0.1,0.1-0.1c0.1-0.9,0.1-1.8,0.2-2.7c0.5-4.2,1.4-8.3,3.2-12.2c0.7-1.5,1.6-2.9,2.7-4.2
		c0.8-0.9,1.7-1.6,2.8-2.1C95.2,62.4,95.9,62.3,96.3,62.3z"/>
	<path class="st4" d="M58.7,66.8c0-3.6,0-7.2,0-10.8c7.4,0,14.8,0,22.3,0c0,0.4,0,0.7-0.1,1c-0.3,1.1-0.8,2-1.6,2.8
		c-1.2,1.3-2.6,2.2-4.2,3c-2.3,1.2-4.8,2-7.4,2.6c-2.1,0.5-4.2,0.9-6.4,1.1C60.5,66.6,59.6,66.7,58.7,66.8z"/>
	<path class="st4" d="M134.7,44.5c0,3.6,0,7.1,0,10.8c-0.2,0-0.3,0-0.5,0c-2.3,0-4.7,0-7,0c-4.7,0-9.5,0-14.2,0c-0.2,0-0.3,0-0.5,0
		c0-0.5,0.1-1,0.2-1.4c0.3-1,0.9-1.8,1.6-2.5c1.2-1.3,2.7-2.3,4.3-3.1c2.3-1.2,4.8-2,7.3-2.6c1.5-0.4,3.1-0.6,4.7-0.9
		c0.2,0,0.5,0,0.7,0c0.9-0.1,1.9-0.1,2.8-0.2C134.4,44.5,134.5,44.5,134.7,44.5z"/>
	<path class="st4" d="M97.1,26.7c3.5,0,7,0,10.4,0c0.1,0.4,0.2,0.8,0.3,1.2c-0.1-0.1-0.2-0.1-0.3-0.2c0,0.1,0,0.2,0,0.3
		c-0.3,4.1-1.1,8-2.5,11.9c-0.8,2.1-1.7,4.1-3.1,5.9c-0.7,0.9-1.5,1.8-2.5,2.4c-0.7,0.4-1.5,0.7-2.3,0.8C97,48.6,97,27.3,97.1,26.7z
		"/>
	<path class="st4" d="M112.6,56c7.4,0,14.7,0,22.1,0c0.1,0.3,0.1,10.4,0,10.8c-0.1-0.1-0.2-0.3-0.3-0.4s-0.3-0.1-0.5-0.1
		c-4.6-0.3-9.1-1.1-13.3-2.9c-1.6-0.6-3.1-1.4-4.5-2.4c-1.1-0.8-2.1-1.8-2.8-3c-0.3-0.5-0.5-1.1-0.6-1.7
		C112.6,56.3,112.6,56.2,112.6,56z"/>
	<path class="st4" d="M80.9,55.3c-7.4,0-14.8,0-22.2,0c-0.1-0.3-0.1-9.2-0.1-10.7c0.2,0,0.3-0.1,0.5-0.2c0.1,0.1,0.1,0.2,0.2,0.2
		c-0.1,0.1-0.3,0.1-0.5,0.2c0.1,0.1,0.2,0.1,0.3,0.1c1.2,0.1,2.5,0.2,3.7,0.4c4.1,0.5,8,1.5,11.7,3.3c1.6,0.8,3.2,1.8,4.4,3.1
		c0.9,0.9,1.5,1.9,1.8,3.1C80.9,54.9,80.9,55.1,80.9,55.3z"/>
	<path class="st4" d="M107.4,83.9c-0.2,0-0.4,0-0.5,0.1l0,0c0.3,0,0.6,0,0.9-0.1c-0.1,0.3-0.2,0.4-0.4,0.4c-2.4,0-4.8,0-7.3,0
		c-0.9,0-1.7,0-2.6,0c-0.2,0-0.3,0-0.5,0c0-0.2,0-0.5,0-0.7c0-2.2,0-4.3,0-6.5c0-4.8,0-9.5,0-14.3c0-0.2,0-0.3,0-0.5
		c0.8,0.1,1.5,0.4,2.2,0.8c1.1,0.6,1.9,1.5,2.6,2.4c1.1,1.5,2,3.1,2.7,4.8c1,2.5,1.7,5.1,2.2,7.7c0.3,1.6,0.5,3.3,0.6,4.9
		C107.4,83.3,107.4,83.6,107.4,83.9z"/>
	<path class="st4" d="M102.8,50.8c-0.1,0.1-0.2,0.2-0.4,0.2c-0.3,0-0.5,0.2-0.6,0.5c-0.1,0.2-0.3,0.3-0.4,0.5
		c-0.4,0.4-0.7,0.8-0.7,1.3c0,0.1,0,0.2-0.1,0.4c-0.2,0.6,0,1.1,0.3,1.6c0.3,0.4,0.8,0.5,1.2,0.2c0.1-0.1,0.2-0.1,0.3-0.2
		c0.2-0.1,0.4-0.1,0.5,0.1c0.1,0.1,0.2,0.2,0.3,0.2c0.2,0,0.2,0.1,0.2,0.3V56c-0.1,0.5,0.1,0.9,0.3,1.3c0.2,0.3,0.3,0.8,0.1,1.2
		c-0.1,0.4-0.1,0.7,0.1,1.1c0.2,0.3,0.3,0.7,0.3,1.1c0,0.1,0.1,0.3,0.2,0.4c0.1,0.2,0.2,0.3,0.3,0.5c0.2,0,0.5,0,0.8-0.1
		s0.4-0.3,0.5-0.5s0.1-0.3,0.2-0.5c0.1-0.1,0.3-0.2,0.3-0.4c0.1-0.2,0-0.4,0.1-0.5c0.1-0.2,0.3-0.4,0.5-0.5c0.3-0.2,0.3-0.4,0.3-0.7
		c-0.1-0.3-0.1-0.7-0.1-1c0-0.5,0.3-0.9,0.6-1.2c0.5-0.4,0.7-1,0.7-1.6c-0.2-0.1-0.4-0.1-0.5,0s-0.3,0.1-0.4-0.1
		c-0.1-0.3-0.4-0.5-0.6-0.8c-0.2-0.4-0.4-0.8-0.6-1.2c-0.1-0.1-0.1-0.3-0.2-0.4c0-0.1,0-0.1-0.1-0.3c0.3,0.2,0.5,0.4,0.6,0.7
		c0,0.1,0.1,0.2,0.1,0.3c0.3,0.4,0.5,0.8,0.6,1.3c0,0,0,0.1,0.1,0.1s0.2,0,0.3-0.1c0.3-0.2,0.6-0.4,0.8-0.6c0.4-0.3,0.4-0.6,0.1-1.1
		c0.2,0,0.3,0,0.5,0c-0.1-0.2-0.3-0.2-0.4-0.3s-0.2-0.3-0.2-0.4c0.4,0.3,0.9,0.4,1.1,0.8c0.6,0.4,0.7,1.1,0.9,1.8
		c0,0.2,0.1,0.4,0.2,0.7c0.2-0.4,0.1-0.7,0.1-1s0-0.6,0-0.9h0.1c0,0.1,0.1,0.2,0.1,0.3c0.6,2.6,0,4.9-1.7,6.8
		c-1.2,1.4-2.8,2.2-4.7,2.4c-2,0.2-3.8-0.2-5.5-1.4l0,0c-0.2-0.2-0.4-0.4-0.6-0.5c-0.2-0.2-0.4-0.4-0.6-0.6s-0.4-0.5-0.5-0.7
		c-0.2-0.3-0.3-0.5-0.4-0.8s-0.2-0.5-0.3-0.8c-0.1-0.2-0.1-0.3-0.1-0.5c0-1.3,0-2.6,0-3.9c0-0.2,0-0.4,0.1-0.5
		c0.9-2.8,3.7-4.9,6.7-5.1c0.1,0,0.1,0,0.2,0c-0.5,0.3-1.1,0.3-1.5,0.7c0.2,0.1,0.4,0,0.6-0.1s0.4-0.2,0.6-0.3
		c0.4-0.2,0.8-0.2,1.2-0.1c-0.2,0.1-0.4,0.1-0.5,0.2c-0.1,0.1-0.4,0.1-0.3,0.4c-0.2,0.2-0.3,0.3-0.5,0.5c-0.4-0.3-0.7-0.3-1.1,0.2
		c0.1,0,0.2,0,0.3,0c0,0.1,0,0.2,0.1,0.3c0,0.2,0,0.3-0.2,0.3c-0.3,0-0.4,0.3-0.6,0.5c-0.1,0.2-0.1,0.4,0.2,0.4
		C102.6,50.8,102.7,50.8,102.8,50.8L102.8,50.8z M98.4,55.6c-0.3,0.6-0.1,3.5,0.8,4.7c0-0.4,0.1-0.8,0-1.1c-0.1-0.5-0.1-1-0.2-1.5
		c0-0.2-0.1-0.5-0.2-0.7c-0.3-0.3-0.5-0.7-0.4-1.2C98.4,55.8,98.4,55.7,98.4,55.6z M107.8,60.3c0.2,0.1,0.4,0,0.4-0.2
		c0.1-0.4,0.2-0.9,0.5-1.3c0.1-0.1,0-0.2,0-0.4c-0.2,0.2-0.3,0.3-0.5,0.4c-0.2,0.1-0.2,0.2-0.2,0.4c0,0.1,0,0.3-0.1,0.4
		C107.7,59.9,107.7,60.1,107.8,60.3z"/>
	<path class="st4" d="M87.2,62.8c0.6,0,1.1,0,1.7,0c0.3,0,0.6-0.1,0.8-0.4c0.1-0.1,0.2-0.2,0.4-0.2c0.4-0.2,0.8-0.3,1.1-0.7l0.1-0.1
		c0.7-0.1,1.1-0.6,1.4-1.1c0.1-0.1,0.2-0.3,0.4-0.4c0.2-0.2,0.2-0.3,0.2-0.6c-0.1-0.2-0.2-0.4-0.4-0.4c-0.1,0-0.2,0-0.2,0
		c-0.5,0-0.8-0.2-1.2-0.4c-0.1-0.1-0.2-0.3-0.2-0.5c-0.3,0-0.5,0-0.8,0c-0.1,0-0.3-0.1-0.3-0.2c-0.2-0.4-0.6-0.5-1-0.5
		c-0.2,0-0.5,0-0.7-0.2c-0.1-0.1-0.3-0.1-0.5,0s-0.4,0.2-0.6,0.3c-0.2,0-0.4,0-0.6,0c-0.3,0-0.4,0-0.4-0.3c0-0.1,0-0.2,0-0.2
		c0-0.5,0-0.5-0.5-0.7c0.1-0.2,0.2-0.4,0.3-0.7c-0.3,0-0.5-0.2-0.7,0.2c-0.1,0.2-0.5,0.1-0.6-0.2c-0.1-0.2-0.1-0.4-0.1-0.6
		c0-0.2,0.1-0.4,0.2-0.6c0.1-0.2,0.3-0.2,0.5-0.2s0.4,0.1,0.6,0s0.8,0.2,0.8,0.5c0,0.1,0,0.2,0.1,0.3c0.2-0.2,0.2-0.3,0.2-0.5
		c0-0.3,0.1-0.6,0.4-0.6c0.2-0.1,0.4-0.2,0.4-0.4c0-0.5,0.3-0.6,0.7-0.6c0.1-0.3,0.2-0.4,0.5-0.4c0.1,0,0.3-0.1,0.4-0.1
		c-0.1-0.1-0.3-0.2-0.5-0.4c0,0-0.1,0-0.2,0c0.3-0.3,0.7-0.2,1-0.2C90,51.8,90,52,90.1,52c0.1,0.1,0.3,0,0.5,0
		c-0.1-0.1-0.1-0.2-0.2-0.3c-0.2-0.1-0.3-0.2-0.3-0.4v-0.1c-0.4-0.3-0.8-0.7-1.4-0.7c-0.1,0-0.2,0-0.2,0.2s-0.1,0.3-0.3,0.4
		c-0.1,0.1-0.2,0.2-0.3,0.4c-0.1-0.1-0.2-0.2-0.2-0.3c-0.1-0.2-0.3-0.4-0.5-0.5c-0.3-0.1-0.3-0.4-0.1-0.6c0.1-0.1,0.3-0.1,0.4-0.2
		c0.1-0.1,0.3-0.1,0.3-0.3c-0.4-0.2-0.6-0.2-1,0c-0.1,0-0.2-0.1-0.2-0.1c-0.1-0.3-0.3-0.5-0.5-0.7c-0.1-0.1-0.1-0.3,0.1-0.4
		c0.3-0.1,0.7-0.2,1-0.3c0,0.2-0.1,0.3-0.2,0.3s-0.1,0-0.2,0s-0.3,0-0.3,0.2c0,0.1,0.1,0.3,0.3,0.3c0.1,0,0.3,0,0.4,0
		c0.3,0,0.6,0.1,0.7,0.4c0,0,0,0.1,0.1,0.1c0.2,0.4,0.3,0.4,0.7,0.3h0.1c0.1,0.1,0.2,0.2,0.2,0.3c0.2,0.2,0.3,0.1,0.4-0.1
		c0-0.1,0.1-0.2,0.1-0.3c0,0,0.1,0,0.1-0.1c0.4,0.2,0.6,0.7,1.1,0.8c0-0.3,0-0.6,0.2-0.8c0.1-0.1,0.1-0.2,0-0.3
		c-0.1-0.2,0-0.6-0.3-0.7v-0.1l0.1-0.1c0.3,0,0.7-0.1,1,0c0.1,0.1,0.2,0.1,0.4,0.2c0.6,0.3,1.1,0.5,1.4,1.2c0,0-0.1,0.1-0.1,0.3
		c-0.2,0-0.3,0-0.5,0c0.1,0.2,0.1,0.4,0.2,0.6c0.1-0.1,0.1-0.1,0.2-0.1c0.1,0.1,0.2,0.1,0.3,0.2c0,0,0,0,0.1,0
		c-0.1-0.1-0.1-0.3-0.2-0.5c0.1,0,0.2,0.1,0.2,0.1c0.1,0.2,0.1,0.3,0.2,0.5c0,0.1,0.1,0.2,0.2,0.2c0.2,0,0.3,0.2,0.2,0.4
		c-0.1,0.5,0.1,0.8,0.5,1.1c0.1,0.1,0.1,0.2,0.1,0.3c0,0.2,0.1,0.3,0.1,0.5c0,0.1,0,0.2,0,0.2c-0.2,0.6-0.2,1.1,0.1,1.7
		c0,0.1,0,0.2,0.1,0.4c0,0.2,0.1,0.4,0.1,0.6c0.1,0.4,0.3,0.5,0.8,0.3c0,0.6,0.1,1.2-0.2,1.8c-1.2,2.8-3.9,4.6-6.9,4.6
		c-0.5,0-1.1-0.1-1.6-0.2C87.5,62.9,87.4,62.8,87.2,62.8L87.2,62.8z M92.5,49.2c0.3,0.4,0.4,0.5,0.7,0.6
		C93.1,49.4,92.9,49.2,92.5,49.2z"/>
	<path class="st4" d="M87.3,62.8c-0.2,0-0.4,0-0.6-0.1c-2.8-1.1-4.5-3.1-4.9-6.1c-0.4-2.8,0.6-5.1,2.8-6.9c0.1-0.1,0.2-0.2,0.3-0.2
		c0.1,0.2,0,0.3,0,0.5c-0.1,0.2-0.2,0.3-0.3,0.4c-0.2,0.4-0.5,0.8-0.8,1.2c-0.4,0.5-0.4,1.1-0.4,1.7c0,0.2,0,0.4,0,0.6
		c0-0.1,0-0.2,0.1-0.3h0.1c0.1,0.3,0.2,0.7,0.3,1c0,0.1,0,0.1,0,0.2c0,0.6,0.4,0.9,0.8,1.2c0.3,0.2,0.7,0.3,0.9,0.6
		c0.4,0,0.5,0.3,0.6,0.6s0.4,0.4,0.7,0.4c0.3,0,0.4,0,0.4,0.4c0,0.2-0.1,0.4-0.3,0.5c-0.1,0.2-0.3,0.3-0.2,0.5
		c0,0.1-0.1,0.2-0.1,0.2c0.3,0.4,0.5,0.8,0.8,1.2c0.2,0.3,0.5,0.3,0.8,0.4C88.3,61.6,88,62.2,87.3,62.8L87.3,62.8z"/>
	<path class="st4" d="M102.8,50.8c0-0.2,0.1-0.3,0.3-0.5c0.1-0.1,0.2-0.2,0.4-0.3c0.2-0.1,0.6-0.2,0.7,0c0.1,0.1,0.2,0.2,0.1,0.3
		s-0.2,0.1-0.4,0c0,0-0.1,0-0.1-0.1c-0.1,0.2,0,0.3,0.1,0.4c0.1,0.1,0.3,0.2,0.5,0.1c0.2-0.1,0.4-0.3,0.4-0.6
		c-0.2-0.1-0.5-0.1-0.5-0.4c0.5,0,0.5,0.1,0.6,0.4c0,0.2,0.1,0.4,0.4,0.5c0.1-0.1,0.2-0.2,0.2-0.4c0,0.1,0.1,0.1,0.1,0.2
		c0.1,0.2,0.3,0.3,0.5,0.3c0.1,0,0.2,0,0.3,0c0.1,0,0.2,0.1,0.3,0.2c0.1,0.1,0,0.3-0.2,0.4c-0.2,0.1-0.4,0.1-0.6,0.1s-0.3,0-0.5-0.1
		c-0.2,0-0.4-0.2-0.6,0.1c0,0-0.2,0-0.3,0c-0.2-0.1-0.3-0.2-0.6-0.3c0,0,0,0,0-0.1c-0.1-0.3-0.1-0.3-0.4-0.3
		C103.3,50.8,103.1,50.8,102.8,50.8L102.8,50.8z"/>
	<path class="st4" d="M95.1,51.3c0.4,0.2,0.7,0.6,0.8,1c-0.3,0.2-0.2-0.1-0.4-0.2c-0.1,0.1-0.1,0.3-0.2,0.4
		c-0.2-0.2-0.3-0.4-0.5-0.7c0-0.1,0-0.2,0-0.3C95,51.4,95.1,51.4,95.1,51.3z"/>
</g>
<text transform="matrix(1 0 0 1 157.1699 45.7432)" class="st5 st6 st7">SHPE | Michigan State University</text>
<text transform="matrix(1 0 0 1 157.1699 70.4219)" class="st5 st6 st7">Society of Hispanic Professional Engineers</text>
<text transform="matrix(1 0 0 1 316.5192 130.0352)" class="st5 st6 st8">About Us</text>
<text transform="matrix(1.0726 0 0 1 437.1455 130.0117)" class="st5 st6 st8">MemberSHPE</text>
<text transform="matrix(1.0192 0 0 1 583.8701 130.0352)" class="st5 st6 st8">SponsorSHPE</text>
<text transform="matrix(1 0 0 1 728.9121 130.0352)" class="st5 st6 st8">Contact</text>
<text transform="matrix(1 0 0 1 546.291 1281.5)" class="st1 st6 st9">PICTURE OF FLYER</text>
<g>
	
		<image style="overflow:visible;opacity:0.1;enable-background:new    ;" width="990" height="633" xlink:href="../../EBF5E9E3.png"  transform="matrix(1 0 0 1.9795 -20 420)">
	</image>
	<g>
		<rect y="459.6" class="st0" width="960" height="1193.6"/>
	</g>
</g>
<text transform="matrix(1 0 0 1 50.7864 2268.061)" class="st1 st6" style="font-size:21px;">Join Now</text>
<text transform="matrix(1 0 0 1 50.7864 2306.061)" class="st1 st6" style="font-size:21px;">Scholarships</text>
<text transform="matrix(1 0 0 1 50.7864 2348.061)" class="st1 st6" style="font-size:21px;">Regional SHPE</text>
<text transform="matrix(1 0 0 1 329.951 2266.061)" class="st1 st6" style="font-size:21px;">SHPE Foundation</text>
<text transform="matrix(1 0 0 1 331.0198 2306.061)" class="st1 st6" style="font-size:21px;">SHPE Detroit</text>
<text transform="matrix(1 0 0 1 50.7864 2390.061)" class="st1 st6" style="font-size:21px;">National SHPE</text>
<path class="st10" d="M836,2390.1c0-5.2,0-10.4,0-15.7c1.4,0,2.9,0,4.4,0c0.2-1.8,0.5-3.6,0.7-5.4c-1.7,0-3.4,0-5.1,0
	c0-0.6,0-1.2,0-1.8c0-0.5,0-1,0-1.5c0-1,0.4-1.5,1.4-1.6c0.4,0,0.8,0,1.2,0c0.7,0,1.5,0,2.2,0h0.1c0-0.1,0-0.2,0-0.2
	c0-1.7,0-3.3,0-5c0-0.2-0.1-0.3-0.3-0.3c-1.8,0-3.7,0-5.5,0c-2.2,0.1-4,1-5.1,2.9c-0.4,0.7-0.6,1.6-0.6,2.4c0,1.6,0,3.2,0,4.8
	c0,0.2-0.1,0.3-0.3,0.3c-0.9,0-1.7,0-2.6,0c-0.1,0-0.2,0-0.3,0c0,1.8,0,3.6,0,5.4c1,0,2.1,0,3.2,0c0,5.2,0,10.4,0,15.7
	c-0.1,0-0.2,0-0.3,0c-4.2,0-8.4,0-12.7,0c-2.3,0-3.9-1.6-3.9-3.9c0-9.3,0-18.6,0-27.9c0-1.9,1.4-3.5,3.3-3.8c0.2,0,0.3,0,0.5,0
	c9.3,0,18.6,0,28,0c2.2,0,3.8,1.6,3.8,3.8c0,3.6,0,7.2,0,10.8c0,5.7,0,11.4,0,17.1c0,2.2-1.6,3.8-3.8,3.8
	C841.5,2390,838.8,2390,836,2390.1C836.1,2390.1,836.1,2390.1,836,2390.1z"/>
<g>
	<path class="st10" d="M867.6,2384c0-5.4,0-10.7,0-16.1c3.3,0,6.5,0,9.9,0c-1.1,2-1.5,4.1-1.1,6.3s1.5,4,3.2,5.4
		c3.1,2.5,7.3,2.6,10.5,0.5c1.6-1.1,2.7-2.5,3.4-4.2c1-2.7,0.8-5.3-0.6-7.9c3.4,0,6.7,0,9.9,0c0,5.4,0,10.7,0,16.1
		c-0.1,0.2-0.1,0.4-0.2,0.6c-0.6,2.5-2.1,4.2-4.5,5.1c-0.4,0.2-0.9,0.3-1.3,0.4c-7.7,0-15.5,0-23.2,0c-0.2-0.1-0.3-0.1-0.5-0.2
		c-2.5-0.6-4.3-2.2-5.2-4.6C867.8,2384.9,867.7,2384.5,867.6,2384z"/>
	<path class="st10" d="M902.8,2360.7c0,1.9,0,3.8,0,5.8c-3.5,0-6.9,0-10.4,0c-0.3,0-0.8-0.2-1-0.4c-3.5-3.3-8.9-3.4-12.4,0
		c-0.4,0.3-0.7,0.4-1.2,0.4c-3.4,0-6.8,0-10.3,0c0-1.9,0-3.8,0-5.8c0.1-0.2,0.1-0.4,0.2-0.6c0.4-1.7,1.3-3,2.8-4.1c0,2.1,0,4,0,6
		c0.5,0,1,0,1.5,0c0-2,0-4,0-6c0-0.6,0.2-1,0.8-1c0.2,0,0.4-0.1,0.7-0.1c0,2.4,0,4.8,0,7.2c0.5,0,1,0,1.5,0c0-2.5,0-4.9,0-7.3
		c0.5,0,1,0,1.5,0c0,2.4,0,4.9,0,7.3c0.5,0,1,0,1.5,0c0-2.5,0-4.9,0-7.3c6.3,0,12.6,0,18.9,0c0.2,0,0.3,0.1,0.5,0.1
		c2.6,0.6,4.3,2.2,5.2,4.7C902.6,2359.9,902.7,2360.3,902.8,2360.7z M897,2363.5c0.5,0,1.1,0,1.6,0h0.1c0.7-0.1,1.1-0.4,1.1-1.1
		c0-1.2,0-2.5,0-3.7c0-0.7-0.4-1.1-1.1-1.1c-1.2,0-2.4,0-3.7,0c-0.7,0-1.1,0.4-1.1,1.1c0,1.2,0,2.4,0,3.6c0,0.7,0.4,1.1,1.1,1.2
		C895.8,2363.5,896.4,2363.5,897,2363.5z"/>
	<path class="st10" d="M885.2,2379.5c-3.8,0-6.9-3.1-6.9-6.9s3.1-7,6.9-7c3.8,0,6.9,3.1,6.9,6.9
		C892.1,2376.3,889,2379.5,885.2,2379.5z M885.2,2377.7c2.8,0,5.1-2.3,5.1-5.1s-2.3-5.2-5.1-5.2s-5.1,2.3-5.1,5.1
		C880.1,2375.3,882.4,2377.7,885.2,2377.7z"/>
</g>
<rect x="0.8" y="2455.1" class="st0" width="960" height="24"/>
<text transform="matrix(1 0 0 1 353.1859 2467.061)" class="st1 st6" style="font-size:12px;">Copyright @ 2016 Claury Mejia | Christian Narvios</text>
<g id="Layer_2">
</g>
<rect x="1" y="174" class="st11" width="957" height="90.7"/>
<text transform="matrix(1 0 0 1 269.5762 240.8794)" class="st1 st6 st12">Contact Us</text>
<image style="overflow:visible;enable-background:new    ;" width="750" height="375" xlink:href="../SponsorSHPE/gm_foundation_logo_grey.png"  transform="matrix(0.4512 0 0 0.4512 191.1855 2062.4338)">
</image>
<image style="overflow:visible;enable-background:new    ;" width="1200" height="725" xlink:href="../SponsorSHPE/Just-the-Whirlpool-Logo.png"  transform="matrix(0.1918 0 0 0.1918 530.2459 2088.5071)">
</image>
<text transform="matrix(1 0 0 1 221.088 130.0117)" class="st4 st6 st8">Home</text>
<g>
	<defs>
		<rect id="SVGID_1_" x="67.3" y="535.3" width="245.5" height="241.7"/>
	</defs>
	<clipPath id="SVGID_2_">
		<use xlink:href="#SVGID_1_"  style="overflow:visible;"/>
	</clipPath>
	<path class="st13" d="M190,775.8c67.1,0,121.5-53.5,121.5-119.6S257.1,536.6,190,536.6S68.5,590.1,68.5,656.2
		S122.9,775.8,190,775.8"/>
</g>
<g>
	<defs>
		<path id="SVGID_3_" d="M68.5,656.2c0,66,54.4,119.6,121.5,119.6s121.5-53.5,121.5-119.6S257.1,536.6,190,536.6
			S68.5,590.1,68.5,656.2"/>
	</defs>
	<clipPath id="SVGID_4_">
		<use xlink:href="#SVGID_3_"  style="overflow:visible;"/>
	</clipPath>
	<g class="st14">
		<defs>
			<rect id="SVGID_5_" x="64.1" y="532.4" width="251.6" height="247.8"/>
		</defs>
		<clipPath id="SVGID_6_">
			<use xlink:href="#SVGID_5_"  style="overflow:visible;"/>
		</clipPath>
		<g transform="matrix(1 0 0 1 0 0)" style="clip-path:url(#SVGID_6_);">
			
				<image style="overflow:visible;" width="391" height="385" xlink:href="F04AB18A.jpg"  transform="matrix(0.6435 0 0 0.6435 64.0794 532.4095)">
			</image>
		</g>
	</g>
</g>
<g>
	<defs>
		<rect id="SVGID_7_" x="67.3" y="535.3" width="245.5" height="241.7"/>
	</defs>
	<clipPath id="SVGID_8_">
		<use xlink:href="#SVGID_7_"  style="overflow:visible;"/>
	</clipPath>
	<ellipse class="st15" cx="190" cy="656.2" rx="121.5" ry="119.6"/>
</g>
<g>
	<defs>
		<rect id="SVGID_9_" x="364.1" y="533.4" width="247.3" height="243.5"/>
	</defs>
	<clipPath id="SVGID_10_">
		<use xlink:href="#SVGID_9_"  style="overflow:visible;"/>
	</clipPath>
	<path class="st16" d="M487.8,775.6c67.6,0,122.4-53.9,122.4-120.5s-54.8-120.5-122.4-120.5s-122.4,53.9-122.4,120.5
		S420.2,775.6,487.8,775.6"/>
</g>
<g>
	<defs>
		<path id="SVGID_11_" d="M365.4,656.2c0,66.5,54.8,120.5,122.4,120.5s122.4-53.9,122.4-120.5s-54.8-120.5-122.4-120.5
			S365.4,589.6,365.4,656.2"/>
	</defs>
	<clipPath id="SVGID_12_">
		<use xlink:href="#SVGID_11_"  style="overflow:visible;"/>
	</clipPath>
	<g class="st17">
		<defs>
			<rect id="SVGID_13_" x="361.4" y="531.7" width="252.8" height="249.5"/>
		</defs>
		<clipPath id="SVGID_14_">
			<use xlink:href="#SVGID_13_"  style="overflow:visible;"/>
		</clipPath>
		<g style="clip-path:url(#SVGID_14_);">
			
				<image style="overflow:visible;" width="383" height="378" xlink:href="F04AB189.jpg"  transform="matrix(0.6601 0 0 0.6601 361.4172 531.723)">
			</image>
		</g>
	</g>
</g>
<g>
	<defs>
		<rect id="SVGID_15_" x="364.1" y="533.4" width="247.3" height="243.5"/>
	</defs>
	<clipPath id="SVGID_16_">
		<use xlink:href="#SVGID_15_"  style="overflow:visible;"/>
	</clipPath>
	<ellipse class="st18" cx="487.8" cy="655.1" rx="122.4" ry="120.5"/>
</g>
<rect x="63.2" y="789.3" class="st11" width="253.8" height="96"/>
<text transform="matrix(1 0 0 1 140.6884 802.0347)"><tspan x="0" y="0" class="st1 st19 st7">Beatriz Ibarra</tspan><tspan x="13.9" y="21.6" class="st1 st19 st7">President </tspan><tspan x="-27.8" y="43.2" class="st1 st19 st7">Applied Engineering</tspan><tspan x="-21.2" y="64.8" class="st1 st19 st7">Ibarrabe@msu.edu</tspan></text>
<rect x="360.9" y="789" class="st11" width="253.8" height="96"/>
<text transform="matrix(1 0 0 1 424.49 801.7347)"><tspan x="0" y="0" class="st1 st19 st7">Christian Narvios</tspan><tspan x="9.4" y="21.6" class="st1 st19 st7">Vice-President </tspan><tspan x="-22.7" y="43.2" class="st1 st19 st7">Media and Information</tspan><tspan x="-7" y="64.8" class="st1 st19 st7">narviosc@msu.edu</tspan></text>
<g>
	<defs>
		<rect id="SVGID_17_" x="654.5" y="530.1" width="250.9" height="247"/>
	</defs>
	<clipPath id="SVGID_18_">
		<use xlink:href="#SVGID_17_"  style="overflow:visible;"/>
	</clipPath>
	<path class="st20" d="M780,775.7c68.6,0,124.1-54.7,124.1-122.2S848.5,531.3,780,531.3S655.8,586,655.8,653.5
		S711.4,775.7,780,775.7"/>
</g>
<g>
	<defs>
		<path id="SVGID_19_" d="M655.8,653.5c0,67.5,55.6,122.2,124.1,122.2S904.1,721,904.1,653.5S848.5,531.3,780,531.3
			S655.8,586,655.8,653.5"/>
	</defs>
	<clipPath id="SVGID_20_">
		<use xlink:href="#SVGID_19_"  style="overflow:visible;"/>
	</clipPath>
	<g class="st21">
		<defs>
			<rect id="SVGID_21_" x="651.6" y="527" width="256.8" height="253.3"/>
		</defs>
		<clipPath id="SVGID_22_">
			<use xlink:href="#SVGID_21_"  style="overflow:visible;"/>
		</clipPath>
		<g style="clip-path:url(#SVGID_22_);">
			
				<image style="overflow:visible;" width="433" height="427" xlink:href="BACBA6FD.jpg"  transform="matrix(0.5931 0 0 0.5931 651.6304 527.0428)">
			</image>
		</g>
	</g>
</g>
<g>
	<defs>
		<rect id="SVGID_23_" x="654.5" y="530.1" width="250.9" height="247"/>
	</defs>
	<clipPath id="SVGID_24_">
		<use xlink:href="#SVGID_23_"  style="overflow:visible;"/>
	</clipPath>
	<ellipse class="st22" cx="780" cy="653.5" rx="124.1" ry="122.2"/>
</g>
<rect x="653.1" y="789.3" class="st11" width="253.8" height="96"/>
<text transform="matrix(1 0 0 1 733.8589 802.0347)"><tspan x="0" y="0" class="st1 st19 st7">Claury Mejia</tspan><tspan x="11.2" y="21.6" class="st1 st19 st7">Secretary </tspan><tspan x="-22.6" y="43.2" class="st1 st19 st7">Computer Science</tspan><tspan x="3.4" y="64.8" class="st1 st19 st7">?@msu.edu</tspan></text>
<text transform="matrix(1 0 0 1 352.2082 504.8616)" class="st1 st6 st23">Executive Board</text>
<g>
	<defs>
		<rect id="SVGID_25_" x="212.3" y="897.1" width="251.7" height="247.8"/>
	</defs>
	<clipPath id="SVGID_26_">
		<use xlink:href="#SVGID_25_"  style="overflow:visible;"/>
	</clipPath>
	<path class="st24" d="M338.2,1143.6c68.8,0,124.6-54.9,124.6-122.6S407,898.4,338.2,898.4S213.6,953.3,213.6,1021
		S269.4,1143.6,338.2,1143.6"/>
</g>
<g>
	<defs>
		<path id="SVGID_27_" d="M213.6,1021c0,67.7,55.8,122.6,124.6,122.6s124.6-54.9,124.6-122.6S407,898.4,338.2,898.4
			S213.6,953.3,213.6,1021"/>
	</defs>
	<clipPath id="SVGID_28_">
		<use xlink:href="#SVGID_27_"  style="overflow:visible;"/>
	</clipPath>
	<g class="st25">
		<defs>
			<rect id="SVGID_29_" x="208.7" y="893.8" width="259" height="254.7"/>
		</defs>
		<clipPath id="SVGID_30_">
			<use xlink:href="#SVGID_29_"  style="overflow:visible;"/>
		</clipPath>
		<g style="clip-path:url(#SVGID_30_);">
			
				<image style="overflow:visible;" width="269" height="264" xlink:href="BACBA6F3.jpg"  transform="matrix(0.9627 0 0 0.9648 208.6644 893.8037)">
			</image>
		</g>
	</g>
</g>
<g>
	<defs>
		<rect id="SVGID_31_" x="212.3" y="897.1" width="251.7" height="247.8"/>
	</defs>
	<clipPath id="SVGID_32_">
		<use xlink:href="#SVGID_31_"  style="overflow:visible;"/>
	</clipPath>
	<ellipse class="st26" cx="338.2" cy="1021" rx="124.6" ry="122.6"/>
</g>
<rect x="211.3" y="1153.9" class="st11" width="253.8" height="96"/>
<text transform="matrix(1 0 0 1 285.4372 1166.7056)"><tspan x="0" y="0" class="st1 st19 st7">Scarllett Mejia</tspan><tspan x="17.6" y="21.6" class="st1 st19 st7">Treasurer </tspan><tspan x="12.2" y="43.2" class="st1 st19 st7">Economics</tspan><tspan x="10" y="64.8" class="st1 st19 st7">?@msu.edu</tspan></text>
<g>
	<defs>
		<rect id="SVGID_33_" x="507.6" y="899.9" width="256.7" height="252.7"/>
	</defs>
	<clipPath id="SVGID_34_">
		<use xlink:href="#SVGID_33_"  style="overflow:visible;"/>
	</clipPath>
	<path class="st27" d="M635.9,1151.2c70.1,0,127-56,127-125s-56.9-125-127-125s-127,56-127,125S565.8,1151.2,635.9,1151.2"/>
</g>
<g>
	<defs>
		<path id="SVGID_35_" d="M508.9,1026.2c0,69,56.9,125,127,125s127-56,127-125s-56.9-125-127-125S508.9,957.2,508.9,1026.2"/>
	</defs>
	<clipPath id="SVGID_36_">
		<use xlink:href="#SVGID_35_"  style="overflow:visible;"/>
	</clipPath>
	<g class="st28">
		<defs>
			<rect id="SVGID_37_" x="504.5" y="896.4" width="262.9" height="259.7"/>
		</defs>
		<clipPath id="SVGID_38_">
			<use xlink:href="#SVGID_37_"  style="overflow:visible;"/>
		</clipPath>
		<g style="clip-path:url(#SVGID_38_);">
			
				<image style="overflow:visible;" width="222" height="219" xlink:href="BACBA6F5.jpg"  transform="matrix(1.1842 0 0 1.1861 504.5425 896.4194)">
			</image>
		</g>
	</g>
</g>
<g>
	<defs>
		<rect id="SVGID_39_" x="507.6" y="899.9" width="256.7" height="252.7"/>
	</defs>
	<clipPath id="SVGID_40_">
		<use xlink:href="#SVGID_39_"  style="overflow:visible;"/>
	</clipPath>
	<ellipse class="st29" cx="635.9" cy="1026.2" rx="127" ry="125"/>
</g>
<rect x="506.3" y="1158.9" class="st11" width="253.8" height="96"/>
<text transform="matrix(1 0 0 1 565.4175 1171.7056)"><tspan x="0" y="0" class="st1 st19 st7">Armando Quiroga</tspan><tspan x="9.1" y="21.6" class="st1 st19 st7">Academic Chair </tspan><tspan x="-9.4" y="43.2" class="st1 st19 st7">Applied Engineering</tspan><tspan x="25" y="64.8" class="st1 st19 st7">?@msu.edu</tspan></text>
<text transform="matrix(1 0 0 1 361.8216 1289.5002)" class="st1 st6 st23">Chapter Advisor</text>
<g>
	<defs>
		<rect id="SVGID_41_" x="351.7" y="1313.3" width="255.6" height="251.7"/>
	</defs>
	<clipPath id="SVGID_42_">
		<use xlink:href="#SVGID_41_"  style="overflow:visible;"/>
	</clipPath>
	<path class="st30" d="M479.5,1563.6c69.9,0,126.5-55.8,126.5-124.5s-56.6-124.5-126.5-124.5S353,1370.3,353,1439.1
		S409.6,1563.6,479.5,1563.6"/>
</g>
<g>
	<defs>
		<path id="SVGID_43_" d="M353,1439.1c0,68.8,56.6,124.5,126.5,124.5S606,1507.9,606,1439.1c0-68.8-56.6-124.5-126.5-124.5
			S353,1370.3,353,1439.1"/>
	</defs>
	<clipPath id="SVGID_44_">
		<use xlink:href="#SVGID_43_"  style="overflow:visible;"/>
	</clipPath>
	<g class="st31">
		<defs>
			<rect id="SVGID_45_" x="351.7" y="1310.1" width="259" height="257.7"/>
		</defs>
		<clipPath id="SVGID_46_">
			<use xlink:href="#SVGID_45_"  style="overflow:visible;"/>
		</clipPath>
		<g style="clip-path:url(#SVGID_46_);">
			
				<image style="overflow:visible;" width="395" height="393" xlink:href="BACBA6F7.jpg"  transform="matrix(0.6558 0 0 0.6558 351.6759 1310.083)">
			</image>
		</g>
	</g>
</g>
<g>
	<defs>
		<rect id="SVGID_47_" x="351.7" y="1313.3" width="255.6" height="251.7"/>
	</defs>
	<clipPath id="SVGID_48_">
		<use xlink:href="#SVGID_47_"  style="overflow:visible;"/>
	</clipPath>
	<ellipse class="st32" cx="479.5" cy="1439.1" rx="126.5" ry="124.5"/>
</g>
<rect x="358.1" y="1575.9" class="st11" width="253.8" height="48"/>
<text transform="matrix(1 0 0 1 444.0237 1588.7056)"><tspan x="0" y="0" class="st1 st19 st7">Kyle Foster</tspan><tspan x="-42.5" y="21.6" class="st1 st19 st7">fosterky@egr.msu.edu</tspan></text>
<text transform="matrix(1 0 0 1 316.519 1701)"><tspan x="0" y="0" class="st33 st19 st7">Diversity Program Office</tspan><tspan x="0" y="21.6" class="st33 st19 st7">1108 Engineering Building</tspan><tspan x="0" y="43.2" class="st33 st19 st7">East Lansing, MI 48824</tspan><tspan x="0" y="64.8" class="st33 st19 st7">Phone: 517-355-8310</tspan></text>
<image style="overflow:visible;" width="464" height="600" xlink:href="BACBA6F4.jpg"  transform="matrix(0.5232 0 0 0.5232 50.7864 1673)">
</image>
<image style="overflow:visible;" width="145" height="145" xlink:href="BACBA6EC.jpg"  transform="matrix(1.0142 0 0 1.0142 327.948 1807.948)">
</image>
<text transform="matrix(1 0 0 1 607.3248 1783.9998)"><tspan x="0" y="0" class="st33 st19 st7">Facebook | Instagram: SHPEatMSU</tspan><tspan x="0" y="21.6" class="st33 st19 st7">Email: SHPEatMSU@gmail.com</tspan><tspan x="0" y="43.2" class="st33 st19 st7">Phone: 313-318-7675</tspan></text>
</svg>
