<?xml version="1.0" encoding="utf-8"?>
<!-- Generator: Adobe Illustrator 16.0.0, SVG Export Plug-In . SVG Version: 6.00 Build 0)  -->
<!DOCTYPE svg PUBLIC "-//W3C//DTD SVG 1.1//EN" "http://www.w3.org/Graphics/SVG/1.1/DTD/svg11.dtd">
<svg version="1.1" id="Layer_1" xmlns="http://www.w3.org/2000/svg" xmlns:xlink="http://www.w3.org/1999/xlink" x="0px" y="0px"
	 width="177.146px" height="177.065px" viewBox="0 0 177.146 177.065" enable-background="new 0 0 177.146 177.065"
	 xml:space="preserve">
<g>
	<rect x="88.573" y="28.006" fill-rule="evenodd" clip-rule="evenodd" fill="#FFFFFF" width="67.366" height="148.306"/>
	<path fill-rule="evenodd" clip-rule="evenodd" fill="#3B579D" d="M133.419,177.04c0-23.884,0-47.559,0-71.479
		c6.477-0.274,12.949-0.548,19.732-0.835c0.898-7.782,1.796-15.56,2.735-23.693c-7.678,0-14.998,0-22.466,0
		c0-5.746-0.162-11.18,0.063-16.598c0.128-3.118,3.404-5.536,6.878-5.555c5.006-0.028,10.012-0.007,15.193-0.007
		c0-8.208,0-16.312,0-24.51c-0.286-0.061-0.551-0.168-0.815-0.167c-8.446,0.054-16.915-0.216-25.33,0.325
		c-4.176,0.269-8.525,1.459-12.323,3.24c-8.609,4.036-12.411,11.578-12.863,20.769c-0.327,6.644-0.106,13.314-0.129,19.973
		c-0.003,0.779,0,1.558,0,2.608c-4.748,0-9.362,0-14.111,0c0,8.108,0,15.947,0,24.181c4.621,0,9.235,0,13.978,0
		c0,24.063,0,47.732,0,71.749c-0.754,0-1.576,0-2.397,0c-23.988,0-47.976,0-71.963,0c-13.91,0-26.857-11.025-29.076-24.801
		c-0.26-1.616-0.4-3.27-0.401-4.906c-0.022-39.67,0.174-79.341-0.123-119.008C-0.101,14.835,9.048,3.973,21.785,0.928
		c2.412-0.577,4.949-0.884,7.428-0.888C69.598-0.013,109.984,0,150.37,0.004c15.321,0.001,26.773,11.441,26.773,26.735
		c0.001,40.529,0.008,81.058-0.003,121.587c-0.004,13.094-8.954,24.992-21.201,27.986c-2.464,0.602-5.096,0.644-7.655,0.697
		C143.365,177.113,138.442,177.04,133.419,177.04z"/>
</g>
</svg>
