<?xml version="1.0" encoding="utf-8"?>
<!-- Generator: Adobe Illustrator 16.0.0, SVG Export Plug-In . SVG Version: 6.00 Build 0)  -->
<!DOCTYPE svg PUBLIC "-//W3C//DTD SVG 1.1//EN" "http://www.w3.org/Graphics/SVG/1.1/DTD/svg11.dtd">
<svg version="1.1" id="Layer_1" xmlns="http://www.w3.org/2000/svg" xmlns:xlink="http://www.w3.org/1999/xlink" x="0px" y="0px"
	 width="960px" height="1912px" viewBox="0 0 960 1912" enable-background="new 0 0 960 1912" xml:space="preserve">
<image overflow="visible" enable-background="new    " width="640" height="427" xlink:href="5C4AB020.jpeg"  transform="matrix(1.5 0 0 1.296 0 0.999)">
</image>
<rect y="1824" fill="#909AB7" width="960" height="431"/>
<g>
	
		<image overflow="visible" opacity="0.1" enable-background="new    " width="990" height="458" xlink:href="5C4AB020.png"  transform="matrix(1 0 0 1.8439 -10 1025)">
	</image>
	<g>
		<rect y="1043.439" fill="#FFFFFF" width="960" height="789.184"/>
	</g>
</g>
<g>
	
		<image overflow="visible" opacity="0.1" enable-background="new    " width="990" height="170" xlink:href="5C4AB027.png"  transform="matrix(1 0 0 1 -10 893)">
	</image>
	<g>
		<rect y="903" fill="#FFFFFF" width="960" height="140"/>
	</g>
</g>
<rect y="130" opacity="0.6" fill="#006A3F" enable-background="new    " width="960" height="315"/>
<g>
	
		<image overflow="visible" opacity="0.1" enable-background="new    " width="990" height="170" xlink:href="5C4AB021.png"  transform="matrix(1 0 0 1 -10 -9)">
	</image>
	<g>
		<rect y="1" fill="#FFFFFF" width="960" height="140"/>
	</g>
</g>
<g>
	<path fill="#CCCCCC" d="M108.855,64.836l2.248-1.675c0,0,2.742,3.428,4.533,4.99c0,0-2.248,1.752-2.934,2.324
		C112.703,70.475,110.875,67.161,108.855,64.836z"/>
	<path fill="#CCCCCC" d="M84.464,64.836l-2.248-1.675c0,0-2.743,3.428-4.533,4.99c0,0,2.248,1.752,2.934,2.324
		C80.617,70.475,82.445,67.161,84.464,64.836z"/>
	<path fill="#CCCCCC" d="M84.464,46.315l-2.248,1.676c0,0-2.743-3.428-4.533-4.991c0,0,2.248-1.752,2.934-2.323
		C80.617,40.677,82.445,43.991,84.464,46.315z"/>
	<path fill="#CCCCCC" d="M108.679,46.315l2.248,1.676c0,0,2.743-3.428,4.534-4.991c0,0-2.248-1.752-2.934-2.323
		C112.527,40.677,110.699,43.991,108.679,46.315z"/>
	<path fill="#CCCCCC" d="M135,66.681c0,0-23.839-1.681-27.167,17.319h-0.302c0,0,1.469-18.449,27.469-17.646V66.681z"/>
	<path fill="#CCCCCC" d="M59,44.471C59,44.471,82.144,47,85.452,27h0.3C85.751,27,86,45.62,59,44.803V44.471z"/>
	<path fill="#CCCCCC" d="M59,67.098C59,67.098,81.69,65,84.958,84h0.296C85.254,84,84,65.995,59,66.779V67.098z"/>
	<path fill="#CCCCCC" d="M135,44.302c0,0-23.745,2.698-27.052-17.302h-0.3c0,0,1.352,18.438,27.352,17.63V44.302z"/>
	<rect x="97" y="18" fill="#CCCCCC" width="0" height="76.252"/>
	<polygon fill="#CCCCCC" points="111.457,56 144.461,56 144.461,56 	"/>
	<polygon fill="#CCCCCC" points="50,56 81.866,56 81.866,56 	"/>
	<ellipse fill="#CCCCCC" cx="89.159" cy="55.523" rx="7.851" ry="7.863"/>
	<ellipse fill="#CCCCCC" cx="104.246" cy="55.347" rx="7.851" ry="7.864"/>
	<path fill="#006A3F" d="M96.378,26.654c0,7.47,0,14.869,0,22.29c-0.345,0.062-0.658-0.03-0.967-0.105
		c-1.083-0.264-1.994-0.844-2.812-1.579c-1.311-1.178-2.279-2.616-3.097-4.161c-1.467-2.769-2.384-5.73-3.037-8.782
		c-0.456-2.126-0.753-4.275-0.916-6.442c-0.021-0.282-0.038-0.565-0.042-0.847c-0.005-0.296,0.078-0.383,0.371-0.39
		c0.285-0.008,0.571,0.003,0.856,0.003c3.056,0.005,6.112,0.009,9.168,0.013C96.05,26.655,96.196,26.654,96.378,26.654z"/>
	<path fill="#006A3F" d="M96.341,62.323c0,7.331,0,14.634,0,21.942c-3.731,0-7.432,0-11.122,0c-0.017-0.07-0.033-0.1-0.025-0.12
		c0.026-0.075,0.061-0.147,0.092-0.219c0.081,0.007,0.157,0.013,0.235,0.02c0.024-0.05,0.053-0.084,0.056-0.121
		c0.079-0.905,0.134-1.813,0.236-2.716c0.475-4.217,1.366-8.328,3.184-12.195c0.715-1.518,1.581-2.943,2.724-4.184
		c0.81-0.878,1.727-1.612,2.847-2.063C95.181,62.419,95.853,62.285,96.341,62.323z"/>
	<path fill="#006A3F" d="M58.673,66.798c0-3.615,0-7.183,0-10.781c7.432,0,14.843,0,22.274,0c0.048,0.361-0.034,0.689-0.111,1.015
		c-0.254,1.073-0.827,1.971-1.562,2.773c-1.184,1.29-2.624,2.229-4.168,3.021c-2.344,1.203-4.829,2.012-7.384,2.623
		c-2.101,0.503-4.227,0.858-6.376,1.079C60.47,66.616,59.593,66.704,58.673,66.798z"/>
	<path fill="#006A3F" d="M134.696,44.5c0,3.595,0,7.149,0,10.756c-0.155,0.011-0.31,0.033-0.466,0.033
		c-2.337,0.002-4.673,0.002-7.011,0.002c-4.728,0-9.456,0-14.184-0.001c-0.159,0-0.317,0-0.492,0
		c-0.029-0.52,0.08-0.963,0.227-1.399c0.327-0.971,0.892-1.794,1.59-2.533c1.238-1.312,2.729-2.273,4.324-3.085
		c2.333-1.189,4.799-2.026,7.347-2.604c1.545-0.351,3.113-0.606,4.673-0.893c0.224-0.041,0.461-0.007,0.691-0.024
		c0.934-0.07,1.867-0.147,2.8-0.22C134.354,44.518,134.512,44.511,134.696,44.5z"/>
	<path fill="#006A3F" d="M97.074,26.687c3.494,0,6.965,0,10.438,0c0.104,0.387,0.206,0.767,0.325,1.214
		c-0.139-0.075-0.206-0.111-0.302-0.163c-0.019,0.096-0.042,0.18-0.049,0.265c-0.335,4.062-1.055,8.044-2.456,11.885
		c-0.767,2.101-1.722,4.107-3.094,5.892c-0.718,0.932-1.536,1.76-2.548,2.376c-0.704,0.429-1.455,0.725-2.283,0.788
		C97.018,48.64,96.989,27.301,97.074,26.687z"/>
	<path fill="#006A3F" d="M112.561,56.016c7.381,0,14.736,0,22.09,0c0.094,0.342,0.094,10.433,0.002,10.764
		c-0.096-0.123-0.168-0.295-0.295-0.358c-0.148-0.074-0.342-0.06-0.517-0.073c-4.584-0.335-9.065-1.149-13.347-2.88
		c-1.577-0.638-3.083-1.415-4.459-2.426c-1.126-0.828-2.123-1.779-2.818-3.01c-0.296-0.524-0.502-1.083-0.62-1.673
		C112.576,56.257,112.575,56.151,112.561,56.016z"/>
	<path fill="#006A3F" d="M80.914,55.275c-7.445,0-14.819,0-22.188,0c-0.101-0.339-0.144-9.244-0.054-10.681
		c0.16-0.049,0.334-0.103,0.513-0.157c0.073,0.088,0.138,0.165,0.208,0.249c-0.145,0.06-0.275,0.114-0.479,0.2
		c0.142,0.053,0.208,0.093,0.275,0.1c1.228,0.118,2.461,0.195,3.683,0.353c4.057,0.523,8.004,1.457,11.707,3.252
		c1.635,0.794,3.161,1.751,4.434,3.069c0.861,0.892,1.538,1.898,1.824,3.128C80.87,54.93,80.883,55.076,80.914,55.275z"/>
	<path fill="#006A3F" d="M107.448,83.949c-0.199,0.021-0.354,0.037-0.509,0.052c0.001,0.016,0.003,0.031,0.004,0.046
		c0.305-0.017,0.608-0.034,0.938-0.053c-0.061,0.297-0.202,0.377-0.442,0.376c-2.418-0.018-4.836-0.026-7.254-0.039
		c-0.855-0.004-1.712-0.013-2.568-0.019c-0.161-0.002-0.322,0-0.533,0c-0.013-0.244-0.034-0.455-0.034-0.666
		c-0.002-2.174-0.001-4.348-0.001-6.522c0-4.755,0-9.51,0-14.266c0-0.173,0-0.348,0-0.543c0.829,0.077,1.542,0.355,2.212,0.751
		c1.057,0.625,1.903,1.482,2.647,2.447c1.128,1.463,1.964,3.089,2.661,4.793c1.016,2.485,1.692,5.066,2.172,7.703
		c0.296,1.629,0.504,3.271,0.644,4.92C107.413,83.263,107.427,83.598,107.448,83.949z"/>
	<path fill="#006A3F" d="M102.837,50.778c-0.117,0.078-0.229,0.212-0.353,0.222c-0.313,0.025-0.459,0.224-0.613,0.452
		c-0.118,0.176-0.26,0.342-0.418,0.483c-0.402,0.361-0.653,0.789-0.686,1.337c-0.007,0.12-0.031,0.245-0.077,0.356
		c-0.241,0.595-0.045,1.124,0.259,1.622c0.272,0.443,0.805,0.531,1.233,0.237c0.09-0.062,0.167-0.143,0.262-0.191
		c0.207-0.103,0.357-0.074,0.487,0.117c0.086,0.125,0.176,0.191,0.329,0.193c0.17,0.003,0.226,0.124,0.235,0.275
		c0.003,0.041,0.009,0.083,0.004,0.122c-0.068,0.493,0.077,0.905,0.333,1.339c0.197,0.333,0.259,0.77,0.103,1.201
		c-0.127,0.354-0.063,0.729,0.115,1.067c0.18,0.341,0.287,0.697,0.331,1.081c0.016,0.141,0.1,0.277,0.168,0.408
		c0.088,0.166,0.19,0.324,0.313,0.53c0.245-0.029,0.529-0.045,0.804-0.102c0.273-0.057,0.43-0.273,0.548-0.51
		c0.079-0.157,0.125-0.332,0.216-0.48c0.086-0.14,0.254-0.239,0.311-0.384c0.06-0.157-0.022-0.376,0.053-0.516
		c0.105-0.196,0.278-0.372,0.46-0.504c0.268-0.198,0.334-0.425,0.277-0.743c-0.063-0.345-0.124-0.702-0.098-1.047
		c0.036-0.471,0.266-0.888,0.642-1.181c0.522-0.407,0.669-0.955,0.711-1.573c-0.193-0.093-0.358-0.082-0.528-0.008
		c-0.134,0.058-0.299,0.072-0.363-0.071c-0.135-0.304-0.413-0.5-0.567-0.775c-0.217-0.387-0.376-0.804-0.561-1.208
		c-0.061-0.133-0.128-0.264-0.181-0.4c-0.026-0.069-0.03-0.147-0.059-0.296c0.307,0.215,0.496,0.42,0.583,0.714
		c0.034,0.114,0.053,0.248,0.125,0.336c0.315,0.388,0.506,0.833,0.632,1.31c0.01,0.038,0.035,0.071,0.068,0.137
		c0.1-0.032,0.214-0.041,0.293-0.098c0.274-0.2,0.55-0.401,0.801-0.629c0.369-0.333,0.38-0.558,0.102-1.138
		c0.16,0.014,0.313,0.026,0.506,0.044c-0.09-0.24-0.325-0.194-0.429-0.314c-0.098-0.114-0.16-0.26-0.201-0.422
		c0.379,0.281,0.896,0.356,1.113,0.833c0.598,0.448,0.707,1.128,0.853,1.792c0.049,0.22,0.119,0.437,0.2,0.731
		c0.204-0.366,0.125-0.679,0.14-0.976c0.015-0.304,0.013-0.607,0.019-0.912c0.03-0.006,0.061-0.011,0.091-0.016
		c0.042,0.103,0.099,0.204,0.123,0.312c0.57,2.561,0.025,4.853-1.709,6.83c-1.232,1.404-2.805,2.22-4.656,2.443
		c-1.999,0.24-3.828-0.236-5.454-1.443c-0.011-0.008-0.022-0.015-0.032-0.024c-0.187-0.202-0.379-0.386-0.614-0.542
		c-0.242-0.161-0.429-0.412-0.62-0.641s-0.368-0.471-0.53-0.721c-0.163-0.25-0.314-0.509-0.445-0.777
		c-0.132-0.268-0.245-0.545-0.343-0.827c-0.057-0.162-0.092-0.341-0.092-0.512c-0.008-1.304-0.008-2.608,0-3.912
		c0-0.173,0.03-0.353,0.083-0.518c0.929-2.848,3.721-4.948,6.71-5.053c0.054-0.002,0.107,0.004,0.215,0.009
		c-0.48,0.329-1.058,0.336-1.498,0.698c0.229,0.088,0.405,0.03,0.576-0.059c0.205-0.105,0.405-0.223,0.612-0.325
		c0.376-0.183,0.757-0.222,1.212-0.122c-0.183,0.088-0.351,0.142-0.485,0.241c-0.126,0.093-0.415,0.101-0.272,0.389
		c-0.159,0.156-0.318,0.312-0.472,0.462c-0.418-0.325-0.659-0.287-1.06,0.152c0.11,0.008,0.196,0.013,0.304,0.021
		c0.018,0.084,0.038,0.175,0.058,0.266c0.041,0.178-0.021,0.3-0.206,0.329c-0.308,0.047-0.447,0.292-0.597,0.512
		c-0.143,0.21-0.051,0.367,0.204,0.383c0.135,0.008,0.271-0.004,0.406-0.008L102.837,50.778z M98.381,55.597
		c-0.326,0.592-0.054,3.491,0.787,4.744c0-0.408,0.065-0.78-0.015-1.119c-0.117-0.496-0.126-0.992-0.152-1.492
		c-0.013-0.242-0.075-0.458-0.234-0.672c-0.258-0.346-0.458-0.737-0.388-1.203C98.391,55.781,98.381,55.704,98.381,55.597z
		 M107.756,60.324c0.249,0.08,0.352-0.025,0.408-0.202c0.133-0.427,0.189-0.879,0.467-1.257c0.055-0.074,0.008-0.223,0.008-0.37
		c-0.193,0.15-0.334,0.292-0.503,0.384c-0.182,0.098-0.239,0.232-0.246,0.424c-0.005,0.146-0.004,0.307-0.069,0.426
		C107.71,59.925,107.737,60.111,107.756,60.324z"/>
	<path fill="#006A3F" d="M87.249,62.772c0.569,0.001,1.139,0.011,1.708,0.001c0.306-0.005,0.582-0.079,0.774-0.366
		c0.076-0.113,0.233-0.178,0.364-0.247c0.378-0.201,0.818-0.3,1.079-0.688c0.025-0.037,0.094-0.054,0.146-0.061
		c0.682-0.107,1.052-0.612,1.435-1.107c0.113-0.146,0.234-0.292,0.374-0.41c0.189-0.16,0.245-0.294,0.181-0.572
		c-0.05-0.22-0.178-0.364-0.404-0.403c-0.079-0.014-0.162-0.015-0.243-0.008c-0.454,0.039-0.815-0.193-1.156-0.434
		c-0.121-0.086-0.152-0.298-0.227-0.456c-0.258-0.012-0.529-0.01-0.794-0.043c-0.108-0.013-0.261-0.078-0.302-0.163
		c-0.207-0.433-0.602-0.478-0.994-0.502c-0.248-0.015-0.468-0.015-0.675-0.2c-0.094-0.083-0.317-0.084-0.455-0.039
		c-0.226,0.074-0.43,0.216-0.632,0.322c-0.191-0.007-0.386-0.035-0.577-0.017c-0.282,0.026-0.375-0.019-0.435-0.289
		c-0.017-0.078-0.018-0.161-0.021-0.242c-0.021-0.525-0.021-0.525-0.51-0.701c0.083-0.208,0.165-0.416,0.26-0.657
		c-0.251-0.005-0.489-0.163-0.664,0.179c-0.102,0.199-0.526,0.098-0.638-0.157c-0.073-0.167-0.113-0.372-0.091-0.551
		c0.024-0.209,0.115-0.417,0.205-0.612c0.103-0.227,0.321-0.218,0.529-0.21c0.194,0.007,0.365,0.071,0.581-0.05
		c0.245-0.138,0.769,0.244,0.84,0.547c0.022,0.096,0.039,0.193,0.067,0.333c0.206-0.159,0.159-0.332,0.15-0.479
		c-0.019-0.334,0.117-0.557,0.439-0.64c0.229-0.059,0.368-0.207,0.39-0.418c0.048-0.455,0.331-0.618,0.749-0.649
		c0.09-0.255,0.223-0.419,0.538-0.365c0.122,0.021,0.268-0.095,0.387-0.141c-0.146-0.123-0.275-0.231-0.454-0.382
		c-0.01,0-0.099,0-0.24,0c0.334-0.314,0.69-0.172,1.006-0.193c0.084,0.124,0.134,0.267,0.233,0.325
		c0.103,0.058,0.253,0.032,0.459,0.049c-0.098-0.137-0.133-0.234-0.201-0.275c-0.163-0.096-0.284-0.206-0.283-0.41
		c0-0.038-0.017-0.09-0.044-0.11c-0.426-0.313-0.813-0.694-1.379-0.746c-0.149-0.013-0.248,0.043-0.241,0.198
		c0.008,0.21-0.115,0.309-0.269,0.417c-0.109,0.078-0.18,0.212-0.305,0.365c-0.07-0.089-0.156-0.167-0.205-0.265
		c-0.108-0.217-0.255-0.366-0.492-0.452c-0.302-0.111-0.334-0.351-0.079-0.552c0.122-0.096,0.29-0.137,0.439-0.196
		c0.149-0.058,0.324-0.081,0.346-0.289c-0.358-0.225-0.56-0.22-0.986,0.032c-0.057-0.039-0.15-0.07-0.182-0.131
		c-0.125-0.252-0.263-0.486-0.474-0.684c-0.117-0.111-0.058-0.308,0.099-0.371c0.321-0.127,0.654-0.227,1-0.345
		c0.026,0.224-0.088,0.269-0.207,0.298c-0.065,0.016-0.135,0.01-0.203,0.011c-0.14,0.001-0.284,0.005-0.319,0.181
		c-0.027,0.139,0.112,0.283,0.315,0.308c0.147,0.019,0.298,0.009,0.447,0.003c0.319-0.014,0.554,0.104,0.682,0.408
		c0.021,0.05,0.048,0.098,0.074,0.145c0.202,0.362,0.26,0.386,0.681,0.282c0.038-0.01,0.079-0.001,0.127-0.001
		c0.081,0.105,0.15,0.225,0.246,0.315c0.16,0.15,0.332,0.101,0.413-0.105c0.039-0.099,0.065-0.203,0.109-0.299
		c0.013-0.029,0.066-0.04,0.115-0.067c0.402,0.205,0.583,0.728,1.123,0.798c-0.016-0.295,0.036-0.558,0.243-0.777
		c0.054-0.056,0.075-0.197,0.043-0.269c-0.105-0.237-0.019-0.556-0.3-0.719c-0.014-0.008-0.009-0.051-0.017-0.096
		c0.032-0.027,0.07-0.087,0.111-0.091c0.34-0.025,0.682-0.133,1.017,0.023c0.124,0.058,0.249,0.11,0.372,0.167
		c0.557,0.261,1.092,0.547,1.382,1.186c-0.015,0.044-0.05,0.142-0.09,0.254c-0.154-0.007-0.298-0.015-0.488-0.025
		c0.082,0.221,0.149,0.402,0.23,0.618c0.087-0.054,0.139-0.087,0.214-0.133c0.09,0.063,0.194,0.134,0.299,0.206
		c0.017-0.013,0.035-0.025,0.052-0.038c-0.072-0.135-0.145-0.27-0.247-0.463c0.106,0.046,0.191,0.056,0.214,0.099
		c0.083,0.155,0.146,0.32,0.214,0.483c0.047,0.112,0.077,0.227,0.232,0.249c0.246,0.035,0.25,0.234,0.217,0.408
		c-0.086,0.466,0.118,0.785,0.465,1.059c0.08,0.064,0.123,0.193,0.148,0.302c0.039,0.166,0.051,0.339,0.07,0.509
		c0.008,0.08,0.03,0.167,0.006,0.239c-0.196,0.573-0.193,1.134,0.051,1.695c0.047,0.108,0.045,0.238,0.066,0.357
		c0.039,0.213,0.062,0.431,0.122,0.638c0.126,0.434,0.291,0.497,0.751,0.288c0.016,0.614,0.052,1.199-0.198,1.788
		c-1.177,2.77-3.899,4.6-6.92,4.585c-0.54-0.003-1.08-0.093-1.617-0.16c-0.125-0.015-0.24-0.103-0.36-0.157L87.249,62.772z
		 M92.492,49.196c0.277,0.4,0.37,0.474,0.74,0.571C93.065,49.438,92.866,49.223,92.492,49.196z"/>
	<path fill="#006A3F" d="M87.26,62.763c-0.185-0.03-0.381-0.03-0.552-0.096c-2.797-1.081-4.515-3.095-4.933-6.062
		c-0.395-2.793,0.588-5.125,2.765-6.935c0.101-0.083,0.215-0.151,0.338-0.236c0.128,0.19,0.044,0.345-0.023,0.479
		c-0.078,0.156-0.209,0.285-0.295,0.438c-0.243,0.433-0.538,0.827-0.839,1.219c-0.384,0.5-0.42,1.104-0.436,1.704
		c-0.005,0.204-0.001,0.407,0.04,0.622c0.023-0.104,0.046-0.208,0.07-0.314c0.042,0.015,0.079,0.018,0.082,0.031
		c0.09,0.326,0.178,0.653,0.266,0.98c0.014,0.052,0.045,0.106,0.041,0.158c-0.047,0.621,0.425,0.937,0.826,1.208
		c0.293,0.199,0.68,0.268,0.901,0.593c0.395,0.027,0.485,0.33,0.58,0.632c0.08,0.258,0.385,0.423,0.716,0.397
		c0.346-0.027,0.43,0.04,0.361,0.366c-0.041,0.191-0.144,0.377-0.256,0.542c-0.11,0.163-0.299,0.269-0.224,0.523
		c0.023,0.079-0.072,0.192-0.094,0.245c0.269,0.413,0.54,0.785,0.761,1.185c0.177,0.317,0.471,0.331,0.755,0.385
		c0.184,0.735-0.117,1.409-0.862,1.946L87.26,62.763z"/>
	<path fill="#006A3F" d="M102.846,50.787c0.012-0.208,0.123-0.349,0.291-0.46c0.124-0.083,0.236-0.18,0.359-0.265
		c0.211-0.148,0.558-0.167,0.728-0.037c0.113,0.086,0.217,0.206,0.124,0.344c-0.088,0.131-0.229,0.116-0.351,0.011
		c-0.028-0.024-0.058-0.044-0.103-0.078c-0.121,0.171-0.032,0.292,0.068,0.397c0.138,0.146,0.315,0.158,0.488,0.081
		c0.245-0.111,0.363-0.307,0.352-0.592c-0.206-0.09-0.512-0.068-0.495-0.417c0.455,0.018,0.515,0.067,0.557,0.439
		c0.025,0.232,0.112,0.354,0.365,0.499c0.076-0.117,0.152-0.236,0.246-0.38c0.039,0.073,0.067,0.115,0.085,0.162
		c0.09,0.234,0.254,0.337,0.507,0.308c0.107-0.013,0.225-0.031,0.323,0c0.101,0.034,0.23,0.107,0.264,0.195
		c0.051,0.139,0.021,0.316-0.156,0.367c-0.177,0.053-0.367,0.082-0.552,0.084c-0.16,0.001-0.322-0.043-0.48-0.08
		c-0.219-0.049-0.438-0.165-0.59,0.135c-0.024,0.047-0.231,0.042-0.331,0.001c-0.178-0.071-0.339-0.188-0.558-0.315
		c0.003,0.01-0.017-0.039-0.032-0.089c-0.092-0.285-0.125-0.316-0.425-0.324c-0.23-0.006-0.461,0.004-0.691,0.006L102.846,50.787z"
		/>
	<path fill="#006A3F" d="M95.125,51.269c0.445,0.202,0.68,0.568,0.829,1.005c-0.26,0.162-0.223-0.138-0.355-0.223
		c-0.051,0.138-0.096,0.262-0.158,0.431c-0.169-0.237-0.333-0.445-0.469-0.669c-0.04-0.066-0.021-0.185,0.004-0.27
		C95.008,51.443,95.076,51.354,95.125,51.269z"/>
</g>
<text transform="matrix(1 0 0 1 157.1699 45.7432)" fill="#999999" font-family="'Tahoma'" font-size="18">SHPE | MSU</text>
<text transform="matrix(1 0 0 1 157.1699 70.4219)" fill="#999999" font-family="'Tahoma'" font-size="18">Society of Hispanic Professional Engineers</text>
<text transform="matrix(1 0 0 1 330.2334 130.0234)" fill="#006A3F" font-family="'Tahoma'" font-size="16">ABOUT US</text>
<text transform="matrix(1 0 0 1 458.2334 130.0234)" fill="#999999" font-family="'Tahoma'" font-size="16">EVENTS</text>
<text transform="matrix(1.0726 0 0 1 552.791 130.0234)" fill="#999999" font-family="'Tahoma'" font-size="16">MEMBERSHIP</text>
<text transform="matrix(1.0192 0 0 1 693.0156 130.0234)" fill="#999999" font-family="'Tahoma'" font-size="16">SPONSORSHIP</text>
<text transform="matrix(1 0 0 1 838.0576 130.0234)" fill="#999999" font-family="'Tahoma'" font-size="16">CONTACT</text>
<g opacity="0.6">
	
		<image overflow="visible" opacity="0.1" enable-background="new    " width="537" height="295" xlink:href="5C4AB023.png"  transform="matrix(1 0 0 1 393 1482)">
	</image>
	<g>
		<rect x="403" y="1492" fill="#006A3F" width="507" height="265"/>
	</g>
</g>
<text transform="matrix(1 0 0 1 539.291 1629.5)" fill="#FFFFFF" font-family="'Tahoma'" font-size="26">PICTURE OF FLYER</text>
<text transform="matrix(1 0 0 1 50 205)" fill="#FFFFFF" font-family="'PalatinoLinotype-Italic'" font-size="26">Mission</text>
<text transform="matrix(1 0 0 1 50 237)" fill="#FFFFFF" font-family="'Tahoma'" font-size="16">SHPE changes lives by empowering the Hispanic community to realize its fullest potential and to impact the world </text>
<text transform="matrix(1 0 0 1 50 256.2002)" fill="#FFFFFF" font-family="'Tahoma'" font-size="16">through STEM awareness, access, support and development.</text>
<text transform="matrix(1 0 0 1 50 318)" fill="#FFFFFF" font-family="'PalatinoLinotype-Italic'" font-size="26">Vision</text>
<text transform="matrix(1 0 0 1 50 350)" fill="#FFFFFF" font-family="'Tahoma'" font-size="16">SHPE&apos;s vision is a world where Hispanics are highly valued and influential as the leading innovators, scientists, </text>
<text transform="matrix(1 0 0 1 50 369.2002)" fill="#FFFFFF" font-family="'Tahoma'" font-size="16">mathematicians and engineers.</text>
<g>
	
		<image overflow="visible" opacity="0.1" enable-background="new    " width="990" height="633" xlink:href="5C4AB02E.png"  transform="matrix(1 0 0 1 -20 420)">
	</image>
	<g>
		<rect y="440" fill="#909AB7" width="960" height="603"/>
	</g>
</g>
<text transform="matrix(1 0 0 1 50 509)" fill="#FFFFFF" font-family="'PalatinoLinotype-Italic'" font-size="26">Highlights</text>
<g>
	
		<image overflow="visible" opacity="0.1" enable-background="new    " width="311" height="230" xlink:href="5C4AB02F.png"  transform="matrix(1 0 0 1 40 529)">
	</image>
	<g>
		<rect x="50" y="539" fill="#FFFFFF" width="281" height="200"/>
	</g>
</g>
<rect x="50" y="685" opacity="0.6" fill="#006A3F" enable-background="new    " width="281" height="55"/>
<text transform="matrix(1 0 0 1 80.9136 723.0234)" fill="#FFFFFF" font-family="'Tahoma'" font-size="24">ANNOUNCEMENT 1</text>
<g>
	
		<image overflow="visible" opacity="0.1" enable-background="new    " width="586" height="230" xlink:href="5C4AB022.png"  transform="matrix(1 0 0 1 344 529)">
	</image>
	<g>
		<rect x="355" y="539" fill="#FFFFFF" width="555" height="200"/>
	</g>
</g>
<rect x="355" y="685" opacity="0.6" fill="#006A3F" enable-background="new    " width="555" height="55"/>
<text transform="matrix(1 0 0 1 383.9146 723.0234)" fill="#FFFFFF" font-family="'Tahoma'" font-size="24">ANNOUNCEMENT 2</text>
<g>
	
		<image overflow="visible" opacity="0.1" enable-background="new    " width="311" height="230" xlink:href="5C4AB025.png"  transform="matrix(1 0 0 1 617 755)">
	</image>
	<g>
		<rect x="627" y="765" fill="#FFFFFF" width="281" height="200"/>
	</g>
</g>
<rect x="627" y="911" opacity="0.6" fill="#006A3F" enable-background="new    " width="281" height="55"/>
<text transform="matrix(1 0 0 1 653.6836 949.0234)" fill="#FFFFFF" font-family="'Tahoma'" font-size="24">ANNOUNCEMENT 4</text>
<g>
	
		<image overflow="visible" opacity="0.1" enable-background="new    " width="586" height="230" xlink:href="56CB74FF.png"  transform="matrix(1 0 0 1 41 755)">
	</image>
	<g>
		<rect x="52" y="765" fill="#FFFFFF" width="555" height="200"/>
	</g>
</g>
<rect x="52" y="911" opacity="0.6" fill="#006A3F" enable-background="new    " width="555" height="55"/>
<text transform="matrix(1 0 0 1 80.9136 949.0234)" fill="#FFFFFF" font-family="'Tahoma'" font-size="24">ANNOUNCEMENT 3</text>
<g>
	
		<image overflow="visible" opacity="0.1" enable-background="new    " width="92" height="89" xlink:href="56CB74FD.png"  transform="matrix(1 0 0 1 42 1482)">
	</image>
	<g>
		<rect x="52" y="1492" fill="#909AB7" width="61" height="58"/>
	</g>
</g>
<g opacity="0.6">
	
		<image overflow="visible" opacity="0.1" enable-background="new    " width="92" height="54" xlink:href="56CB74FB.png"  transform="matrix(1 0 0 1 42 1517)">
	</image>
	<g>
		<rect x="52" y="1527" fill="#006A3F" width="61" height="23"/>
	</g>
</g>
<text transform="matrix(1 0 0 1 71.6929 1542.8379)" fill="#FFFFFF" font-family="'Tahoma'" font-size="13.5478">Jul</text>
<text transform="matrix(1 0 0 1 71.6929 1517.4355)" fill="#FFFFFF" font-family="'Tahoma'" font-size="20.3217">20</text>
<text transform="matrix(1 0 0 1 51 1463)" fill="#999999" font-family="'PalatinoLinotype-Italic'" font-size="26">Upcoming Events</text>
<g>
	
		<image overflow="visible" opacity="0.1" enable-background="new    " width="92" height="89" xlink:href="56CB74F5.png"  transform="matrix(1 0 0 1 42 1585)">
	</image>
	<g>
		<rect x="52" y="1595" fill="#909AB7" width="61" height="58"/>
	</g>
</g>
<g opacity="0.6">
	
		<image overflow="visible" opacity="0.1" enable-background="new    " width="92" height="54" xlink:href="56CB74F7.png"  transform="matrix(1 0 0 1 42 1620)">
	</image>
	<g>
		<rect x="52" y="1630" fill="#006A3F" width="61" height="23"/>
	</g>
</g>
<text transform="matrix(1 0 0 1 71.6929 1645.8379)" fill="#FFFFFF" font-family="'Tahoma'" font-size="13.5478">Aug</text>
<text transform="matrix(1 0 0 1 71.6929 1620.4355)" fill="#FFFFFF" font-family="'Tahoma'" font-size="20.3217">13</text>
<text transform="matrix(1 0 0 1 135 1512)" fill="#999999" font-family="'Tahoma'" font-size="16">SHPE E-Board Summer Second </text>
<text transform="matrix(1 0 0 1 135 1531.2002)" fill="#999999" font-family="'Tahoma'" font-size="16">Conference Meeting</text>
<text transform="matrix(1 0 0 1 135 1620.4355)" fill="#999999" font-family="'Tahoma'" font-size="16">SHPE Pool Party - Host by </text>
<text transform="matrix(1 0 0 1 135 1639.6357)" fill="#999999" font-family="'Tahoma'" font-size="16">SHPE MSU</text>
<text transform="matrix(1 0 0 1 402 1463)" fill="#999999" font-family="'PalatinoLinotype-Italic'" font-size="26">Event of the Week</text>
<image overflow="visible" enable-background="new    " width="503" height="503" xlink:href="56CB74F5.jpg"  transform="matrix(0.2177 0 0 0.2177 329.165 1869.5)">
</image>
<image overflow="visible" enable-background="new    " width="398" height="197" xlink:href="56CB74EB.jpg"  transform="matrix(0.5559 0 0 0.5559 449.1807 1869.501)">
</image>
<text transform="matrix(1 0 0 1 50 2067)" fill="#FFFFFF" font-family="'Tahoma'" font-size="21">Join Now</text>
<text transform="matrix(1 0 0 1 50 2105)" fill="#FFFFFF" font-family="'Tahoma'" font-size="21">Scholarships</text>
<text transform="matrix(1 0 0 1 50 2147)" fill="#FFFFFF" font-family="'Tahoma'" font-size="21">Regional SHPE</text>
<text transform="matrix(1 0 0 1 329.1646 2065)" fill="#FFFFFF" font-family="'Tahoma'" font-size="21">SHPE Foundation</text>
<text transform="matrix(1 0 0 1 330.2334 2105)" fill="#FFFFFF" font-family="'Tahoma'" font-size="21">SHPE Detroit</text>
<text transform="matrix(1 0 0 1 50 2189)" fill="#FFFFFF" font-family="'Tahoma'" font-size="21">National SHPE</text>
<path fill="#4D4D4D" d="M835.188,2188.984c0-5.229,0-10.438,0-15.677c1.447,0,2.894,0,4.365,0c0.24-1.813,0.479-3.597,0.719-5.419
	c-1.689,0-3.354,0-5.063,0c0-0.612,0.002-1.192,0-1.771c-0.001-0.513-0.006-1.024-0.007-1.537c-0.001-0.956,0.439-1.475,1.395-1.584
	c0.412-0.048,0.831-0.035,1.248-0.038c0.737-0.006,1.478-0.003,2.214-0.004c0.025,0,0.053-0.01,0.107-0.021
	c0.005-0.076,0.015-0.158,0.016-0.241c0-1.658-0.004-3.316,0.004-4.976c0.002-0.212-0.051-0.28-0.271-0.279
	c-1.849,0.009-3.7-0.045-5.546,0.018c-2.203,0.074-3.997,0.961-5.139,2.93c-0.43,0.744-0.604,1.566-0.604,2.427
	c0,1.597-0.005,3.192,0.005,4.791c0.001,0.229-0.06,0.295-0.291,0.291c-0.856-0.016-1.719-0.007-2.578-0.007
	c-0.095,0-0.188,0-0.305,0c0,1.813,0,3.604,0,5.427c1.048,0,2.093,0,3.159,0c0,5.232,0,10.438,0,15.67
	c-0.092,0.005-0.186,0.014-0.275,0.014c-4.219,0.001-8.438,0.004-12.656-0.001c-2.274-0.002-3.885-1.623-3.885-3.894
	c0.002-9.314,0-18.629,0.001-27.944c0.001-1.937,1.372-3.502,3.29-3.756c0.171-0.021,0.346-0.024,0.521-0.024
	c9.321-0.001,18.646-0.001,27.97-0.001c2.179,0,3.817,1.642,3.817,3.824c0.002,3.611,0,7.225,0,10.834
	c0,5.703,0.001,11.407,0.001,17.11c0,2.183-1.597,3.831-3.771,3.847c-2.751,0.021-5.503,0.005-8.255,0.005
	C835.323,2188.995,835.271,2188.99,835.188,2188.984z"/>
<g>
	<path fill="#4D4D4D" d="M866.782,2182.95c0-5.362,0-10.729,0-16.089c3.261,0,6.521,0,9.899,0c-1.146,2.035-1.52,4.091-1.107,6.27
		c0.414,2.189,1.49,3.992,3.221,5.367c3.088,2.454,7.275,2.625,10.527,0.458c1.572-1.05,2.717-2.466,3.393-4.235
		c1.021-2.677,0.773-5.285-0.646-7.857c3.391,0,6.659,0,9.932,0c0,5.36,0,10.727,0,16.089c-0.053,0.186-0.111,0.37-0.156,0.558
		c-0.621,2.505-2.119,4.229-4.543,5.111c-0.428,0.154-0.877,0.257-1.314,0.381c-7.729,0-15.459,0-23.188,0
		c-0.156-0.051-0.31-0.115-0.469-0.157c-2.531-0.635-4.279-2.156-5.182-4.631C866.999,2183.802,866.903,2183.37,866.782,2182.95z"/>
	<path fill="#4D4D4D" d="M902,2159.63c0,1.918,0,3.838,0,5.756c-3.469,0-6.936,0.013-10.404-0.017
		c-0.342-0.003-0.766-0.171-1.012-0.408c-3.498-3.35-8.922-3.377-12.381-0.013c-0.354,0.342-0.699,0.447-1.162,0.444
		c-3.42-0.015-6.839-0.009-10.259-0.009c0-1.918,0-3.838,0-5.756c0.055-0.186,0.116-0.37,0.161-0.559
		c0.413-1.669,1.271-3.032,2.789-4.146c0,2.095,0,4.044,0,5.979c0.527,0,0.977,0,1.453,0c0-2.046,0.025-4.037-0.019-6.024
		c-0.015-0.631,0.155-0.965,0.79-1.027c0.211-0.021,0.42-0.084,0.705-0.144c0,2.441,0,4.815,0,7.205c0.512,0,0.96,0,1.455,0
		c0-2.474,0-4.904,0-7.332c0.49,0,0.979,0,1.467,0c0,2.442,0,4.886,0,7.327c0.537,0,0.984,0,1.469,0c0-2.479,0-4.902,0-7.327
		c6.311,0,12.619,0,18.932,0c0.156,0.048,0.314,0.104,0.479,0.145c2.596,0.612,4.324,2.195,5.211,4.714
		C901.811,2158.826,901.891,2159.23,902,2159.63z M896.182,2162.434c0.539,0,1.076,0,1.615,0c0.049,0,0.098,0.002,0.146-0.002
		c0.688-0.053,1.1-0.434,1.111-1.119c0.023-1.229,0.025-2.461-0.002-3.688c-0.016-0.663-0.418-1.062-1.068-1.077
		c-1.225-0.033-2.447-0.03-3.668-0.004c-0.688,0.012-1.102,0.426-1.113,1.113c-0.023,1.205-0.021,2.411-0.002,3.615
		c0.012,0.729,0.42,1.134,1.146,1.157C894.961,2162.45,895.572,2162.434,896.182,2162.434z"/>
	<path fill="#4D4D4D" d="M884.395,2178.384c-3.818,0.013-6.91-3.073-6.918-6.905c-0.004-3.842,3.068-6.961,6.867-6.973
		c3.783-0.014,6.91,3.109,6.934,6.92C891.297,2175.238,888.199,2178.373,884.395,2178.384z M884.389,2176.589
		c2.781,0.001,5.084-2.296,5.113-5.099c0.029-2.817-2.301-5.181-5.109-5.182c-2.777-0.001-5.088,2.305-5.111,5.103
		C879.254,2174.23,881.58,2176.586,884.389,2176.589z"/>
</g>
<rect y="2254" fill="#909AB7" width="960" height="24"/>
<text transform="matrix(1 0 0 1 425.6646 2271)" fill="#FFFFFF" font-family="'Tahoma'" font-size="12">Built by Claury Mejia</text>
<g id="Layer_2">
</g>
</svg>
