<?xml version="1.0" encoding="utf-8"?>
<!-- Generator: Adobe Illustrator 16.0.0, SVG Export Plug-In . SVG Version: 6.00 Build 0)  -->
<!DOCTYPE svg PUBLIC "-//W3C//DTD SVG 1.1//EN" "http://www.w3.org/Graphics/SVG/1.1/DTD/svg11.dtd">
<svg version="1.1" id="Layer_1" xmlns="http://www.w3.org/2000/svg" xmlns:xlink="http://www.w3.org/1999/xlink" x="0px" y="0px"
	 width="246.258px" height="246.157px" viewBox="0 0 246.258 246.157" enable-background="new 0 0 246.258 246.157"
	 xml:space="preserve">
<path fill-rule="evenodd" clip-rule="evenodd" fill="#050708" d="M123.097,0c17.261-0.054,34.525-0.302,51.772,0.625
	c15.006,0.807,29.401,3.801,41.985,12.547c15.447,10.735,24.013,25.84,27.121,44.178c2.308,13.617,2.183,27.396,2.234,41.14
	c0.078,21.131,0.092,42.266-0.207,63.395c-0.185,13.007-0.6,26.053-4.974,38.558c-8.285,23.687-25.104,37.604-49.321,42.932
	c-11.302,2.486-22.847,2.603-34.335,2.675c-24.368,0.152-48.739,0.165-73.105-0.103c-13.008-0.143-26.055-0.6-38.559-4.973
	c-23.69-8.285-37.603-25.107-42.928-49.328C0.297,180.344,0.18,168.8,0.108,157.313c-0.152-24.368-0.167-48.739,0.104-73.105
	C0.356,71.202,0.81,58.155,5.184,45.65C13.47,21.962,30.293,8.061,54.504,2.729c11.213-2.47,22.666-2.482,34.064-2.684
	C100.075-0.159,111.587,0,123.097,0z"/>
<path fill-rule="evenodd" clip-rule="evenodd" fill="#FEFEFE" d="M223.942,121.159c-0.012,18.69,0.379,37.394-1.01,56.056
	c-1.04,13.969-5.13,26.586-16.635,35.726c-7.041,5.593-15.255,8.283-23.997,9.372c-14.926,1.859-29.957,1.573-44.956,1.629
	c-17.17,0.063-34.343,0.021-51.51-0.292c-9.853-0.179-19.747-0.25-29.417-2.811c-18.298-4.846-28.528-16.971-32.043-35.187
	c-2.002-10.375-1.913-20.932-2.035-31.422c-0.242-20.767-0.27-41.541,0.009-62.307c0.15-11.11-0.062-22.305,2.419-33.259
	c4.59-20.263,18.569-32.63,39.269-34.933c14.68-1.633,29.421-1.517,44.149-1.568c17.349-0.062,34.702-0.006,52.049,0.286
	c9.858,0.166,19.767,0.212,29.428,2.763c18.383,4.854,28.73,17.006,32.196,35.394c1.957,10.385,1.746,20.932,2.027,31.424
	C224.147,101.733,223.942,111.449,223.942,121.159z"/>
<path fill-rule="evenodd" clip-rule="evenodd" fill="#050708" d="M123.041,186.294c-35.139-0.004-63.189-28.173-63.175-63.443
	c0.014-35.073,28.239-63.061,63.572-63.037c34.997,0.023,62.937,28.318,62.905,63.705
	C186.311,158.234,158.012,186.298,123.041,186.294z"/>
<path fill-rule="evenodd" clip-rule="evenodd" fill="#050708" d="M203.609,57.304c0.013,8.26-6.696,15.012-14.831,14.926
	c-8.209-0.086-14.943-6.894-14.853-15.015c0.091-8.138,6.672-14.65,14.824-14.667C197.18,42.53,203.596,48.901,203.609,57.304z"/>
<path fill-rule="evenodd" clip-rule="evenodd" fill="#FEFEFE" d="M123.114,164.071c-22.48,0.009-41.018-18.522-41.025-41.01
	c-0.007-22.493,18.447-40.956,41.007-41.025c22.425-0.069,41.016,18.512,41.026,41.005
	C164.132,145.528,145.608,164.063,123.114,164.071z"/>
</svg>
