<?xml version="1.0" encoding="utf-8"?>
<!-- Generator: Adobe Illustrator 16.0.0, SVG Export Plug-In . SVG Version: 6.00 Build 0)  -->
<!DOCTYPE svg PUBLIC "-//W3C//DTD SVG 1.1//EN" "http://www.w3.org/Graphics/SVG/1.1/DTD/svg11.dtd">
<svg version="1.1" id="Layer_1" xmlns="http://www.w3.org/2000/svg" xmlns:xlink="http://www.w3.org/1999/xlink" x="0px" y="0px"
	 width="538px" height="439px" viewBox="0 0 538 439" enable-background="new 0 0 538 439" xml:space="preserve">
<g>
	<path fill="#CCCCCC" d="M337.217,268.354l12.879-9.604c0,0,15.715,19.645,25.974,28.594c0,0-12.878,10.041-16.808,13.314
		C359.262,300.659,348.785,281.669,337.217,268.354z"/>
	<path fill="#CCCCCC" d="M197.466,268.354l-12.878-9.604c0,0-15.715,19.645-25.974,28.594c0,0,12.878,10.041,16.807,13.314
		C175.421,300.659,185.897,281.669,197.466,268.354z"/>
	<path fill="#CCCCCC" d="M197.466,162.232l-12.878,9.604c0,0-15.715-19.644-25.974-28.593c0,0,12.878-10.041,16.807-13.314
		C175.421,129.928,185.897,148.917,197.466,162.232z"/>
	<path fill="#CCCCCC" d="M336.208,162.232l12.878,9.604c0,0,15.716-19.644,25.975-28.593c0,0-12.879-10.041-16.808-13.314
		C358.253,129.928,347.776,148.917,336.208,162.232z"/>
	<path fill="#CCCCCC" d="M485,278.918c0,0-134.57-11.918-153.646,101.082h-1.728c0,0,5.373-107.555,155.373-102.952V278.918z"/>
	<path fill="#CCCCCC" d="M50,151.664C50,151.664,184.17,163,203.122,49h1.717c0,0-5.839,109.253-154.839,104.567V151.664z"/>
	<path fill="#CCCCCC" d="M49,281.311c0,0,132.569-11.311,151.293,98.689h1.697c0,0-5.99-105.008-152.99-100.514V281.311z"/>
	<path fill="#CCCCCC" d="M485,150.7c0,0-134.032,11.3-152.984-101.7h-1.717c0,0,5.701,108.209,154.701,103.58V150.7z"/>
	<rect x="266" fill="#CCCCCC" width="3" height="439"/>
	<rect x="355" y="214" fill="#CCCCCC" width="183" height="4"/>
	<rect y="214" fill="#CCCCCC" width="181" height="4"/>
	<ellipse fill="#CCCCCC" cx="224.365" cy="214.989" rx="44.984" ry="45.055"/>
	<ellipse fill="#CCCCCC" cx="310.808" cy="213.98" rx="44.984" ry="45.055"/>
	<path fill-rule="evenodd" clip-rule="evenodd" fill="#106A3F" d="M265.728,49.588c0,42.795,0,85.189,0,127.708
		c-1.977,0.354-3.768-0.174-5.539-0.606c-6.203-1.514-11.421-4.832-16.108-9.044c-7.511-6.751-13.058-14.99-17.746-23.837
		c-8.407-15.864-13.658-32.833-17.398-50.315c-2.606-12.181-4.313-24.493-5.242-36.914c-0.121-1.614-0.218-3.233-0.244-4.852
		c-0.027-1.699,0.449-2.196,2.129-2.238c1.633-0.042,3.268,0.019,4.902,0.021c17.51,0.027,35.02,0.052,52.53,0.077
		C263.849,49.589,264.686,49.588,265.728,49.588z"/>
	<path fill-rule="evenodd" clip-rule="evenodd" fill="#106A3F" d="M265.516,253.949c0,42.001,0,83.852,0,125.721
		c-21.379,0-42.583,0-63.727,0c-0.091-0.4-0.187-0.567-0.146-0.685c0.152-0.43,0.351-0.844,0.529-1.256
		c0.463,0.038,0.899,0.074,1.35,0.111c0.137-0.287,0.301-0.482,0.319-0.692c0.454-5.188,0.77-10.391,1.353-15.564
		c2.719-24.163,7.823-47.718,18.242-69.868c4.093-8.701,9.058-16.866,15.608-23.976c4.637-5.033,9.892-9.235,16.311-11.821
		C258.87,254.503,262.715,253.732,265.516,253.949z"/>
	<path fill-rule="evenodd" clip-rule="evenodd" fill="#106A3F" d="M49.695,279.591c0-20.712,0-41.156,0-61.773
		c42.581,0,85.039,0,127.615,0c0.277,2.07-0.19,3.95-0.632,5.813c-1.457,6.149-4.735,11.292-8.95,15.888
		c-6.779,7.394-15.035,12.771-23.88,17.309c-13.43,6.889-27.67,11.524-42.306,15.03c-12.039,2.883-24.22,4.917-36.532,6.178
		C59.987,278.55,54.963,279.056,49.695,279.591z"/>
	<path fill-rule="evenodd" clip-rule="evenodd" fill="#106A3F" d="M485.267,151.834c0,20.596,0,40.962,0,61.626
		c-0.886,0.066-1.776,0.189-2.667,0.19c-13.389,0.015-26.778,0.016-40.168,0.016c-27.09,0-54.18-0.004-81.27-0.006
		c-0.908,0-1.816,0-2.813,0c-0.17-2.977,0.454-5.521,1.295-8.018c1.873-5.563,5.11-10.279,9.109-14.515
		c7.097-7.519,15.639-13.024,24.771-17.678c13.374-6.817,27.499-11.612,42.099-14.923c8.855-2.009,17.837-3.474,26.773-5.116
		c1.285-0.236,2.645-0.043,3.961-0.142c5.35-0.402,10.696-0.842,16.045-1.261C483.31,151.937,484.219,151.896,485.267,151.834z"/>
	<path fill-rule="evenodd" clip-rule="evenodd" fill="#106A3F" d="M269.717,49.771c20.017,0,39.904,0,59.8,0
		c0.594,2.216,1.176,4.391,1.861,6.956c-0.798-0.432-1.176-0.638-1.731-0.939c-0.104,0.553-0.239,1.035-0.28,1.524
		c-1.92,23.27-6.04,46.088-14.069,68.091c-4.395,12.042-9.867,23.534-17.73,33.758c-4.11,5.346-8.797,10.087-14.6,13.618
		c-4.034,2.455-8.335,4.146-13.083,4.511C269.393,175.555,269.223,53.289,269.717,49.771z"/>
	<path fill-rule="evenodd" clip-rule="evenodd" fill="#106A3F" d="M358.445,217.812c42.292,0,84.436,0,126.564,0
		c0.536,1.963,0.534,59.78,0.013,61.674c-0.55-0.708-0.964-1.691-1.687-2.053c-0.846-0.424-1.961-0.344-2.963-0.417
		c-26.264-1.92-51.939-6.588-76.471-16.503c-9.039-3.652-17.67-8.103-25.552-13.898c-6.45-4.743-12.161-10.192-16.148-17.247
		c-1.698-3.003-2.878-6.201-3.552-9.582C358.533,219.197,358.523,218.586,358.445,217.812z"/>
	<path fill-rule="evenodd" clip-rule="evenodd" fill="#106A3F" d="M177.121,213.566c-42.655,0-84.905,0-127.124,0
		c-0.574-1.937-0.823-52.957-0.312-61.198c0.916-0.279,1.918-0.585,2.941-0.897c0.42,0.502,0.792,0.946,1.191,1.423
		c-0.827,0.345-1.57,0.655-2.745,1.145c0.816,0.304,1.188,0.536,1.578,0.573c7.036,0.676,14.101,1.118,21.107,2.022
		c23.24,3,45.857,8.341,67.074,18.638c9.365,4.545,18.111,10.035,25.401,17.582c4.937,5.11,8.812,10.875,10.452,17.921
		C176.874,211.589,176.946,212.431,177.121,213.566z"/>
	<path fill-rule="evenodd" clip-rule="evenodd" fill="#106A3F" d="M329.154,377.86c-1.143,0.119-2.03,0.211-2.917,0.303
		c0.007,0.086,0.013,0.173,0.021,0.26c1.743-0.099,3.486-0.197,5.374-0.304c-0.351,1.703-1.155,2.164-2.533,2.154
		c-13.854-0.099-27.709-0.148-41.563-0.22c-4.903-0.025-9.806-0.075-14.709-0.112c-0.925-0.007-1.851-0.001-3.056-0.001
		c-0.073-1.394-0.191-2.604-0.192-3.813c-0.013-12.455-0.008-24.91-0.008-37.365c0-27.245,0-54.49,0-81.735c0-0.997,0-1.994,0-3.113
		c4.75,0.442,8.833,2.033,12.671,4.303c6.058,3.582,10.908,8.494,15.169,14.018c6.465,8.381,11.258,17.702,15.246,27.46
		c5.819,14.239,9.695,29.028,12.445,44.134c1.7,9.336,2.891,18.74,3.687,28.194C328.949,373.932,329.03,375.849,329.154,377.86z"/>
	<path fill-rule="evenodd" clip-rule="evenodd" fill="#106A3F" d="M302.732,187.803c-0.672,0.444-1.316,1.211-2.019,1.27
		c-1.798,0.148-2.633,1.283-3.513,2.592c-0.676,1.006-1.491,1.957-2.394,2.766c-2.304,2.067-3.742,4.519-3.927,7.662
		c-0.041,0.69-0.183,1.407-0.441,2.046c-1.38,3.407-0.256,6.436,1.486,9.287c1.555,2.543,4.607,3.045,7.068,1.356
		c0.512-0.351,0.957-0.82,1.503-1.092c1.185-0.591,2.042-0.419,2.79,0.671c0.49,0.716,1.01,1.092,1.883,1.107
		c0.978,0.017,1.295,0.711,1.351,1.576c0.015,0.233,0.056,0.472,0.024,0.699c-0.391,2.82,0.44,5.181,1.908,7.669
		c1.129,1.913,1.484,4.41,0.593,6.878c-0.733,2.029-0.359,4.181,0.655,6.112c1.029,1.957,1.645,3.998,1.896,6.196
		c0.092,0.807,0.569,1.589,0.962,2.336c0.5,0.952,1.09,1.856,1.795,3.039c1.397-0.168,3.025-0.26,4.605-0.586
		c1.565-0.324,2.463-1.563,3.143-2.918c0.45-0.899,0.713-1.904,1.236-2.752c0.495-0.801,1.46-1.368,1.781-2.205
		c0.345-0.895-0.123-2.149,0.309-2.953c0.604-1.12,1.595-2.126,2.635-2.891c1.535-1.129,1.918-2.431,1.589-4.25
		c-0.358-1.975-0.712-4.023-0.561-6.001c0.206-2.702,1.526-5.089,3.677-6.768c2.99-2.332,3.834-5.47,4.076-9.01
		c-1.107-0.533-2.052-0.468-3.028-0.044c-0.769,0.333-1.711,0.416-2.075-0.405c-0.775-1.745-2.365-2.861-3.252-4.444
		c-1.239-2.213-2.159-4.605-3.217-6.921c-0.348-0.763-0.729-1.514-1.035-2.294c-0.154-0.396-0.175-0.844-0.337-1.694
		c1.756,1.229,2.837,2.408,3.337,4.087c0.197,0.658,0.307,1.42,0.715,1.924c1.807,2.228,2.904,4.769,3.626,7.507
		c0.057,0.214,0.199,0.406,0.388,0.779c0.571-0.18,1.228-0.229,1.682-0.558c1.571-1.141,3.146-2.298,4.585-3.6
		c2.114-1.914,2.179-3.197,0.579-6.522c0.92,0.079,1.796,0.154,2.903,0.25c-0.521-1.374-1.861-1.109-2.459-1.798
		c-0.563-0.65-0.913-1.485-1.146-2.415c2.166,1.607,5.128,2.039,6.375,4.771c3.425,2.57,4.052,6.464,4.89,10.27
		c0.278,1.266,0.68,2.504,1.146,4.193c1.169-2.101,0.714-3.889,0.802-5.596c0.09-1.738,0.076-3.481,0.107-5.223
		c0.174-0.031,0.348-0.063,0.521-0.095c0.238,0.595,0.566,1.171,0.703,1.789c3.268,14.673,0.146,27.808-9.789,39.129
		c-7.061,8.045-16.073,12.724-26.68,13.997c-11.449,1.374-21.934-1.35-31.249-8.268c-0.063-0.046-0.132-0.086-0.184-0.143
		c-1.064-1.153-2.169-2.205-3.512-3.101c-1.386-0.926-2.461-2.361-3.555-3.67c-1.095-1.311-2.108-2.701-3.04-4.132
		c-0.932-1.432-1.795-2.92-2.549-4.453c-0.754-1.532-1.404-3.125-1.965-4.738c-0.324-0.93-0.529-1.953-0.535-2.935
		c-0.042-7.472-0.041-14.945-0.001-22.417c0.005-0.99,0.174-2.021,0.481-2.962c5.321-16.319,21.317-28.35,38.451-28.954
		c0.304-0.011,0.609,0.025,1.23,0.054c-2.751,1.883-6.065,1.923-8.583,3.996c1.315,0.503,2.324,0.174,3.3-0.331
		c1.174-0.607,2.316-1.281,3.504-1.86c2.159-1.053,4.34-1.274,6.944-0.7c-1.046,0.503-2.009,0.814-2.78,1.382
		c-0.725,0.533-2.375,0.577-1.559,2.231c-0.912,0.892-1.824,1.784-2.705,2.647c-2.395-1.862-3.771-1.642-6.071,0.875
		c0.632,0.042,1.126,0.075,1.742,0.116c0.104,0.48,0.218,1.003,0.335,1.525c0.228,1.017-0.124,1.718-1.18,1.88
		c-1.764,0.272-2.566,1.676-3.418,2.936c-0.816,1.206-0.291,2.102,1.17,2.192c0.771,0.048,1.549-0.024,2.323-0.042L302.732,187.803z
		 M277.203,215.414c-1.867,3.393-0.307,19.999,4.512,27.178c0-2.336,0.37-4.47-0.087-6.407c-0.673-2.846-0.721-5.684-0.87-8.548
		c-0.072-1.383-0.432-2.63-1.343-3.852c-1.477-1.981-2.622-4.223-2.221-6.889C277.257,216.471,277.203,216.028,277.203,215.414z
		 M330.915,242.498c1.429,0.454,2.018-0.148,2.333-1.156c0.766-2.445,1.09-5.037,2.678-7.204c0.313-0.427,0.045-1.279,0.045-2.124
		c-1.102,0.859-1.914,1.675-2.883,2.201c-1.042,0.564-1.371,1.333-1.41,2.426c-0.031,0.825-0.023,1.759-0.4,2.441
		C330.654,240.213,330.805,241.278,330.915,242.498z"/>
	<path fill-rule="evenodd" clip-rule="evenodd" fill="#106A3F" d="M213.416,256.528c3.263,0.008,6.526,0.061,9.788,0.005
		c1.752-0.03,3.339-0.453,4.441-2.098c0.434-0.647,1.337-1.018,2.081-1.414c2.165-1.153,4.691-1.722,6.187-3.944
		c0.143-0.212,0.538-0.309,0.833-0.355c3.906-0.608,6.029-3.503,8.219-6.338c0.647-0.837,1.34-1.67,2.143-2.35
		c1.083-0.916,1.404-1.679,1.038-3.277c-0.289-1.257-1.019-2.085-2.315-2.311c-0.454-0.08-0.934-0.082-1.395-0.042
		c-2.602,0.221-4.673-1.106-6.624-2.49c-0.694-0.493-0.875-1.708-1.299-2.612c-1.48-0.067-3.028-0.056-4.55-0.247
		c-0.621-0.078-1.493-0.448-1.726-0.936c-1.185-2.479-3.45-2.738-5.699-2.872c-1.419-0.085-2.676-0.084-3.865-1.149
		c-0.532-0.476-1.815-0.481-2.602-0.224c-1.295,0.424-2.463,1.236-3.621,1.85c-1.093-0.042-2.213-0.205-3.307-0.101
		c-1.611,0.153-2.147-0.106-2.485-1.649c-0.099-0.451-0.105-0.925-0.124-1.39c-0.119-3.009-0.116-3.009-2.92-4.017
		c0.471-1.192,0.943-2.385,1.488-3.767c-1.439-0.029-2.8-0.937-3.803,1.025c-0.584,1.141-3.019,0.563-3.655-0.898
		c-0.417-0.958-0.643-2.13-0.524-3.157c0.139-1.201,0.662-2.387,1.173-3.509c0.59-1.294,1.843-1.246,3.034-1.202
		c1.108,0.04,2.091,0.406,3.321-0.285c1.41-0.791,4.41,1.398,4.815,3.138c0.128,0.548,0.224,1.103,0.383,1.902
		c1.181-0.909,0.908-1.9,0.86-2.748c-0.107-1.913,0.671-3.187,2.518-3.664c1.308-0.337,2.106-1.179,2.232-2.394
		c0.271-2.608,1.896-3.537,4.286-3.717c0.519-1.459,1.28-2.403,3.083-2.093c0.701,0.121,1.536-0.538,2.218-0.806
		c-0.836-0.705-1.575-1.328-2.598-2.19c-0.056,0-0.571,0-1.381,0c1.916-1.797,3.955-0.982,5.771-1.104
		c0.481,0.71,0.766,1.534,1.335,1.861c0.584,0.335,1.447,0.184,2.63,0.284c-0.561-0.789-0.765-1.341-1.157-1.574
		c-0.933-0.554-1.627-1.177-1.617-2.354c0.002-0.213-0.096-0.515-0.254-0.63c-2.44-1.78-4.661-3.976-7.906-4.272
		c-0.853-0.078-1.417,0.25-1.382,1.133c0.049,1.203-0.657,1.77-1.537,2.39c-0.632,0.445-1.037,1.213-1.749,2.091
		c-0.401-0.508-0.896-0.96-1.174-1.52c-0.619-1.244-1.461-2.09-2.821-2.589c-1.726-0.633-1.913-2.008-0.455-3.157
		c0.7-0.552,1.659-0.787,2.517-1.124c0.853-0.335,1.854-0.468,1.98-1.657c-2.055-1.287-3.209-1.26-5.649,0.19
		c-0.324-0.226-0.862-0.402-1.039-0.757c-0.72-1.444-1.509-2.783-2.716-3.92c-0.672-0.634-0.333-1.768,0.564-2.123
		c1.843-0.73,3.747-1.302,5.734-1.976c0.145,1.283-0.502,1.542-1.186,1.708c-0.371,0.09-0.773,0.056-1.163,0.06
		c-0.804,0.009-1.626,0.029-1.825,1.035c-0.158,0.798,0.641,1.62,1.804,1.765c0.842,0.105,1.709,0.053,2.563,0.015
		c1.825-0.081,3.174,0.595,3.905,2.333c0.121,0.286,0.272,0.56,0.423,0.832c1.152,2.08,1.487,2.213,3.899,1.613
		c0.216-0.053,0.457-0.007,0.733-0.007c0.463,0.606,0.858,1.289,1.408,1.807c0.915,0.862,1.902,0.578,2.367-0.604
		c0.223-0.566,0.375-1.162,0.627-1.713c0.076-0.167,0.378-0.231,0.654-0.386c2.303,1.171,3.34,4.171,6.435,4.571
		c-0.087-1.69,0.208-3.198,1.394-4.45c0.305-0.322,0.431-1.13,0.248-1.541c-0.604-1.356-0.106-3.184-1.717-4.117
		c-0.084-0.048-0.056-0.29-0.098-0.551c0.184-0.157,0.399-0.501,0.638-0.519c1.944-0.143,3.906-0.768,5.829,0.128
		c0.706,0.329,1.424,0.628,2.129,0.958c3.189,1.492,6.257,3.136,7.921,6.794c-0.089,0.251-0.289,0.813-0.519,1.459
		c-0.882-0.045-1.706-0.087-2.8-0.143c0.473,1.262,0.861,2.299,1.324,3.538c0.501-0.312,0.796-0.495,1.226-0.763
		c0.511,0.353,1.11,0.767,1.71,1.181c0.1-0.072,0.199-0.145,0.298-0.217c-0.413-0.773-0.825-1.546-1.417-2.654
		c0.605,0.264,1.098,0.319,1.23,0.567c0.476,0.886,0.836,1.835,1.226,2.767c0.269,0.642,0.44,1.301,1.331,1.428
		c1.405,0.2,1.432,1.339,1.246,2.338c-0.497,2.67,0.673,4.498,2.665,6.071c0.458,0.361,0.704,1.106,0.849,1.722
		c0.224,0.953,0.29,1.944,0.397,2.922c0.05,0.455,0.174,0.962,0.035,1.368c-1.125,3.282-1.102,6.498,0.293,9.708
		c0.27,0.62,0.255,1.363,0.379,2.047c0.223,1.221,0.354,2.469,0.698,3.655c0.722,2.489,1.667,2.848,4.301,1.65
		c0.094,3.519,0.297,6.868-1.136,10.243c-6.742,15.874-22.343,26.353-39.65,26.27c-3.09-0.015-6.184-0.529-9.263-0.914
		c-0.715-0.089-1.379-0.589-2.067-0.899L213.416,256.528z M243.46,178.742c1.588,2.293,2.118,2.715,4.238,3.27
		C246.749,180.123,245.605,178.895,243.46,178.742z"/>
	<path fill-rule="evenodd" clip-rule="evenodd" fill="#106A3F" d="M213.483,256.472c-1.056-0.175-2.181-0.173-3.159-0.551
		c-16.026-6.19-25.868-17.728-28.267-34.731c-2.257-16.005,3.372-29.359,15.847-39.734c0.577-0.479,1.232-0.865,1.932-1.351
		c0.74,1.09,0.255,1.976-0.129,2.745c-0.446,0.893-1.198,1.63-1.689,2.506c-1.39,2.479-3.082,4.735-4.809,6.985
		c-2.2,2.866-2.406,6.322-2.495,9.766c-0.03,1.165-0.005,2.331,0.229,3.565c0.132-0.598,0.263-1.195,0.396-1.803
		c0.238,0.086,0.452,0.105,0.472,0.179c0.52,1.87,1.02,3.746,1.523,5.62c0.081,0.301,0.255,0.608,0.233,0.9
		c-0.274,3.559,2.436,5.369,4.731,6.924c1.68,1.139,3.894,1.533,5.165,3.396c2.261,0.152,2.777,1.887,3.322,3.624
		c0.463,1.479,2.208,2.424,4.104,2.275c1.981-0.155,2.465,0.229,2.067,2.094c-0.234,1.094-0.824,2.166-1.464,3.104
		c-0.635,0.933-1.712,1.543-1.287,3c0.132,0.451-0.413,1.099-0.541,1.401c1.539,2.364,3.094,4.496,4.365,6.785
		c1.009,1.817,2.696,1.893,4.326,2.204c1.052,4.213-0.671,8.075-4.939,11.151C213.416,256.528,213.483,256.472,213.483,256.472z"/>
	<path fill-rule="evenodd" clip-rule="evenodd" fill="#106A3F" d="M302.78,187.853c0.071-1.185,0.708-1.998,1.667-2.637
		c0.707-0.472,1.355-1.033,2.055-1.521c1.216-0.847,3.195-0.955,4.172-0.213c0.648,0.494,1.243,1.18,0.712,1.971
		c-0.506,0.752-1.315,0.665-2.012,0.063c-0.157-0.137-0.333-0.254-0.591-0.45c-0.691,0.986-0.183,1.677,0.389,2.279
		c0.789,0.832,1.805,0.908,2.796,0.459c1.401-0.634,2.078-1.761,2.015-3.393c-1.18-0.517-2.934-0.388-2.838-2.384
		c2.605,0.098,2.957,0.384,3.191,2.517c0.145,1.325,0.642,2.025,2.091,2.853c0.435-0.671,0.874-1.348,1.407-2.172
		c0.221,0.415,0.385,0.657,0.486,0.922c0.515,1.343,1.456,1.936,2.904,1.766c0.614-0.072,1.291-0.179,1.849,0.005
		c0.581,0.191,1.323,0.614,1.509,1.116c0.297,0.8,0.122,1.813-0.89,2.109c-1.019,0.298-2.106,0.467-3.165,0.478
		c-0.916,0.009-1.845-0.247-2.752-0.454c-1.252-0.286-2.504-0.947-3.379,0.771c-0.139,0.271-1.325,0.237-1.893,0.008
		c-1.021-0.412-1.938-1.078-3.195-1.809c0.022,0.059-0.092-0.224-0.185-0.513c-0.528-1.635-0.714-1.812-2.433-1.86
		c-1.318-0.037-2.64,0.021-3.959,0.038C302.732,187.803,302.78,187.853,302.78,187.853z"/>
	<path fill-rule="evenodd" clip-rule="evenodd" fill="#106A3F" d="M258.544,190.613c2.546,1.16,3.893,3.26,4.749,5.764
		c-1.487,0.929-1.282-0.79-2.038-1.28c-0.291,0.795-0.547,1.499-0.902,2.472c-0.968-1.357-1.906-2.55-2.688-3.839
		c-0.229-0.377-0.124-1.059,0.027-1.539C257.875,191.614,258.268,191.105,258.544,190.613z"/>
</g>
</svg>
