<?xml version="1.0" encoding="utf-8"?>
<!-- Generator: Adobe Illustrator 20.0.0, SVG Export Plug-In . SVG Version: 6.00 Build 0)  -->
<svg version="1.1" id="Layer_1" xmlns="http://www.w3.org/2000/svg" xmlns:xlink="http://www.w3.org/1999/xlink" x="0px" y="0px"
	 viewBox="0 0 960 1912" style="enable-background:new 0 0 960 1912;" xml:space="preserve">
<style type="text/css">
	.st0{fill:#909AB7;}
	.st1{fill:#FFFFFF;}
	.st2{opacity:0.6;fill:#006A3F;enable-background:new    ;}
	.st3{fill:#CCCCCC;}
	.st4{fill:#006A3F;}
	.st5{fill:#999999;}
	.st6{font-family:'Tahoma';}
	.st7{font-size:18px;}
	.st8{font-size:16px;}
	.st9{fill:#4D4D4D;}
	.st10{fill:none;}
	.st11{font-size:88px;}
	.st12{font-size:36px;}
	.st13{font-family:'MyriadPro-Regular';}
	.st14{fill:#0F2030;}
	.st15{font-family:'MyriadPro-Bold';}
	.st16{font-size:14px;}
	.st17{fill:#FFFFFF;stroke:#000000;stroke-width:0.5;stroke-miterlimit:10;}
</style>
<image style="overflow:visible;enable-background:new    ;" width="640" height="427" xlink:href="../../EBF5E9DE.jpeg"  transform="matrix(1.5 0 0 1.296 0 0.999)">
</image>
<rect x="1.4" y="2711.4" class="st0" width="960" height="431"/>
<g>
	
		<image style="overflow:visible;enable-background:new    ;" width="990" height="458" xlink:href="../../EBF5E9E2.png"  transform="matrix(1 0 0 1.8603 -8.6436 1897)">
	</image>
	<g>
		<rect x="1.4" y="1915.6" class="st1" width="960" height="796.2"/>
	</g>
</g>
<rect y="130" class="st2" width="960" height="315"/>
<g>
	
		<image style="overflow:visible;enable-background:new    ;" width="990" height="170" xlink:href="../../EBF5E9E6.png"  transform="matrix(1 0 0 1 -10 -9)">
	</image>
	<g>
		<rect y="1" class="st1" width="960" height="140"/>
	</g>
</g>
<g>
	<path class="st3" d="M108.9,64.8l2.2-1.7c0,0,2.7,3.4,4.5,5c0,0-2.2,1.8-2.9,2.3C112.7,70.5,110.9,67.2,108.9,64.8z"/>
	<path class="st3" d="M84.5,64.8l-2.2-1.7c0,0-2.7,3.4-4.5,5c0,0,2.2,1.8,2.9,2.3C80.6,70.5,82.4,67.2,84.5,64.8z"/>
	<path class="st3" d="M84.5,46.3L82.2,48c0,0-2.7-3.4-4.5-5c0,0,2.2-1.8,2.9-2.3C80.6,40.7,82.4,44,84.5,46.3z"/>
	<path class="st3" d="M108.7,46.3l2.2,1.7c0,0,2.7-3.4,4.5-5c0,0-2.2-1.8-2.9-2.3C112.5,40.7,110.7,44,108.7,46.3z"/>
	<path class="st3" d="M135,66.7c0,0-23.8-1.7-27.2,17.3h-0.3c0,0,1.5-18.4,27.5-17.6V66.7z"/>
	<path class="st3" d="M59,44.5c0,0,23.1,2.5,26.5-17.5h0.3c0,0,0.2,18.6-26.8,17.8C59,44.8,59,44.5,59,44.5z"/>
	<path class="st3" d="M59,67.1c0,0,22.7-2.1,26,16.9h0.3c0,0-1.3-18-26.3-17.2C59,66.8,59,67.1,59,67.1z"/>
	<path class="st3" d="M135,44.3c0,0-23.7,2.7-27.1-17.3h-0.3c0,0,1.4,18.4,27.4,17.6V44.3z"/>
	<rect x="97" y="18" class="st3" width="0" height="76.3"/>
	<polygon class="st3" points="111.5,56 144.5,56 144.5,56 	"/>
	<polygon class="st3" points="50,56 81.9,56 81.9,56 	"/>
	<ellipse class="st3" cx="89.2" cy="55.5" rx="7.9" ry="7.9"/>
	<ellipse class="st3" cx="104.2" cy="55.3" rx="7.9" ry="7.9"/>
	<path class="st4" d="M96.4,26.7c0,7.5,0,14.9,0,22.3c-0.3,0.1-0.7,0-1-0.1c-1.1-0.3-2-0.8-2.8-1.6c-1.3-1.2-2.3-2.6-3.1-4.2
		c-1.5-2.8-2.4-5.7-3-8.8c-0.5-2.1-0.8-4.3-0.9-6.4c0-0.3,0-0.6,0-0.8c0-0.3,0.1-0.4,0.4-0.4s0.6,0,0.9,0c3.1,0,6.1,0,9.2,0
		C96.1,26.7,96.2,26.7,96.4,26.7z"/>
	<path class="st4" d="M96.3,62.3c0,7.3,0,14.6,0,21.9c-3.7,0-7.4,0-11.1,0c0-0.1,0-0.1,0-0.1c0-0.1,0.1-0.1,0.1-0.2
		c0.1,0,0.2,0,0.2,0c0-0.1,0.1-0.1,0.1-0.1c0.1-0.9,0.1-1.8,0.2-2.7c0.5-4.2,1.4-8.3,3.2-12.2c0.7-1.5,1.6-2.9,2.7-4.2
		c0.8-0.9,1.7-1.6,2.8-2.1C95.2,62.4,95.9,62.3,96.3,62.3z"/>
	<path class="st4" d="M58.7,66.8c0-3.6,0-7.2,0-10.8c7.4,0,14.8,0,22.3,0c0,0.4,0,0.7-0.1,1c-0.3,1.1-0.8,2-1.6,2.8
		c-1.2,1.3-2.6,2.2-4.2,3c-2.3,1.2-4.8,2-7.4,2.6c-2.1,0.5-4.2,0.9-6.4,1.1C60.5,66.6,59.6,66.7,58.7,66.8z"/>
	<path class="st4" d="M134.7,44.5c0,3.6,0,7.1,0,10.8c-0.2,0-0.3,0-0.5,0c-2.3,0-4.7,0-7,0c-4.7,0-9.5,0-14.2,0c-0.2,0-0.3,0-0.5,0
		c0-0.5,0.1-1,0.2-1.4c0.3-1,0.9-1.8,1.6-2.5c1.2-1.3,2.7-2.3,4.3-3.1c2.3-1.2,4.8-2,7.3-2.6c1.5-0.4,3.1-0.6,4.7-0.9
		c0.2,0,0.5,0,0.7,0c0.9-0.1,1.9-0.1,2.8-0.2C134.4,44.5,134.5,44.5,134.7,44.5z"/>
	<path class="st4" d="M97.1,26.7c3.5,0,7,0,10.4,0c0.1,0.4,0.2,0.8,0.3,1.2c-0.1-0.1-0.2-0.1-0.3-0.2c0,0.1,0,0.2,0,0.3
		c-0.3,4.1-1.1,8-2.5,11.9c-0.8,2.1-1.7,4.1-3.1,5.9c-0.7,0.9-1.5,1.8-2.5,2.4c-0.7,0.4-1.5,0.7-2.3,0.8C97,48.6,97,27.3,97.1,26.7z
		"/>
	<path class="st4" d="M112.6,56c7.4,0,14.7,0,22.1,0c0.1,0.3,0.1,10.4,0,10.8c-0.1-0.1-0.2-0.3-0.3-0.4s-0.3-0.1-0.5-0.1
		c-4.6-0.3-9.1-1.1-13.3-2.9c-1.6-0.6-3.1-1.4-4.5-2.4c-1.1-0.8-2.1-1.8-2.8-3c-0.3-0.5-0.5-1.1-0.6-1.7
		C112.6,56.3,112.6,56.2,112.6,56z"/>
	<path class="st4" d="M80.9,55.3c-7.4,0-14.8,0-22.2,0c-0.1-0.3-0.1-9.2-0.1-10.7c0.2,0,0.3-0.1,0.5-0.2c0.1,0.1,0.1,0.2,0.2,0.2
		c-0.1,0.1-0.3,0.1-0.5,0.2c0.1,0.1,0.2,0.1,0.3,0.1c1.2,0.1,2.5,0.2,3.7,0.4c4.1,0.5,8,1.5,11.7,3.3c1.6,0.8,3.2,1.8,4.4,3.1
		c0.9,0.9,1.5,1.9,1.8,3.1C80.9,54.9,80.9,55.1,80.9,55.3z"/>
	<path class="st4" d="M107.4,83.9c-0.2,0-0.4,0-0.5,0.1l0,0c0.3,0,0.6,0,0.9-0.1c-0.1,0.3-0.2,0.4-0.4,0.4c-2.4,0-4.8,0-7.3,0
		c-0.9,0-1.7,0-2.6,0c-0.2,0-0.3,0-0.5,0c0-0.2,0-0.5,0-0.7c0-2.2,0-4.3,0-6.5c0-4.8,0-9.5,0-14.3c0-0.2,0-0.3,0-0.5
		c0.8,0.1,1.5,0.4,2.2,0.8c1.1,0.6,1.9,1.5,2.6,2.4c1.1,1.5,2,3.1,2.7,4.8c1,2.5,1.7,5.1,2.2,7.7c0.3,1.6,0.5,3.3,0.6,4.9
		C107.4,83.3,107.4,83.6,107.4,83.9z"/>
	<path class="st4" d="M102.8,50.8c-0.1,0.1-0.2,0.2-0.4,0.2c-0.3,0-0.5,0.2-0.6,0.5c-0.1,0.2-0.3,0.3-0.4,0.5
		c-0.4,0.4-0.7,0.8-0.7,1.3c0,0.1,0,0.2-0.1,0.4c-0.2,0.6,0,1.1,0.3,1.6c0.3,0.4,0.8,0.5,1.2,0.2c0.1-0.1,0.2-0.1,0.3-0.2
		c0.2-0.1,0.4-0.1,0.5,0.1c0.1,0.1,0.2,0.2,0.3,0.2c0.2,0,0.2,0.1,0.2,0.3V56c-0.1,0.5,0.1,0.9,0.3,1.3c0.2,0.3,0.3,0.8,0.1,1.2
		c-0.1,0.4-0.1,0.7,0.1,1.1c0.2,0.3,0.3,0.7,0.3,1.1c0,0.1,0.1,0.3,0.2,0.4c0.1,0.2,0.2,0.3,0.3,0.5c0.2,0,0.5,0,0.8-0.1
		s0.4-0.3,0.5-0.5s0.1-0.3,0.2-0.5c0.1-0.1,0.3-0.2,0.3-0.4c0.1-0.2,0-0.4,0.1-0.5c0.1-0.2,0.3-0.4,0.5-0.5c0.3-0.2,0.3-0.4,0.3-0.7
		c-0.1-0.3-0.1-0.7-0.1-1c0-0.5,0.3-0.9,0.6-1.2c0.5-0.4,0.7-1,0.7-1.6c-0.2-0.1-0.4-0.1-0.5,0s-0.3,0.1-0.4-0.1
		c-0.1-0.3-0.4-0.5-0.6-0.8c-0.2-0.4-0.4-0.8-0.6-1.2c-0.1-0.1-0.1-0.3-0.2-0.4c0-0.1,0-0.1-0.1-0.3c0.3,0.2,0.5,0.4,0.6,0.7
		c0,0.1,0.1,0.2,0.1,0.3c0.3,0.4,0.5,0.8,0.6,1.3c0,0,0,0.1,0.1,0.1s0.2,0,0.3-0.1c0.3-0.2,0.6-0.4,0.8-0.6c0.4-0.3,0.4-0.6,0.1-1.1
		c0.2,0,0.3,0,0.5,0c-0.1-0.2-0.3-0.2-0.4-0.3s-0.2-0.3-0.2-0.4c0.4,0.3,0.9,0.4,1.1,0.8c0.6,0.4,0.7,1.1,0.9,1.8
		c0,0.2,0.1,0.4,0.2,0.7c0.2-0.4,0.1-0.7,0.1-1s0-0.6,0-0.9h0.1c0,0.1,0.1,0.2,0.1,0.3c0.6,2.6,0,4.9-1.7,6.8
		c-1.2,1.4-2.8,2.2-4.7,2.4c-2,0.2-3.8-0.2-5.5-1.4l0,0c-0.2-0.2-0.4-0.4-0.6-0.5c-0.2-0.2-0.4-0.4-0.6-0.6s-0.4-0.5-0.5-0.7
		c-0.2-0.3-0.3-0.5-0.4-0.8s-0.2-0.5-0.3-0.8c-0.1-0.2-0.1-0.3-0.1-0.5c0-1.3,0-2.6,0-3.9c0-0.2,0-0.4,0.1-0.5
		c0.9-2.8,3.7-4.9,6.7-5.1c0.1,0,0.1,0,0.2,0c-0.5,0.3-1.1,0.3-1.5,0.7c0.2,0.1,0.4,0,0.6-0.1s0.4-0.2,0.6-0.3
		c0.4-0.2,0.8-0.2,1.2-0.1c-0.2,0.1-0.4,0.1-0.5,0.2c-0.1,0.1-0.4,0.1-0.3,0.4c-0.2,0.2-0.3,0.3-0.5,0.5c-0.4-0.3-0.7-0.3-1.1,0.2
		c0.1,0,0.2,0,0.3,0c0,0.1,0,0.2,0.1,0.3c0,0.2,0,0.3-0.2,0.3c-0.3,0-0.4,0.3-0.6,0.5c-0.1,0.2-0.1,0.4,0.2,0.4
		C102.6,50.8,102.7,50.8,102.8,50.8L102.8,50.8z M98.4,55.6c-0.3,0.6-0.1,3.5,0.8,4.7c0-0.4,0.1-0.8,0-1.1c-0.1-0.5-0.1-1-0.2-1.5
		c0-0.2-0.1-0.5-0.2-0.7c-0.3-0.3-0.5-0.7-0.4-1.2C98.4,55.8,98.4,55.7,98.4,55.6z M107.8,60.3c0.2,0.1,0.4,0,0.4-0.2
		c0.1-0.4,0.2-0.9,0.5-1.3c0.1-0.1,0-0.2,0-0.4c-0.2,0.2-0.3,0.3-0.5,0.4c-0.2,0.1-0.2,0.2-0.2,0.4c0,0.1,0,0.3-0.1,0.4
		C107.7,59.9,107.7,60.1,107.8,60.3z"/>
	<path class="st4" d="M87.2,62.8c0.6,0,1.1,0,1.7,0c0.3,0,0.6-0.1,0.8-0.4c0.1-0.1,0.2-0.2,0.4-0.2c0.4-0.2,0.8-0.3,1.1-0.7l0.1-0.1
		c0.7-0.1,1.1-0.6,1.4-1.1c0.1-0.1,0.2-0.3,0.4-0.4c0.2-0.2,0.2-0.3,0.2-0.6c-0.1-0.2-0.2-0.4-0.4-0.4c-0.1,0-0.2,0-0.2,0
		c-0.5,0-0.8-0.2-1.2-0.4c-0.1-0.1-0.2-0.3-0.2-0.5c-0.3,0-0.5,0-0.8,0c-0.1,0-0.3-0.1-0.3-0.2c-0.2-0.4-0.6-0.5-1-0.5
		c-0.2,0-0.5,0-0.7-0.2c-0.1-0.1-0.3-0.1-0.5,0s-0.4,0.2-0.6,0.3c-0.2,0-0.4,0-0.6,0c-0.3,0-0.4,0-0.4-0.3c0-0.1,0-0.2,0-0.2
		c0-0.5,0-0.5-0.5-0.7c0.1-0.2,0.2-0.4,0.3-0.7c-0.3,0-0.5-0.2-0.7,0.2c-0.1,0.2-0.5,0.1-0.6-0.2c-0.1-0.2-0.1-0.4-0.1-0.6
		c0-0.2,0.1-0.4,0.2-0.6c0.1-0.2,0.3-0.2,0.5-0.2s0.4,0.1,0.6,0s0.8,0.2,0.8,0.5c0,0.1,0,0.2,0.1,0.3c0.2-0.2,0.2-0.3,0.2-0.5
		c0-0.3,0.1-0.6,0.4-0.6c0.2-0.1,0.4-0.2,0.4-0.4c0-0.5,0.3-0.6,0.7-0.6c0.1-0.3,0.2-0.4,0.5-0.4c0.1,0,0.3-0.1,0.4-0.1
		c-0.1-0.1-0.3-0.2-0.5-0.4c0,0-0.1,0-0.2,0c0.3-0.3,0.7-0.2,1-0.2C90,51.8,90,52,90.1,52c0.1,0.1,0.3,0,0.5,0
		c-0.1-0.1-0.1-0.2-0.2-0.3c-0.2-0.1-0.3-0.2-0.3-0.4v-0.1c-0.4-0.3-0.8-0.7-1.4-0.7c-0.1,0-0.2,0-0.2,0.2s-0.1,0.3-0.3,0.4
		c-0.1,0.1-0.2,0.2-0.3,0.4c-0.1-0.1-0.2-0.2-0.2-0.3c-0.1-0.2-0.3-0.4-0.5-0.5c-0.3-0.1-0.3-0.4-0.1-0.6c0.1-0.1,0.3-0.1,0.4-0.2
		c0.1-0.1,0.3-0.1,0.3-0.3c-0.4-0.2-0.6-0.2-1,0c-0.1,0-0.2-0.1-0.2-0.1c-0.1-0.3-0.3-0.5-0.5-0.7c-0.1-0.1-0.1-0.3,0.1-0.4
		c0.3-0.1,0.7-0.2,1-0.3c0,0.2-0.1,0.3-0.2,0.3s-0.1,0-0.2,0s-0.3,0-0.3,0.2c0,0.1,0.1,0.3,0.3,0.3c0.1,0,0.3,0,0.4,0
		c0.3,0,0.6,0.1,0.7,0.4c0,0,0,0.1,0.1,0.1c0.2,0.4,0.3,0.4,0.7,0.3h0.1c0.1,0.1,0.2,0.2,0.2,0.3c0.2,0.2,0.3,0.1,0.4-0.1
		c0-0.1,0.1-0.2,0.1-0.3c0,0,0.1,0,0.1-0.1c0.4,0.2,0.6,0.7,1.1,0.8c0-0.3,0-0.6,0.2-0.8c0.1-0.1,0.1-0.2,0-0.3
		c-0.1-0.2,0-0.6-0.3-0.7v-0.1l0.1-0.1c0.3,0,0.7-0.1,1,0c0.1,0.1,0.2,0.1,0.4,0.2c0.6,0.3,1.1,0.5,1.4,1.2c0,0-0.1,0.1-0.1,0.3
		c-0.2,0-0.3,0-0.5,0c0.1,0.2,0.1,0.4,0.2,0.6c0.1-0.1,0.1-0.1,0.2-0.1c0.1,0.1,0.2,0.1,0.3,0.2c0,0,0,0,0.1,0
		c-0.1-0.1-0.1-0.3-0.2-0.5c0.1,0,0.2,0.1,0.2,0.1c0.1,0.2,0.1,0.3,0.2,0.5c0,0.1,0.1,0.2,0.2,0.2c0.2,0,0.3,0.2,0.2,0.4
		c-0.1,0.5,0.1,0.8,0.5,1.1c0.1,0.1,0.1,0.2,0.1,0.3c0,0.2,0.1,0.3,0.1,0.5c0,0.1,0,0.2,0,0.2c-0.2,0.6-0.2,1.1,0.1,1.7
		c0,0.1,0,0.2,0.1,0.4c0,0.2,0.1,0.4,0.1,0.6c0.1,0.4,0.3,0.5,0.8,0.3c0,0.6,0.1,1.2-0.2,1.8c-1.2,2.8-3.9,4.6-6.9,4.6
		c-0.5,0-1.1-0.1-1.6-0.2C87.5,62.9,87.4,62.8,87.2,62.8L87.2,62.8z M92.5,49.2c0.3,0.4,0.4,0.5,0.7,0.6
		C93.1,49.4,92.9,49.2,92.5,49.2z"/>
	<path class="st4" d="M87.3,62.8c-0.2,0-0.4,0-0.6-0.1c-2.8-1.1-4.5-3.1-4.9-6.1c-0.4-2.8,0.6-5.1,2.8-6.9c0.1-0.1,0.2-0.2,0.3-0.2
		c0.1,0.2,0,0.3,0,0.5c-0.1,0.2-0.2,0.3-0.3,0.4c-0.2,0.4-0.5,0.8-0.8,1.2c-0.4,0.5-0.4,1.1-0.4,1.7c0,0.2,0,0.4,0,0.6
		c0-0.1,0-0.2,0.1-0.3h0.1c0.1,0.3,0.2,0.7,0.3,1c0,0.1,0,0.1,0,0.2c0,0.6,0.4,0.9,0.8,1.2c0.3,0.2,0.7,0.3,0.9,0.6
		c0.4,0,0.5,0.3,0.6,0.6s0.4,0.4,0.7,0.4c0.3,0,0.4,0,0.4,0.4c0,0.2-0.1,0.4-0.3,0.5c-0.1,0.2-0.3,0.3-0.2,0.5
		c0,0.1-0.1,0.2-0.1,0.2c0.3,0.4,0.5,0.8,0.8,1.2c0.2,0.3,0.5,0.3,0.8,0.4C88.3,61.6,88,62.2,87.3,62.8L87.3,62.8z"/>
	<path class="st4" d="M102.8,50.8c0-0.2,0.1-0.3,0.3-0.5c0.1-0.1,0.2-0.2,0.4-0.3c0.2-0.1,0.6-0.2,0.7,0c0.1,0.1,0.2,0.2,0.1,0.3
		s-0.2,0.1-0.4,0c0,0-0.1,0-0.1-0.1c-0.1,0.2,0,0.3,0.1,0.4c0.1,0.1,0.3,0.2,0.5,0.1c0.2-0.1,0.4-0.3,0.4-0.6
		c-0.2-0.1-0.5-0.1-0.5-0.4c0.5,0,0.5,0.1,0.6,0.4c0,0.2,0.1,0.4,0.4,0.5c0.1-0.1,0.2-0.2,0.2-0.4c0,0.1,0.1,0.1,0.1,0.2
		c0.1,0.2,0.3,0.3,0.5,0.3c0.1,0,0.2,0,0.3,0c0.1,0,0.2,0.1,0.3,0.2c0.1,0.1,0,0.3-0.2,0.4c-0.2,0.1-0.4,0.1-0.6,0.1s-0.3,0-0.5-0.1
		c-0.2,0-0.4-0.2-0.6,0.1c0,0-0.2,0-0.3,0c-0.2-0.1-0.3-0.2-0.6-0.3c0,0,0,0,0-0.1c-0.1-0.3-0.1-0.3-0.4-0.3
		C103.3,50.8,103.1,50.8,102.8,50.8L102.8,50.8z"/>
	<path class="st4" d="M95.1,51.3c0.4,0.2,0.7,0.6,0.8,1c-0.3,0.2-0.2-0.1-0.4-0.2c-0.1,0.1-0.1,0.3-0.2,0.4
		c-0.2-0.2-0.3-0.4-0.5-0.7c0-0.1,0-0.2,0-0.3C95,51.4,95.1,51.4,95.1,51.3z"/>
</g>
<text transform="matrix(1 0 0 1 157.1699 45.7432)" class="st5 st6 st7">SHPE | Michigan State University</text>
<text transform="matrix(1 0 0 1 157.1699 70.4219)" class="st5 st6 st7">Society of Hispanic Professional Engineers</text>
<text transform="matrix(1 0 0 1 329.7323 130.0352)" class="st5 st6 st8">About Us</text>
<text transform="matrix(1.0726 0 0 1 450.3584 130.0117)" class="st5 st6 st8">MemberSHPE</text>
<text transform="matrix(1.0192 0 0 1 597.083 130.0352)" class="st5 st6 st8">SponsorSHPE</text>
<text transform="matrix(1 0 0 1 742.1252 130.0352)" class="st5 st6 st8">Contact</text>
<g>
	
		<image style="overflow:visible;enable-background:new    ;" width="990" height="633" xlink:href="../../EBF5E9E3.png"  transform="matrix(1 0 0 1.8278 -20 420)">
	</image>
	<g>
		<rect y="456.6" class="st0" width="960" height="1102.2"/>
	</g>
</g>
<text transform="matrix(1 0 0 1 74.0493 2241.8379)" class="st1 st6" style="font-size:13.5478px;">Jul</text>
<text transform="matrix(1 0 0 1 74.0493 2216.4355)" class="st1 st6" style="font-size:20.3217px;">20</text>
<text transform="matrix(1 0 0 1 74.0493 2344.8379)" class="st1 st6" style="font-size:13.5478px;">Aug</text>
<text transform="matrix(1 0 0 1 51.3564 2954.3931)" class="st1 st6" style="font-size:21px;">Join Now</text>
<text transform="matrix(1 0 0 1 51.3564 2992.3931)" class="st1 st6" style="font-size:21px;">Scholarships</text>
<text transform="matrix(1 0 0 1 51.3564 3034.3931)" class="st1 st6" style="font-size:21px;">Regional SHPE</text>
<text transform="matrix(1 0 0 1 330.521 2952.3931)" class="st1 st6" style="font-size:21px;">SHPE Foundation</text>
<text transform="matrix(1 0 0 1 331.5898 2992.3931)" class="st1 st6" style="font-size:21px;">SHPE Detroit</text>
<text transform="matrix(1 0 0 1 51.3564 3076.3931)" class="st1 st6" style="font-size:21px;">National SHPE</text>
<path class="st9" d="M836.6,3076.4c0-5.2,0-10.4,0-15.7c1.4,0,2.9,0,4.4,0c0.2-1.8,0.5-3.6,0.7-5.4c-1.7,0-3.4,0-5.1,0
	c0-0.6,0-1.2,0-1.8c0-0.5,0-1,0-1.5c0-1,0.4-1.5,1.4-1.6c0.4,0,0.8,0,1.2,0c0.7,0,1.5,0,2.2,0h0.1c0-0.1,0-0.2,0-0.2
	c0-1.7,0-3.3,0-5c0-0.2-0.1-0.3-0.3-0.3c-1.8,0-3.7,0-5.5,0c-2.2,0.1-4,1-5.1,2.9c-0.4,0.7-0.6,1.6-0.6,2.4c0,1.6,0,3.2,0,4.8
	c0,0.2-0.1,0.3-0.3,0.3c-0.9,0-1.7,0-2.6,0c-0.1,0-0.2,0-0.3,0c0,1.8,0,3.6,0,5.4c1,0,2.1,0,3.2,0c0,5.2,0,10.4,0,15.7
	c-0.1,0-0.2,0-0.3,0c-4.2,0-8.4,0-12.7,0c-2.3,0-3.9-1.6-3.9-3.9c0-9.3,0-18.6,0-27.9c0-1.9,1.4-3.5,3.3-3.8c0.2,0,0.3,0,0.5,0
	c9.3,0,18.6,0,28,0c2.2,0,3.8,1.6,3.8,3.8c0,3.6,0,7.2,0,10.8c0,5.7,0,11.4,0,17.1c0,2.2-1.6,3.8-3.8,3.8
	C842.1,3076.3,839.4,3076.3,836.6,3076.4C836.7,3076.4,836.7,3076.4,836.6,3076.4z"/>
<g>
	<path class="st9" d="M868.2,3070.3c0-5.4,0-10.7,0-16.1c3.3,0,6.5,0,9.9,0c-1.1,2-1.5,4.1-1.1,6.3s1.5,4,3.2,5.4
		c3.1,2.5,7.3,2.6,10.5,0.5c1.6-1.1,2.7-2.5,3.4-4.2c1-2.7,0.8-5.3-0.6-7.9c3.4,0,6.7,0,9.9,0c0,5.4,0,10.7,0,16.1
		c-0.1,0.2-0.1,0.4-0.2,0.6c-0.6,2.5-2.1,4.2-4.5,5.1c-0.4,0.2-0.9,0.3-1.3,0.4c-7.7,0-15.5,0-23.2,0c-0.2-0.1-0.3-0.1-0.5-0.2
		c-2.5-0.6-4.3-2.2-5.2-4.6C868.4,3071.2,868.3,3070.8,868.2,3070.3z"/>
	<path class="st9" d="M903.4,3047c0,1.9,0,3.8,0,5.8c-3.5,0-6.9,0-10.4,0c-0.3,0-0.8-0.2-1-0.4c-3.5-3.3-8.9-3.4-12.4,0
		c-0.4,0.3-0.7,0.4-1.2,0.4c-3.4,0-6.8,0-10.3,0c0-1.9,0-3.8,0-5.8c0.1-0.2,0.1-0.4,0.2-0.6c0.4-1.7,1.3-3,2.8-4.1c0,2.1,0,4,0,6
		c0.5,0,1,0,1.5,0c0-2,0-4,0-6c0-0.6,0.2-1,0.8-1c0.2,0,0.4-0.1,0.7-0.1c0,2.4,0,4.8,0,7.2c0.5,0,1,0,1.5,0c0-2.5,0-4.9,0-7.3
		c0.5,0,1,0,1.5,0c0,2.4,0,4.9,0,7.3c0.5,0,1,0,1.5,0c0-2.5,0-4.9,0-7.3c6.3,0,12.6,0,18.9,0c0.2,0,0.3,0.1,0.5,0.1
		c2.6,0.6,4.3,2.2,5.2,4.7C903.2,3046.2,903.3,3046.6,903.4,3047z M897.6,3049.8c0.5,0,1.1,0,1.6,0h0.1c0.7-0.1,1.1-0.4,1.1-1.1
		c0-1.2,0-2.5,0-3.7c0-0.7-0.4-1.1-1.1-1.1c-1.2,0-2.4,0-3.7,0c-0.7,0-1.1,0.4-1.1,1.1c0,1.2,0,2.4,0,3.6c0,0.7,0.4,1.1,1.1,1.2
		C896.4,3049.8,897,3049.8,897.6,3049.8z"/>
	<path class="st9" d="M885.8,3065.8c-3.8,0-6.9-3.1-6.9-6.9s3.1-7,6.9-7c3.8,0,6.9,3.1,6.9,6.9
		C892.7,3062.6,889.6,3065.8,885.8,3065.8z M885.8,3064c2.8,0,5.1-2.3,5.1-5.1s-2.3-5.2-5.1-5.2s-5.1,2.3-5.1,5.1
		S883,3064,885.8,3064z"/>
</g>
<rect x="1.4" y="3141.4" class="st0" width="960" height="24"/>
<text transform="matrix(1 0 0 1 353.756 3153.3931)" class="st1 st6" style="font-size:12px;">Copyright @ 2016 Claury Mejia | Christian Narvios</text>
<g id="Layer_2">
</g>
<image style="overflow:visible;enable-background:new    ;" width="750" height="375" xlink:href="gm_foundation_logo_grey.png"  transform="matrix(0.4512 0 0 0.4512 201.7555 2750.7656)">
</image>
<image style="overflow:visible;enable-background:new    ;" width="1200" height="725" xlink:href="Just-the-Whirlpool-Logo.png"  transform="matrix(0.1918 0 0 0.1918 540.8159 2776.8389)">
</image>
<rect x="1" y="172" class="st10" width="957" height="90.7"/>
<text transform="matrix(1 0 0 1 219.6895 238.8794)" class="st1 st6 st11">SponsorSHPE</text>
<rect x="304" y="653.2" class="st10" width="352.6" height="42.5"/>
<text transform="matrix(1 0 0 1 350.7282 680.5174)" class="st1 st6 st12">Why contribute?</text>
<rect x="65.2" y="695.7" class="st10" width="842.3" height="209.8"/>
<text transform="matrix(1 0 0 1 75.1442 708.4373)" class="st1 st13 st7">Your organization will help us succeed in our mission and develop a pipeline of competent Hispanic leaders of </text>
<text transform="matrix(1 0 0 1 67.0442 730.0373)" class="st1 st13 st7">tomorrow. Your organization’s cooperation is essential in providing our members of the MSU SHPE Chapter with </text>
<text transform="matrix(1 0 0 1 423.4442 751.6373)" class="st1 st13 st7">opportunities to: </text>
<text transform="matrix(1 0 0 1 290.2442 794.8373)" class="st1 st13 st7">    Educate Chapter members on new industry trends</text>
<text transform="matrix(1 0 0 1 351.7442 838.0374)" class="st1 st13 st7">    Diversify organizations’ workforce</text>
<text transform="matrix(1 0 0 1 235.2442 881.2373)" class="st1 st13 st7">    Be recognized in STEM fields as prepared and capable individuals</text>
<g>
	
		<image style="overflow:visible;enable-background:new    ;" width="862" height="781" xlink:href="2BFEC847.jpg"  transform="matrix(0.6913 0 0 -0.6913 188.3774 1519.8463)">
	</image>
</g>
<rect x="282.2" y="923.3" class="st10" width="396.3" height="42.5"/>
<text transform="matrix(1 0 0 1 286.0404 950.6674)" class="st1 st6 st12">2016 Corporate Package</text>
<rect x="236.8" y="1594.3" class="st10" width="493.2" height="42.5"/>
<text transform="matrix(1 0 0 1 238.5807 1621.6099)" class="st14 st6 st12">Corporate SponsorSHPE Levels</text>
<image style="overflow:visible;enable-background:new    ;" width="1496" height="1344" xlink:href="Black-Diamond-Logo.png"  transform="matrix(0.125 0 0 0.125 53.3564 1636.75)">
</image>
<rect x="146.9" y="1658.8" class="st10" width="348" height="312"/>
<text transform="matrix(1 0 0 1 212.4419 1690.2898)" class="st14 st15 st7">Diamond Sponsor: $4000 +</text>
<text transform="matrix(1 0 0 1 320.8419 1707.0898)" class="st14 st13 st16">    </text>
<text transform="matrix(1 0 0 1 252.6419 1723.8898)" class="st14 st13 st16">Personal MSU SHPE gift</text>
<text transform="matrix(1 0 0 1 184.2419 1757.4897)" class="st14 st13 st16">    Receive an MSU SHPE Award during Banquet</text>
<text transform="matrix(1 0 0 1 215.8419 1791.0898)" class="st14 st13 st16">    Allowed a specific company event</text>
<text transform="matrix(1 0 0 1 202.0419 1824.6898)" class="st14 st13 st16">    Display Company name on media clips</text>
<text transform="matrix(1 0 0 1 200.5419 1858.2898)" class="st14 st13 st16">    Company name on MSU Chapter t-shirt</text>
<text transform="matrix(1 0 0 1 209.0419 1891.8898)" class="st14 st13 st16">    President personal “Thank You” card</text>
<text transform="matrix(1 0 0 1 180.2419 1925.4897)" class="st14 st13 st16">    Logo and Company link on MSU SHPE website</text>
<text transform="matrix(1 0 0 1 198.2419 1959.0898)" class="st14 st13 st16">    Added to Corporate Monthly newsletter</text>
<image style="overflow:visible;enable-background:new    ;" width="476" height="458" xlink:href="platinum_package.png"  transform="matrix(0.2986 0 0 0.2986 470.7117 1652.3652)">
</image>
<rect x="587.9" y="1658" class="st10" width="308.5" height="271.3"/>
<text transform="matrix(1 0 0 1 610.5732 1689.5398)" class="st14 st15 st7">Platinum Level Sponsor: $2,000+</text>
<text transform="matrix(1 0 0 1 742.0732 1706.3398)" class="st14 st13 st16">    </text>
<text transform="matrix(1 0 0 1 642.9732 1723.1398)" class="st14 st13 st16">Allowed a specific company event</text>
<text transform="matrix(1 0 0 1 629.1732 1756.7397)" class="st14 st13 st16">Display Company name on media clips</text>
<text transform="matrix(1 0 0 1 627.6732 1790.3398)" class="st14 st13 st16">Company name on MSU Chapter t-shirt</text>
<text transform="matrix(1 0 0 1 636.1732 1823.9398)" class="st14 st13 st16">President personal “Thank You” card</text>
<text transform="matrix(1 0 0 1 607.4732 1857.5398)" class="st14 st13 st16">Logo and Company link on MSU SHPE website</text>
<text transform="matrix(1 0 0 1 625.4732 1891.1398)" class="st14 st13 st16">Added to Corporate Monthly newsletter</text>
<image style="overflow:visible;enable-background:new    ;" width="600" height="338" xlink:href="Gold.png"  transform="matrix(0.3292 0 0 0.3292 32.7851 1970.75)">
</image>
<rect x="140.4" y="1992.3" class="st10" width="348" height="250.3"/>
<text transform="matrix(1 0 0 1 202.481 2023.7898)" class="st14 st15 st7">Gold Level Sponsor: $1000+</text>
<text transform="matrix(1 0 0 1 314.381 2040.5898)" class="st14 st13 st16">    </text>
<text transform="matrix(1 0 0 1 201.481 2057.3896)" class="st14 st13 st16">Display Company name on media clips</text>
<text transform="matrix(1 0 0 1 199.981 2090.9897)" class="st14 st13 st16">Company name on MSU Chapter t-shirt</text>
<text transform="matrix(1 0 0 1 208.481 2124.5898)" class="st14 st13 st16">President personal “Thank You” card</text>
<text transform="matrix(1 0 0 1 179.681 2158.1899)" class="st14 st13 st16">Logo and Company link on MSU SHPE website</text>
<text transform="matrix(1 0 0 1 197.681 2191.7898)" class="st14 st13 st16">Added to Corporate Monthly newsletter</text>
<text transform="matrix(1 0 0 1 191.781 2225.3896)" class="st14 st13 st16">    Added to Corporate Monthly newsletter</text>
<rect x="568.1" y="1996.3" class="st10" width="348" height="186.8"/>
<text transform="matrix(1 0 0 1 631.6506 2027.7898)" class="st14 st15 st7">Silver Level Sponsor: $500+</text>
<text transform="matrix(1 0 0 1 742.1506 2044.5898)" class="st14 st13 st16">    </text>
<text transform="matrix(1 0 0 1 627.6506 2061.3896)" class="st14 st13 st16">Company name on MSU Chapter t-shirt</text>
<text transform="matrix(1 0 0 1 636.1506 2094.9897)" class="st14 st13 st16">President personal “Thank You” card</text>
<text transform="matrix(1 0 0 1 607.4506 2128.5898)" class="st14 st13 st16">Logo and Company link on MSU SHPE website</text>
<text transform="matrix(1 0 0 1 625.4506 2162.1899)" class="st14 st13 st16">Added to Corporate Monthly newsletter</text>
<image style="overflow:visible;enable-background:new    ;" width="512" height="512" xlink:href="silver_star.png"  transform="matrix(0.2463 0 0 0.2463 478.7195 1963.3146)">
</image>
<rect x="413.9" y="2257.3" class="st10" width="348" height="163.4"/>
<text transform="matrix(1 0 0 1 495.0135 2288.7898)" class="st14 st15 st7">Bronze Sponsor: $250+</text>
<text transform="matrix(1 0 0 1 587.8135 2305.5898)" class="st14 st13 st16">    </text>
<text transform="matrix(1 0 0 1 481.9135 2322.3896)" class="st14 st13 st16">President personal “Thank You” card</text>
<text transform="matrix(1 0 0 1 454.1135 2355.9897)" class="st14 st13 st16">Logo and company link on MSU SHPE website</text>
<text transform="matrix(1 0 0 1 471.2135 2389.5898)" class="st14 st13 st16">Added to Corporate Monthly newsletter</text>
<image style="overflow:visible;enable-background:new    ;" width="840" height="720" xlink:href="bronze.png"  transform="matrix(0.2107 0 0 0.2107 259.039 2263.1147)">
</image>
<image style="overflow:visible;enable-background:new    ;" width="750" height="375" xlink:href="gm_foundation_logo_grey.png"  transform="matrix(0.448 0 0 0.448 58.7 434.391)">
</image>
<image style="overflow:visible;enable-background:new    ;" width="1200" height="725" xlink:href="Just-the-Whirlpool-Logo.png"  transform="matrix(0.2107 0 0 0.2107 379.239 466.7141)">
</image>
<image style="overflow:visible;enable-background:new    ;" width="809" height="210" xlink:href="DTE_Energy.png"  transform="matrix(0.4734 0 0 0.4734 58.7 552.6815)">
</image>
<image style="overflow:visible;enable-background:new    ;" width="5625" height="1575" xlink:href="jackson-national-life.png"  transform="matrix(5.111780e-02 0 0 5.111780e-02 632.3179 530.0735)">
</image>
<rect x="1.4" y="2485.2" class="st10" width="960" height="42.5"/>
<text transform="matrix(1 0 0 1 91.5832 2512.6104)" class="st14 st6 st12">Subscribe to our monthly corporate newsletter list</text>
<rect x="24.2" y="2541.2" class="st10" width="119.2" height="20.9"/>
<text transform="matrix(1 0 0 1 24.1493 2554.8677)" class="st14 st6 st7">Email Address</text>
<rect x="24.2" y="2567" class="st17" width="361.1" height="36"/>
<rect x="809.4" y="2541.2" class="st10" width="119.2" height="20.9"/>
<rect x="24.2" y="2616.4" class="st10" width="96.2" height="20.9"/>
<rect x="839.5" y="2616.4" class="st10" width="91.9" height="20.9"/>
<text transform="matrix(1 0 0 1 797.5137 2548.4431)" class="st14 st6 st7">Company Name</text>
<rect x="561.6" y="2564" class="st17" width="361.1" height="36"/>
<polygon class="st14" points="378.4,2596.6 370.6,2592.7 362.9,2597 364.2,2588.3 357.8,2582.4 366.4,2580.9 370.1,2573 
	374.1,2580.7 382.8,2581.8 376.7,2588 "/>
<polygon class="st14" points="918.3,2593.5 910.5,2589.7 902.9,2593.9 904.1,2585.3 897.7,2579.4 906.3,2577.9 910,2570 914,2577.7 
	922.7,2578.7 916.6,2585 "/>
<g>
	<rect x="645.7" y="2614.9" class="st14" width="113.2" height="37.4"/>
	<rect x="642.7" y="2623.8" class="st10" width="119.2" height="20.9"/>
	<text transform="matrix(1 0 0 1 664.1112 2637.4731)" class="st1 st6 st7">Subscribe</text>
</g>
<polygon class="st14" points="113.8,2638.5 106,2634.6 98.3,2638.9 99.6,2630.2 93.2,2624.3 101.8,2622.8 105.5,2614.9 
	109.5,2622.6 118.2,2623.6 112.1,2629.9 "/>
<text transform="matrix(1 0 0 1 120.3566 2633.6304)" class="st14 st6 st7">Indicates a required field</text>
<text transform="matrix(1 0 0 1 234.5882 130.0352)" class="st4 st6 st8">Home</text>
</svg>
