<?xml version="1.0" encoding="utf-8"?>
<!-- Generator: Adobe Illustrator 20.0.0, SVG Export Plug-In . SVG Version: 6.00 Build 0)  -->
<svg version="1.1" id="Layer_1" xmlns="http://www.w3.org/2000/svg" xmlns:xlink="http://www.w3.org/1999/xlink" x="0px" y="0px"
	 viewBox="0 0 960 1912" style="enable-background:new 0 0 960 1912;" xml:space="preserve">
<style type="text/css">
	.st0{fill:#FFFFFF;}
	.st1{fill:#CCCCCC;}
	.st2{fill:#006A3F;}
	.st3{fill:#999999;}
	.st4{font-family:'Tahoma';}
	.st5{font-size:18px;}
	.st6{font-size:16px;}
	.st7{font-size:26px;}
	.st8{fill:#909AB7;}
	.st9{fill:#FEEA06;}
	.st10{fill:#3B54A5;}
	.st11{fill:#F37221;}
	.st12{fill:#196533;}
	.st13{fill:none;}
	.st14{font-family:'Tahoma-Bold';}
	.st15{font-size:21px;}
	.st16{font-size:36px;}
	.st17{fill:#0F2030;}
	.st18{font-size:24px;}
	.st19{fill:#2C75BB;}
	.st20{fill:#FFFFFF;stroke:#000000;stroke-width:0.5;stroke-miterlimit:10;}
	.st21{fill:#FFFFFF;stroke:#000000;stroke-miterlimit:10;}
	.st22{fill:#4D4D4D;}
	.st23{opacity:0.6;fill:#006A3F;enable-background:new    ;}
	.st24{font-size:88px;}
</style>
<image style="overflow:visible;enable-background:new    ;" width="640" height="427" xlink:href="../../EBF5E9DE.jpeg"  transform="matrix(1.5 0 0 1.296 0 0.999)">
</image>
<g>
	
		<image style="overflow:visible;enable-background:new    ;" width="990" height="170" xlink:href="../../EBF5E9E6.png"  transform="matrix(1 0 0 1 -10 -9)">
	</image>
	<g>
		<rect y="1" class="st0" width="960" height="140"/>
	</g>
</g>
<g>
	<path class="st1" d="M108.9,64.8l2.2-1.7c0,0,2.7,3.4,4.5,5c0,0-2.2,1.8-2.9,2.3C112.7,70.5,110.9,67.2,108.9,64.8z"/>
	<path class="st1" d="M84.5,64.8l-2.2-1.7c0,0-2.7,3.4-4.5,5c0,0,2.2,1.8,2.9,2.3C80.6,70.5,82.4,67.2,84.5,64.8z"/>
	<path class="st1" d="M84.5,46.3L82.2,48c0,0-2.7-3.4-4.5-5c0,0,2.2-1.8,2.9-2.3C80.6,40.7,82.4,44,84.5,46.3z"/>
	<path class="st1" d="M108.7,46.3l2.2,1.7c0,0,2.7-3.4,4.5-5c0,0-2.2-1.8-2.9-2.3C112.5,40.7,110.7,44,108.7,46.3z"/>
	<path class="st1" d="M135,66.7c0,0-23.8-1.7-27.2,17.3h-0.3c0,0,1.5-18.4,27.5-17.6V66.7z"/>
	<path class="st1" d="M59,44.5c0,0,23.1,2.5,26.5-17.5h0.3c0,0,0.2,18.6-26.8,17.8C59,44.8,59,44.5,59,44.5z"/>
	<path class="st1" d="M59,67.1c0,0,22.7-2.1,26,16.9h0.3c0,0-1.3-18-26.3-17.2C59,66.8,59,67.1,59,67.1z"/>
	<path class="st1" d="M135,44.3c0,0-23.7,2.7-27.1-17.3h-0.3c0,0,1.4,18.4,27.4,17.6V44.3z"/>
	<rect x="97" y="18" class="st1" width="0" height="76.3"/>
	<polygon class="st1" points="111.5,56 144.5,56 144.5,56 	"/>
	<polygon class="st1" points="50,56 81.9,56 81.9,56 	"/>
	<ellipse class="st1" cx="89.2" cy="55.5" rx="7.9" ry="7.9"/>
	<ellipse class="st1" cx="104.2" cy="55.3" rx="7.9" ry="7.9"/>
	<path class="st2" d="M96.4,26.7c0,7.5,0,14.9,0,22.3c-0.3,0.1-0.7,0-1-0.1c-1.1-0.3-2-0.8-2.8-1.6c-1.3-1.2-2.3-2.6-3.1-4.2
		c-1.5-2.8-2.4-5.7-3-8.8c-0.5-2.1-0.8-4.3-0.9-6.4c0-0.3,0-0.6,0-0.8c0-0.3,0.1-0.4,0.4-0.4s0.6,0,0.9,0c3.1,0,6.1,0,9.2,0
		C96.1,26.7,96.2,26.7,96.4,26.7z"/>
	<path class="st2" d="M96.3,62.3c0,7.3,0,14.6,0,21.9c-3.7,0-7.4,0-11.1,0c0-0.1,0-0.1,0-0.1c0-0.1,0.1-0.1,0.1-0.2
		c0.1,0,0.2,0,0.2,0c0-0.1,0.1-0.1,0.1-0.1c0.1-0.9,0.1-1.8,0.2-2.7c0.5-4.2,1.4-8.3,3.2-12.2c0.7-1.5,1.6-2.9,2.7-4.2
		c0.8-0.9,1.7-1.6,2.8-2.1C95.2,62.4,95.9,62.3,96.3,62.3z"/>
	<path class="st2" d="M58.7,66.8c0-3.6,0-7.2,0-10.8c7.4,0,14.8,0,22.3,0c0,0.4,0,0.7-0.1,1c-0.3,1.1-0.8,2-1.6,2.8
		c-1.2,1.3-2.6,2.2-4.2,3c-2.3,1.2-4.8,2-7.4,2.6c-2.1,0.5-4.2,0.9-6.4,1.1C60.5,66.6,59.6,66.7,58.7,66.8z"/>
	<path class="st2" d="M134.7,44.5c0,3.6,0,7.1,0,10.8c-0.2,0-0.3,0-0.5,0c-2.3,0-4.7,0-7,0c-4.7,0-9.5,0-14.2,0c-0.2,0-0.3,0-0.5,0
		c0-0.5,0.1-1,0.2-1.4c0.3-1,0.9-1.8,1.6-2.5c1.2-1.3,2.7-2.3,4.3-3.1c2.3-1.2,4.8-2,7.3-2.6c1.5-0.4,3.1-0.6,4.7-0.9
		c0.2,0,0.5,0,0.7,0c0.9-0.1,1.9-0.1,2.8-0.2C134.4,44.5,134.5,44.5,134.7,44.5z"/>
	<path class="st2" d="M97.1,26.7c3.5,0,7,0,10.4,0c0.1,0.4,0.2,0.8,0.3,1.2c-0.1-0.1-0.2-0.1-0.3-0.2c0,0.1,0,0.2,0,0.3
		c-0.3,4.1-1.1,8-2.5,11.9c-0.8,2.1-1.7,4.1-3.1,5.9c-0.7,0.9-1.5,1.8-2.5,2.4c-0.7,0.4-1.5,0.7-2.3,0.8C97,48.6,97,27.3,97.1,26.7z
		"/>
	<path class="st2" d="M112.6,56c7.4,0,14.7,0,22.1,0c0.1,0.3,0.1,10.4,0,10.8c-0.1-0.1-0.2-0.3-0.3-0.4s-0.3-0.1-0.5-0.1
		c-4.6-0.3-9.1-1.1-13.3-2.9c-1.6-0.6-3.1-1.4-4.5-2.4c-1.1-0.8-2.1-1.8-2.8-3c-0.3-0.5-0.5-1.1-0.6-1.7
		C112.6,56.3,112.6,56.2,112.6,56z"/>
	<path class="st2" d="M80.9,55.3c-7.4,0-14.8,0-22.2,0c-0.1-0.3-0.1-9.2-0.1-10.7c0.2,0,0.3-0.1,0.5-0.2c0.1,0.1,0.1,0.2,0.2,0.2
		c-0.1,0.1-0.3,0.1-0.5,0.2c0.1,0.1,0.2,0.1,0.3,0.1c1.2,0.1,2.5,0.2,3.7,0.4c4.1,0.5,8,1.5,11.7,3.3c1.6,0.8,3.2,1.8,4.4,3.1
		c0.9,0.9,1.5,1.9,1.8,3.1C80.9,54.9,80.9,55.1,80.9,55.3z"/>
	<path class="st2" d="M107.4,83.9c-0.2,0-0.4,0-0.5,0.1l0,0c0.3,0,0.6,0,0.9-0.1c-0.1,0.3-0.2,0.4-0.4,0.4c-2.4,0-4.8,0-7.3,0
		c-0.9,0-1.7,0-2.6,0c-0.2,0-0.3,0-0.5,0c0-0.2,0-0.5,0-0.7c0-2.2,0-4.3,0-6.5c0-4.8,0-9.5,0-14.3c0-0.2,0-0.3,0-0.5
		c0.8,0.1,1.5,0.4,2.2,0.8c1.1,0.6,1.9,1.5,2.6,2.4c1.1,1.5,2,3.1,2.7,4.8c1,2.5,1.7,5.1,2.2,7.7c0.3,1.6,0.5,3.3,0.6,4.9
		C107.4,83.3,107.4,83.6,107.4,83.9z"/>
	<path class="st2" d="M102.8,50.8c-0.1,0.1-0.2,0.2-0.4,0.2c-0.3,0-0.5,0.2-0.6,0.5c-0.1,0.2-0.3,0.3-0.4,0.5
		c-0.4,0.4-0.7,0.8-0.7,1.3c0,0.1,0,0.2-0.1,0.4c-0.2,0.6,0,1.1,0.3,1.6c0.3,0.4,0.8,0.5,1.2,0.2c0.1-0.1,0.2-0.1,0.3-0.2
		c0.2-0.1,0.4-0.1,0.5,0.1c0.1,0.1,0.2,0.2,0.3,0.2c0.2,0,0.2,0.1,0.2,0.3V56c-0.1,0.5,0.1,0.9,0.3,1.3c0.2,0.3,0.3,0.8,0.1,1.2
		c-0.1,0.4-0.1,0.7,0.1,1.1c0.2,0.3,0.3,0.7,0.3,1.1c0,0.1,0.1,0.3,0.2,0.4c0.1,0.2,0.2,0.3,0.3,0.5c0.2,0,0.5,0,0.8-0.1
		s0.4-0.3,0.5-0.5s0.1-0.3,0.2-0.5c0.1-0.1,0.3-0.2,0.3-0.4c0.1-0.2,0-0.4,0.1-0.5c0.1-0.2,0.3-0.4,0.5-0.5c0.3-0.2,0.3-0.4,0.3-0.7
		c-0.1-0.3-0.1-0.7-0.1-1c0-0.5,0.3-0.9,0.6-1.2c0.5-0.4,0.7-1,0.7-1.6c-0.2-0.1-0.4-0.1-0.5,0s-0.3,0.1-0.4-0.1
		c-0.1-0.3-0.4-0.5-0.6-0.8c-0.2-0.4-0.4-0.8-0.6-1.2c-0.1-0.1-0.1-0.3-0.2-0.4c0-0.1,0-0.1-0.1-0.3c0.3,0.2,0.5,0.4,0.6,0.7
		c0,0.1,0.1,0.2,0.1,0.3c0.3,0.4,0.5,0.8,0.6,1.3c0,0,0,0.1,0.1,0.1s0.2,0,0.3-0.1c0.3-0.2,0.6-0.4,0.8-0.6c0.4-0.3,0.4-0.6,0.1-1.1
		c0.2,0,0.3,0,0.5,0c-0.1-0.2-0.3-0.2-0.4-0.3s-0.2-0.3-0.2-0.4c0.4,0.3,0.9,0.4,1.1,0.8c0.6,0.4,0.7,1.1,0.9,1.8
		c0,0.2,0.1,0.4,0.2,0.7c0.2-0.4,0.1-0.7,0.1-1s0-0.6,0-0.9h0.1c0,0.1,0.1,0.2,0.1,0.3c0.6,2.6,0,4.9-1.7,6.8
		c-1.2,1.4-2.8,2.2-4.7,2.4c-2,0.2-3.8-0.2-5.5-1.4l0,0c-0.2-0.2-0.4-0.4-0.6-0.5c-0.2-0.2-0.4-0.4-0.6-0.6s-0.4-0.5-0.5-0.7
		c-0.2-0.3-0.3-0.5-0.4-0.8s-0.2-0.5-0.3-0.8c-0.1-0.2-0.1-0.3-0.1-0.5c0-1.3,0-2.6,0-3.9c0-0.2,0-0.4,0.1-0.5
		c0.9-2.8,3.7-4.9,6.7-5.1c0.1,0,0.1,0,0.2,0c-0.5,0.3-1.1,0.3-1.5,0.7c0.2,0.1,0.4,0,0.6-0.1s0.4-0.2,0.6-0.3
		c0.4-0.2,0.8-0.2,1.2-0.1c-0.2,0.1-0.4,0.1-0.5,0.2c-0.1,0.1-0.4,0.1-0.3,0.4c-0.2,0.2-0.3,0.3-0.5,0.5c-0.4-0.3-0.7-0.3-1.1,0.2
		c0.1,0,0.2,0,0.3,0c0,0.1,0,0.2,0.1,0.3c0,0.2,0,0.3-0.2,0.3c-0.3,0-0.4,0.3-0.6,0.5c-0.1,0.2-0.1,0.4,0.2,0.4
		C102.6,50.8,102.7,50.8,102.8,50.8L102.8,50.8z M98.4,55.6c-0.3,0.6-0.1,3.5,0.8,4.7c0-0.4,0.1-0.8,0-1.1c-0.1-0.5-0.1-1-0.2-1.5
		c0-0.2-0.1-0.5-0.2-0.7c-0.3-0.3-0.5-0.7-0.4-1.2C98.4,55.8,98.4,55.7,98.4,55.6z M107.8,60.3c0.2,0.1,0.4,0,0.4-0.2
		c0.1-0.4,0.2-0.9,0.5-1.3c0.1-0.1,0-0.2,0-0.4c-0.2,0.2-0.3,0.3-0.5,0.4c-0.2,0.1-0.2,0.2-0.2,0.4c0,0.1,0,0.3-0.1,0.4
		C107.7,59.9,107.7,60.1,107.8,60.3z"/>
	<path class="st2" d="M87.2,62.8c0.6,0,1.1,0,1.7,0c0.3,0,0.6-0.1,0.8-0.4c0.1-0.1,0.2-0.2,0.4-0.2c0.4-0.2,0.8-0.3,1.1-0.7l0.1-0.1
		c0.7-0.1,1.1-0.6,1.4-1.1c0.1-0.1,0.2-0.3,0.4-0.4c0.2-0.2,0.2-0.3,0.2-0.6c-0.1-0.2-0.2-0.4-0.4-0.4c-0.1,0-0.2,0-0.2,0
		c-0.5,0-0.8-0.2-1.2-0.4c-0.1-0.1-0.2-0.3-0.2-0.5c-0.3,0-0.5,0-0.8,0c-0.1,0-0.3-0.1-0.3-0.2c-0.2-0.4-0.6-0.5-1-0.5
		c-0.2,0-0.5,0-0.7-0.2c-0.1-0.1-0.3-0.1-0.5,0s-0.4,0.2-0.6,0.3c-0.2,0-0.4,0-0.6,0c-0.3,0-0.4,0-0.4-0.3c0-0.1,0-0.2,0-0.2
		c0-0.5,0-0.5-0.5-0.7c0.1-0.2,0.2-0.4,0.3-0.7c-0.3,0-0.5-0.2-0.7,0.2c-0.1,0.2-0.5,0.1-0.6-0.2c-0.1-0.2-0.1-0.4-0.1-0.6
		c0-0.2,0.1-0.4,0.2-0.6c0.1-0.2,0.3-0.2,0.5-0.2s0.4,0.1,0.6,0s0.8,0.2,0.8,0.5c0,0.1,0,0.2,0.1,0.3c0.2-0.2,0.2-0.3,0.2-0.5
		c0-0.3,0.1-0.6,0.4-0.6c0.2-0.1,0.4-0.2,0.4-0.4c0-0.5,0.3-0.6,0.7-0.6c0.1-0.3,0.2-0.4,0.5-0.4c0.1,0,0.3-0.1,0.4-0.1
		c-0.1-0.1-0.3-0.2-0.5-0.4c0,0-0.1,0-0.2,0c0.3-0.3,0.7-0.2,1-0.2C90,51.8,90,52,90.1,52c0.1,0.1,0.3,0,0.5,0
		c-0.1-0.1-0.1-0.2-0.2-0.3c-0.2-0.1-0.3-0.2-0.3-0.4v-0.1c-0.4-0.3-0.8-0.7-1.4-0.7c-0.1,0-0.2,0-0.2,0.2s-0.1,0.3-0.3,0.4
		c-0.1,0.1-0.2,0.2-0.3,0.4c-0.1-0.1-0.2-0.2-0.2-0.3c-0.1-0.2-0.3-0.4-0.5-0.5c-0.3-0.1-0.3-0.4-0.1-0.6c0.1-0.1,0.3-0.1,0.4-0.2
		c0.1-0.1,0.3-0.1,0.3-0.3c-0.4-0.2-0.6-0.2-1,0c-0.1,0-0.2-0.1-0.2-0.1c-0.1-0.3-0.3-0.5-0.5-0.7c-0.1-0.1-0.1-0.3,0.1-0.4
		c0.3-0.1,0.7-0.2,1-0.3c0,0.2-0.1,0.3-0.2,0.3s-0.1,0-0.2,0s-0.3,0-0.3,0.2c0,0.1,0.1,0.3,0.3,0.3c0.1,0,0.3,0,0.4,0
		c0.3,0,0.6,0.1,0.7,0.4c0,0,0,0.1,0.1,0.1c0.2,0.4,0.3,0.4,0.7,0.3h0.1c0.1,0.1,0.2,0.2,0.2,0.3c0.2,0.2,0.3,0.1,0.4-0.1
		c0-0.1,0.1-0.2,0.1-0.3c0,0,0.1,0,0.1-0.1c0.4,0.2,0.6,0.7,1.1,0.8c0-0.3,0-0.6,0.2-0.8c0.1-0.1,0.1-0.2,0-0.3
		c-0.1-0.2,0-0.6-0.3-0.7v-0.1l0.1-0.1c0.3,0,0.7-0.1,1,0c0.1,0.1,0.2,0.1,0.4,0.2c0.6,0.3,1.1,0.5,1.4,1.2c0,0-0.1,0.1-0.1,0.3
		c-0.2,0-0.3,0-0.5,0c0.1,0.2,0.1,0.4,0.2,0.6c0.1-0.1,0.1-0.1,0.2-0.1c0.1,0.1,0.2,0.1,0.3,0.2c0,0,0,0,0.1,0
		c-0.1-0.1-0.1-0.3-0.2-0.5c0.1,0,0.2,0.1,0.2,0.1c0.1,0.2,0.1,0.3,0.2,0.5c0,0.1,0.1,0.2,0.2,0.2c0.2,0,0.3,0.2,0.2,0.4
		c-0.1,0.5,0.1,0.8,0.5,1.1c0.1,0.1,0.1,0.2,0.1,0.3c0,0.2,0.1,0.3,0.1,0.5c0,0.1,0,0.2,0,0.2c-0.2,0.6-0.2,1.1,0.1,1.7
		c0,0.1,0,0.2,0.1,0.4c0,0.2,0.1,0.4,0.1,0.6c0.1,0.4,0.3,0.5,0.8,0.3c0,0.6,0.1,1.2-0.2,1.8c-1.2,2.8-3.9,4.6-6.9,4.6
		c-0.5,0-1.1-0.1-1.6-0.2C87.5,62.9,87.4,62.8,87.2,62.8L87.2,62.8z M92.5,49.2c0.3,0.4,0.4,0.5,0.7,0.6
		C93.1,49.4,92.9,49.2,92.5,49.2z"/>
	<path class="st2" d="M87.3,62.8c-0.2,0-0.4,0-0.6-0.1c-2.8-1.1-4.5-3.1-4.9-6.1c-0.4-2.8,0.6-5.1,2.8-6.9c0.1-0.1,0.2-0.2,0.3-0.2
		c0.1,0.2,0,0.3,0,0.5c-0.1,0.2-0.2,0.3-0.3,0.4c-0.2,0.4-0.5,0.8-0.8,1.2c-0.4,0.5-0.4,1.1-0.4,1.7c0,0.2,0,0.4,0,0.6
		c0-0.1,0-0.2,0.1-0.3h0.1c0.1,0.3,0.2,0.7,0.3,1c0,0.1,0,0.1,0,0.2c0,0.6,0.4,0.9,0.8,1.2c0.3,0.2,0.7,0.3,0.9,0.6
		c0.4,0,0.5,0.3,0.6,0.6s0.4,0.4,0.7,0.4c0.3,0,0.4,0,0.4,0.4c0,0.2-0.1,0.4-0.3,0.5c-0.1,0.2-0.3,0.3-0.2,0.5
		c0,0.1-0.1,0.2-0.1,0.2c0.3,0.4,0.5,0.8,0.8,1.2c0.2,0.3,0.5,0.3,0.8,0.4C88.3,61.6,88,62.2,87.3,62.8L87.3,62.8z"/>
	<path class="st2" d="M102.8,50.8c0-0.2,0.1-0.3,0.3-0.5c0.1-0.1,0.2-0.2,0.4-0.3c0.2-0.1,0.6-0.2,0.7,0c0.1,0.1,0.2,0.2,0.1,0.3
		s-0.2,0.1-0.4,0c0,0-0.1,0-0.1-0.1c-0.1,0.2,0,0.3,0.1,0.4c0.1,0.1,0.3,0.2,0.5,0.1c0.2-0.1,0.4-0.3,0.4-0.6
		c-0.2-0.1-0.5-0.1-0.5-0.4c0.5,0,0.5,0.1,0.6,0.4c0,0.2,0.1,0.4,0.4,0.5c0.1-0.1,0.2-0.2,0.2-0.4c0,0.1,0.1,0.1,0.1,0.2
		c0.1,0.2,0.3,0.3,0.5,0.3c0.1,0,0.2,0,0.3,0c0.1,0,0.2,0.1,0.3,0.2c0.1,0.1,0,0.3-0.2,0.4c-0.2,0.1-0.4,0.1-0.6,0.1s-0.3,0-0.5-0.1
		c-0.2,0-0.4-0.2-0.6,0.1c0,0-0.2,0-0.3,0c-0.2-0.1-0.3-0.2-0.6-0.3c0,0,0,0,0-0.1c-0.1-0.3-0.1-0.3-0.4-0.3
		C103.3,50.8,103.1,50.8,102.8,50.8L102.8,50.8z"/>
	<path class="st2" d="M95.1,51.3c0.4,0.2,0.7,0.6,0.8,1c-0.3,0.2-0.2-0.1-0.4-0.2c-0.1,0.1-0.1,0.3-0.2,0.4
		c-0.2-0.2-0.3-0.4-0.5-0.7c0-0.1,0-0.2,0-0.3C95,51.4,95.1,51.4,95.1,51.3z"/>
</g>
<text transform="matrix(1 0 0 1 157.1699 45.7432)" class="st3 st4 st5">SHPE | Michigan State University</text>
<text transform="matrix(1 0 0 1 157.1699 70.4219)" class="st3 st4 st5">Society of Hispanic Professional Engineers</text>
<text transform="matrix(1 0 0 1 324.1148 130.0117)" class="st3 st4 st6">About Us</text>
<text transform="matrix(1.0726 0 0 1 444.7412 129.9883)" class="st3 st4 st6">MemberSHPE</text>
<text transform="matrix(1.0192 0 0 1 591.4658 130.0117)" class="st3 st4 st6">SponsorSHPE</text>
<text transform="matrix(1 0 0 1 736.5077 130.0117)" class="st3 st4 st6">Contact</text>
<text transform="matrix(1 0 0 1 546.291 1281.5)" class="st0 st4 st7">PICTURE OF FLYER</text>
<g>
	
		<image style="overflow:visible;enable-background:new    ;" width="990" height="633" xlink:href="../../EBF5E9E3.png"  transform="matrix(1 0 0 1.5055 -20 420)">
	</image>
	<g>
		<rect y="450.1" class="st8" width="960" height="907.8"/>
	</g>
</g>
<g id="Layer_2">
</g>
<rect x="29.3" y="469" class="st9" width="280.2" height="280.2"/>
<rect x="342.5" y="469" class="st10" width="280.2" height="280.2"/>
<rect x="653.5" y="469" class="st11" width="280.2" height="280.2"/>
<circle class="st12" cx="469.6" cy="780.3" r="7.1"/>
<circle class="st12" cx="500.4" cy="780.3" r="7.1"/>
<rect x="29.3" y="593.1" class="st13" width="280.2" height="32"/>
<text transform="matrix(1 0 0 1 32.2891 609.0767)" class="st0 st14 st15">LeaderSHPE Development</text>
<rect x="340" y="593.1" class="st13" width="282" height="32"/>
<text transform="matrix(1 0 0 1 425.0239 609.0767)" class="st0 st14 st15">Academics</text>
<rect x="653.5" y="593.1" class="st13" width="278.6" height="32"/>
<text transform="matrix(1 0 0 1 654.8054 609.0767)" class="st0 st14 st15">Professional Development</text>
<image style="overflow:visible;enable-background:new    ;" width="400" height="300" xlink:href="Book_Logo.png"  transform="matrix(0.575 0 0 0.575 367.5956 446.8708)">
</image>
<g>
	<rect x="29.3" y="635.6" class="st13" width="280.2" height="66.9"/>
	<text transform="matrix(1 0 0 1 41.6738 649.2445)" class="st0 st4 st5">We allow our members to attain </text>
	<text transform="matrix(1 0 0 1 46.7738 670.8445)" class="st0 st4 st5">beneficial positions and be in a </text>
	<text transform="matrix(1 0 0 1 83.5738 692.4445)" class="st0 st4 st5">variety of committees</text>
	<rect x="29.3" y="635.6" class="st13" width="280.2" height="66.9"/>
	<text transform="matrix(1 0 0 1 41.6738 649.2445)" class="st0 st4 st5">We allow our members to attain </text>
	<text transform="matrix(1 0 0 1 46.7738 670.8445)" class="st0 st4 st5">beneficial positions and be in a </text>
	<text transform="matrix(1 0 0 1 83.5738 692.4445)" class="st0 st4 st5">variety of committees</text>
</g>
<g>
	<rect x="340.9" y="635.6" class="st13" width="280.2" height="66.9"/>
	<text transform="matrix(1 0 0 1 353.2639 649.2445)" class="st0 st4 st5">We allow our members to attain </text>
	<text transform="matrix(1 0 0 1 358.3639 670.8445)" class="st0 st4 st5">beneficial positions and be in a </text>
	<text transform="matrix(1 0 0 1 395.1639 692.4445)" class="st0 st4 st5">variety of committees</text>
	<rect x="340.9" y="635.6" class="st13" width="280.2" height="66.9"/>
	<text transform="matrix(1 0 0 1 353.2639 649.2445)" class="st0 st4 st5">We allow our members to attain </text>
	<text transform="matrix(1 0 0 1 358.3639 670.8445)" class="st0 st4 st5">beneficial positions and be in a </text>
	<text transform="matrix(1 0 0 1 395.1639 692.4445)" class="st0 st4 st5">variety of committees</text>
</g>
<g>
	<rect x="652.7" y="635.6" class="st13" width="280.2" height="66.9"/>
	<text transform="matrix(1 0 0 1 662.3079 649.244)" class="st0 st4 st5">We host multiple workshops that </text>
	<text transform="matrix(1 0 0 1 653.6079 670.844)" class="st0 st4 st5">allow our members to grow as well </text>
	<text transform="matrix(1 0 0 1 677.7079 692.444)" class="st0 st4 st5">as attend career conferences</text>
	<rect x="652.7" y="635.6" class="st13" width="280.2" height="66.9"/>
	<text transform="matrix(1 0 0 1 662.3079 649.244)" class="st0 st4 st5">We host multiple workshops that </text>
	<text transform="matrix(1 0 0 1 653.6079 670.844)" class="st0 st4 st5">allow our members to grow as well </text>
	<text transform="matrix(1 0 0 1 677.7079 692.444)" class="st0 st4 st5">as attend career conferences</text>
</g>
<rect x="317" y="860.5" class="st13" width="352.6" height="42.5"/>
<text transform="matrix(1 0 0 1 317.6393 887.8599)" class="st0 st4 st16">MemberSHPE Benefits</text>
<rect x="29.3" y="930" class="st13" width="390.7" height="439"/>
<text transform="matrix(1 0 0 1 29.293 943.6797)" class="st0 st4 st5">1.) Complimentary subscription to the SHPE </text>
<text transform="matrix(1 0 0 1 29.293 965.2797)" class="st0 st4 st5">Magazine and the Hispanic Business Magazine</text>
<text transform="matrix(1 0 0 1 29.293 986.8797)" class="st0 st4 st5">2.) More than $2 million in scholarship offerings</text>
<text transform="matrix(1 0 0 1 29.293 1008.4797)" class="st0 st4 st5">3.) Become part of the SHPE Familia and find </text>
<text transform="matrix(1 0 0 1 29.293 1030.0797)" class="st0 st4 st5">support wherever you go with over 250 chapters </text>
<text transform="matrix(1 0 0 1 29.293 1051.6797)" class="st0 st4 st5">and 10,000 members across the nation</text>
<text transform="matrix(1 0 0 1 29.293 1073.2797)" class="st0 st4 st5">4.) Competition opportunities to test and refine </text>
<text transform="matrix(1 0 0 1 29.293 1094.8796)" class="st0 st4 st5">your academic and technical talent</text>
<text transform="matrix(1 0 0 1 29.293 1116.4797)" class="st0 st4 st5">5.) Leadership training and career and profes</text>
<text transform="matrix(1 0 0 1 389.293 1116.4797)" class="st0 st4 st5">-</text>
<text transform="matrix(1 0 0 1 29.293 1138.0797)" class="st0 st4 st5">sional development</text>
<text transform="matrix(1 0 0 1 29.293 1159.6797)" class="st0 st4 st5">6.) Networking opportunities</text>
<text transform="matrix(1 0 0 1 29.293 1181.2797)" class="st0 st4 st5">7.) SHPE National Conference</text>
<text transform="matrix(1 0 0 1 29.293 1202.8796)" class="st0 st4 st5">8.) SHPE covers costs to qualifying members</text>
<text transform="matrix(1 0 0 1 29.293 1224.4797)" class="st0 st4 st5">9.) National Institute for Leadership Advance</text>
<text transform="matrix(1 0 0 1 385.893 1224.4797)" class="st0 st4 st5">-</text>
<text transform="matrix(1 0 0 1 29.293 1246.0797)" class="st0 st4 st5">ment (NILA)</text>
<text transform="matrix(1 0 0 1 29.293 1267.6797)" class="st0 st4 st5">10.) Regional Leadership Development Confer</text>
<text transform="matrix(1 0 0 1 394.693 1267.6797)" class="st0 st4 st5">-</text>
<text transform="matrix(1 0 0 1 29.293 1289.2797)" class="st0 st4 st5">ences (RLDC)</text>
<g>
	
		<image style="overflow:visible;enable-background:new    ;" width="990" height="458" xlink:href="../../EBF5E9E2.png"  transform="matrix(1 0 0 0.8352 -10 1897.4836)">
	</image>
	<g>
		<rect y="1905.8" class="st0" width="960" height="357.5"/>
	</g>
</g>
<rect x="302.5" y="1394.3" class="st13" width="368.8" height="42.5"/>
<text transform="matrix(1 0 0 1 302.9826 1421.6099)" class="st17 st4 st16">How to join the Familia</text>
<rect x="113.3" y="1447.3" class="st13" width="74.7" height="26.5"/>
<text transform="matrix(1 0 0 1 113.3162 1465.4897)" class="st17 st14 st18">Local</text>
<rect x="22.8" y="1478.8" class="st13" width="390.7" height="90"/>
<text transform="matrix(1 0 0 1 22.793 1492.4297)" class="st17 st4 st5">1.) No Fee, it’s Free</text>
<text transform="matrix(1 0 0 1 22.793 1514.0297)" class="st17 st4 st5">2.) Join our GroupMe</text>
<text transform="matrix(1 0 0 1 22.793 1535.6296)" class="st17 st4 st5">3.) Join our weekly newsletter</text>
<text transform="matrix(1 0 0 1 22.793 1557.2297)" class="st17 st4 st5">4.) Attend our weekly Wednesday meetings</text>
<rect x="637.8" y="1447.3" class="st13" width="110.5" height="26.5"/>
<text transform="matrix(1 0 0 1 637.7775 1465.4897)" class="st17 st14 st18">National</text>
<rect x="536.5" y="1478.8" class="st13" width="390.7" height="222.3"/>
<text transform="matrix(1 0 0 1 536.4998 1492.4297)" class="st17 st4 st5">1.) Log onto </text>
<text transform="matrix(1 0 0 1 639.7998 1492.4297)" class="st19 st4 st5">http://www.national.shpe.org</text>
<text transform="matrix(1 0 0 1 536.4998 1514.0297)" class="st17 st4 st5">2.) Click on the &quot;Membership&quot; tab</text>
<text transform="matrix(1 0 0 1 536.4998 1535.6296)" class="st17 st4 st5">3.) Select the &quot;Join Now&quot; button</text>
<text transform="matrix(1 0 0 1 536.4998 1557.2297)" class="st17 st4 st5">4.) Apply membership as a Student</text>
<text transform="matrix(1 0 0 1 536.4998 1578.8297)" class="st17 st4 st5">5.) On the national map, choose Region 6 and </text>
<text transform="matrix(1 0 0 1 536.4998 1600.4297)" class="st17 st4 st5">select &quot;SHPE - Michigan State University&quot;</text>
<text transform="matrix(1 0 0 1 536.4998 1622.0297)" class="st17 st4 st5">6.) Fill out membership application and pay the </text>
<text transform="matrix(1 0 0 1 536.4998 1643.6296)" class="st17 st4 st5">annual $10 membership fee</text>
<text transform="matrix(1 0 0 1 536.4998 1665.2297)" class="st17 st4 st5">7.) Congrats. You&apos;re a member!</text>
<rect x="263.5" y="1726.3" class="st13" width="446.6" height="42.5"/>
<text transform="matrix(1 0 0 1 265.2425 1753.6099)" class="st17 st4 st16">MemberSHPE Requirements</text>
<rect x="22.8" y="1773.9" class="st13" width="904.4" height="151"/>
<text transform="matrix(1 0 0 1 22.793 1787.5547)" class="st17 st4 st5">1.) Willing to support the diversity in the workplace </text>
<text transform="matrix(1 0 0 1 22.793 1809.1547)" class="st17 st4 st5">2.) Major is in Science, Technology, Engineering, or Mathematics</text>
<text transform="matrix(1 0 0 1 22.793 1830.7546)" class="st17 st4 st5">3.) Motivated in helping fellow students succeed in the STEM fields</text>
<text transform="matrix(1 0 0 1 22.793 1852.3547)" class="st17 st4 st5">4.) Dedicated in impacting the community, self, others and regularly attends meetings</text>
<image style="overflow:visible;enable-background:new    ;" width="960" height="685" xlink:href="SHPE_Convention.jpg"  transform="matrix(0.5241 0 0 0.5241 430.5827 930)">
</image>
<image style="overflow:visible;enable-background:new    ;" width="780" height="780" xlink:href="huddle-icon.png"  transform="matrix(0.12 0 0 0.12 110.3699 486.3167)">
</image>
<image style="overflow:visible;enable-background:new    ;" width="1667" height="1667" xlink:href="icon_corporate.png"  transform="matrix(6.300672e-02 0 0 6.300672e-02 741.074 480.6006)">
</image>
<rect x="22.8" y="1621.4" class="st13" width="423.2" height="52.1"/>
<text transform="matrix(1 0 0 1 22.793 1635.1172)" class="st17 st4 st5">** In order to be eligible for any official SHPE </text>
<text transform="matrix(1 0 0 1 22.793 1656.7172)" class="st17 st4 st5">events, you will need to pay the $10 National Fee **</text>
<rect y="1903.6" class="st13" width="960" height="42.5"/>
<text transform="matrix(1 0 0 1 46.2425 1930.9849)" class="st17 st4 st16">Subscribe to SHPE @ MSU’s GroupMe &amp; Newsletter list</text>
<rect x="22.8" y="1959.6" class="st13" width="119.2" height="20.9"/>
<text transform="matrix(1 0 0 1 22.7929 1973.2422)" class="st17 st4 st5">Email Address</text>
<rect x="22.8" y="1985.4" class="st20" width="361.1" height="36"/>
<rect x="566.1" y="1985.4" class="st20" width="361.1" height="36"/>
<rect x="808" y="1959.6" class="st13" width="119.2" height="20.9"/>
<text transform="matrix(1 0 0 1 807.9997 1973.2422)" class="st17 st4 st5">Phone Number</text>
<rect x="22.8" y="2034.8" class="st13" width="96.2" height="20.9"/>
<text transform="matrix(1 0 0 1 22.7929 2048.4702)" class="st17 st4 st5">First Name</text>
<rect x="22.8" y="2060.7" class="st20" width="361.1" height="36"/>
<rect x="838.1" y="2034.8" class="st13" width="91.9" height="20.9"/>
<text transform="matrix(1 0 0 1 838.0573 2048.4702)" class="st17 st4 st5">Last Name</text>
<rect x="566.1" y="2060.8" class="st20" width="361.1" height="36"/>
<polygon class="st17" points="377,2015 369.2,2011.1 361.5,2015.4 362.8,2006.7 356.4,2000.8 365,1999.3 368.7,1991.4 372.7,1999.1 
	381.4,2000.2 375.3,2006.4 "/>
<polygon class="st17" points="377,2086.5 369.2,2082.7 361.5,2086.9 362.8,2078.3 356.4,2072.4 365,2070.9 368.7,2062.9 
	372.7,2070.7 381.4,2071.7 375.3,2078 "/>
<polygon class="st17" points="922.8,2090.3 915,2086.5 907.4,2090.7 908.6,2082.1 902.2,2076.2 910.8,2074.7 914.5,2066.8 
	918.5,2074.5 927.2,2075.5 921.1,2081.8 "/>
<rect x="379.5" y="2113.3" class="st13" width="191" height="26.5"/>
<text transform="matrix(1 0 0 1 379.4813 2131.4897)" class="st17 st14 st18">Student Status</text>
<circle class="st21" cx="306.8" cy="2148.4" r="7.1"/>
<circle class="st21" cx="306.8" cy="2180.3" r="7.1"/>
<circle class="st21" cx="447.3" cy="2148.4" r="7.1"/>
<circle class="st21" cx="447.3" cy="2179.2" r="7.1"/>
<rect x="318.4" y="2142.9" class="st13" width="91.5" height="20.9"/>
<text transform="matrix(1 0 0 1 318.3867 2156.6216)" class="st17 st4 st5">Freshman</text>
<rect x="320.4" y="2172.1" class="st13" width="99.5" height="20.9"/>
<text transform="matrix(1 0 0 1 320.4496 2185.8071)" class="st17 st4 st5">Sophomore</text>
<rect x="457.4" y="2141.9" class="st13" width="59.9" height="20.9"/>
<text transform="matrix(1 0 0 1 457.4178 2155.5962)" class="st17 st4 st5">Junior</text>
<rect x="458.6" y="2172.1" class="st13" width="59.6" height="20.9"/>
<text transform="matrix(1 0 0 1 458.5514 2185.8071)" class="st17 st4 st5">Senior</text>
<rect x="549.8" y="2139.9" class="st13" width="91.5" height="20.9"/>
<text transform="matrix(1 0 0 1 549.8145 2153.5962)" class="st17 st4 st5">Graduate</text>
<rect x="548.8" y="2171.5" class="st13" width="101.5" height="20.9"/>
<text transform="matrix(1 0 0 1 548.8379 2185.1987)" class="st17 st4 st5">Professional</text>
<circle class="st21" cx="537.7" cy="2147.4" r="7.1"/>
<circle class="st21" cx="537.7" cy="2179.2" r="7.1"/>
<g>
	<rect x="690" y="2211.4" class="st17" width="113.2" height="37.4"/>
	<rect x="687" y="2220.3" class="st13" width="119.2" height="20.9"/>
	<text transform="matrix(1 0 0 1 708.4565 2233.9429)" class="st0 st4 st5">Subscribe</text>
</g>
<rect y="2257" class="st8" width="960" height="431"/>
<text transform="matrix(1 0 0 1 50 2499.9531)" class="st0 st4 st15">Join Now</text>
<text transform="matrix(1 0 0 1 50 2537.9531)" class="st0 st4 st15">Scholarships</text>
<text transform="matrix(1 0 0 1 50 2579.9531)" class="st0 st4 st15">Regional SHPE</text>
<text transform="matrix(1 0 0 1 329.1646 2497.9531)" class="st0 st4 st15">SHPE Foundation</text>
<text transform="matrix(1 0 0 1 330.2334 2537.9531)" class="st0 st4 st15">SHPE Detroit</text>
<text transform="matrix(1 0 0 1 50 2621.9531)" class="st0 st4 st15">National SHPE</text>
<path class="st22" d="M835.2,2622c0-5.2,0-10.4,0-15.7c1.4,0,2.9,0,4.4,0c0.2-1.8,0.5-3.6,0.7-5.4c-1.7,0-3.4,0-5.1,0
	c0-0.6,0-1.2,0-1.8c0-0.5,0-1,0-1.5c0-1,0.4-1.5,1.4-1.6c0.4,0,0.8,0,1.2,0c0.7,0,1.5,0,2.2,0h0.1c0-0.1,0-0.2,0-0.2
	c0-1.7,0-3.3,0-5c0-0.2-0.1-0.3-0.3-0.3c-1.8,0-3.7,0-5.5,0c-2.2,0.1-4,1-5.1,2.9c-0.4,0.7-0.6,1.6-0.6,2.4c0,1.6,0,3.2,0,4.8
	c0,0.2-0.1,0.3-0.3,0.3c-0.9,0-1.7,0-2.6,0c-0.1,0-0.2,0-0.3,0c0,1.8,0,3.6,0,5.4c1,0,2.1,0,3.2,0c0,5.2,0,10.4,0,15.7
	c-0.1,0-0.2,0-0.3,0c-4.2,0-8.4,0-12.7,0c-2.3,0-3.9-1.6-3.9-3.9c0-9.3,0-18.6,0-27.9c0-1.9,1.4-3.5,3.3-3.8c0.2,0,0.3,0,0.5,0
	c9.3,0,18.6,0,28,0c2.2,0,3.8,1.6,3.8,3.8c0,3.6,0,7.2,0,10.8c0,5.7,0,11.4,0,17.1c0,2.2-1.6,3.8-3.8,3.8
	C840.7,2621.9,838,2621.9,835.2,2622C835.3,2622,835.3,2622,835.2,2622z"/>
<g>
	<path class="st22" d="M866.8,2615.9c0-5.4,0-10.7,0-16.1c3.3,0,6.5,0,9.9,0c-1.1,2-1.5,4.1-1.1,6.3s1.5,4,3.2,5.4
		c3.1,2.5,7.3,2.6,10.5,0.5c1.6-1.1,2.7-2.5,3.4-4.2c1-2.7,0.8-5.3-0.6-7.9c3.4,0,6.7,0,9.9,0c0,5.4,0,10.7,0,16.1
		c-0.1,0.2-0.1,0.4-0.2,0.6c-0.6,2.5-2.1,4.2-4.5,5.1c-0.4,0.2-0.9,0.3-1.3,0.4c-7.7,0-15.5,0-23.2,0c-0.2-0.1-0.3-0.1-0.5-0.2
		c-2.5-0.6-4.3-2.2-5.2-4.6C867,2616.8,866.9,2616.4,866.8,2615.9z"/>
	<path class="st22" d="M902,2592.6c0,1.9,0,3.8,0,5.8c-3.5,0-6.9,0-10.4,0c-0.3,0-0.8-0.2-1-0.4c-3.5-3.3-8.9-3.4-12.4,0
		c-0.4,0.3-0.7,0.4-1.2,0.4c-3.4,0-6.8,0-10.3,0c0-1.9,0-3.8,0-5.8c0.1-0.2,0.1-0.4,0.2-0.6c0.4-1.7,1.3-3,2.8-4.1c0,2.1,0,4,0,6
		c0.5,0,1,0,1.5,0c0-2,0-4,0-6c0-0.6,0.2-1,0.8-1c0.2,0,0.4-0.1,0.7-0.1c0,2.4,0,4.8,0,7.2c0.5,0,1,0,1.5,0c0-2.5,0-4.9,0-7.3
		c0.5,0,1,0,1.5,0c0,2.4,0,4.9,0,7.3c0.5,0,1,0,1.5,0c0-2.5,0-4.9,0-7.3c6.3,0,12.6,0,18.9,0c0.2,0,0.3,0.1,0.5,0.1
		c2.6,0.6,4.3,2.2,5.2,4.7C901.8,2591.8,901.9,2592.2,902,2592.6z M896.2,2595.4c0.5,0,1.1,0,1.6,0h0.1c0.7-0.1,1.1-0.4,1.1-1.1
		c0-1.2,0-2.5,0-3.7c0-0.7-0.4-1.1-1.1-1.1c-1.2,0-2.4,0-3.7,0c-0.7,0-1.1,0.4-1.1,1.1c0,1.2,0,2.4,0,3.6c0,0.7,0.4,1.1,1.1,1.2
		C895,2595.4,895.6,2595.4,896.2,2595.4z"/>
	<path class="st22" d="M884.4,2611.4c-3.8,0-6.9-3.1-6.9-6.9s3.1-7,6.9-7c3.8,0,6.9,3.1,6.9,6.9
		C891.3,2608.2,888.2,2611.4,884.4,2611.4z M884.4,2609.6c2.8,0,5.1-2.3,5.1-5.1s-2.3-5.2-5.1-5.2s-5.1,2.3-5.1,5.1
		C879.3,2607.2,881.6,2609.6,884.4,2609.6z"/>
</g>
<rect y="2687" class="st8" width="960" height="24"/>
<text transform="matrix(1 0 0 1 342.3992 2703.9531)" class="st0 st4" style="font-size:12px;">Copyright @ 2016 Claury Mejia | Christian Narvios</text>
<image style="overflow:visible;enable-background:new    ;" width="750" height="375" xlink:href="../SponsorSHPE/gm_foundation_logo_grey.png"  transform="matrix(0.4512 0 0 0.4512 187.2027 2291.3728)">
</image>
<image style="overflow:visible;enable-background:new    ;" width="1200" height="725" xlink:href="../SponsorSHPE/Just-the-Whirlpool-Logo.png"  transform="matrix(0.1918 0 0 0.1918 526.2631 2317.4458)">
</image>
<rect y="141" class="st23" width="960" height="309.1"/>
<rect x="3" y="175" class="st13" width="957" height="90.7"/>
<text transform="matrix(1 0 0 1 220.9805 241.8794)" class="st0 st4 st24">MemberSHPE</text>
<polygon class="st17" points="43.4,2231.9 35.6,2228 27.9,2232.3 29.2,2223.6 22.8,2217.7 31.4,2216.2 35.1,2208.3 39.1,2216 
	47.8,2217 41.7,2223.3 "/>
<rect x="50" y="2213.4" class="st13" width="206" height="20.9"/>
<text transform="matrix(1 0 0 1 50.0002 2227.0547)" class="st17 st4 st5">Indicates a required field</text>
<text transform="matrix(1 0 0 1 228.6835 130.0117)" class="st2 st4 st6">Home</text>
</svg>
