<?xml version="1.0" encoding="utf-8"?>
<!-- Generator: Adobe Illustrator 16.0.0, SVG Export Plug-In . SVG Version: 6.00 Build 0)  -->
<!DOCTYPE svg PUBLIC "-//W3C//DTD SVG 1.1//EN" "http://www.w3.org/Graphics/SVG/1.1/DTD/svg11.dtd">
<svg version="1.1" xmlns="http://www.w3.org/2000/svg" xmlns:xlink="http://www.w3.org/1999/xlink" x="0px" y="0px"
	 width="1600.17px" height="1305px" viewBox="0 0 1600.17 1305" enable-background="new 0 0 1600.17 1305" xml:space="preserve">
<g id="original">
</g>
<g id="modified">
	<g id="Layer_7">
	</g>
	<g id="Layer_6">
	</g>
	<g id="Layer_5">
	</g>
	<g id="Layer_4">
	</g>
	<g id="Layer_3">
		<g>
			<path fill="#CCCCCC" d="M1002.568,797.835l38.287-28.553c0,0,46.723,58.403,77.223,85.01c0,0-38.287,29.852-49.969,39.585
				C1068.109,893.877,1036.961,837.42,1002.568,797.835z"/>
			<path fill="#CCCCCC" d="M587.078,797.835l-38.287-28.553c0,0-46.723,58.403-77.223,85.01c0,0,38.287,29.852,49.969,39.585
				C521.537,893.877,552.686,837.42,587.078,797.835z"/>
			<path fill="#CCCCCC" d="M587.078,482.325l-38.287,28.553c0,0-46.723-58.403-77.223-85.01c0,0,38.287-29.852,49.969-39.585
				C521.537,386.283,552.686,442.74,587.078,482.325z"/>
			<path fill="#CCCCCC" d="M999.568,482.325l38.287,28.553c0,0,46.723-58.403,77.223-85.01c0,0-38.287-29.852-49.969-39.585
				C1065.109,386.283,1033.961,442.74,999.568,482.325z"/>
			<path fill="#CCCCCC" d="M1443,829.24c0,0-401.152-34.358-457.861,299.76H980c0,0,17-319.003,463-305.317V829.24z"/>
			<path fill="#CCCCCC" d="M149,450.906c0,0,398.551,35.094,454.895-304.906H609c0,0-17,324.498-460,310.565V450.906z"/>
			<path fill="#CCCCCC" d="M146,836.355c0,0,393.816-33.543,449.484,292.645h5.044c0,0-16.528-311.432-454.528-298.07V836.355z"/>
			<path fill="#CCCCCC" d="M1442,448.041c0,0-398.551,34.744-454.895-301.041H982c0,0,17,320.393,460,306.63V448.041z"/>
			<rect x="790" fill="#CCCCCC" width="11" height="1305"/>
			<rect x="1055" y="635" fill="#CCCCCC" width="545" height="13"/>
			<rect y="635" fill="#CCCCCC" width="537" height="13"/>
			<ellipse fill="#CCCCCC" cx="667.052" cy="639.177" rx="133.74" ry="133.951"/>
			<ellipse fill="#CCCCCC" cx="924.052" cy="636.177" rx="133.74" ry="133.951"/>
			<path fill-rule="evenodd" clip-rule="evenodd" fill="#006A3F" d="M790.026,147.427c0,127.232,0,253.274,0,379.683
				c-5.876,1.055-11.203-0.517-16.467-1.802c-18.44-4.502-33.956-14.365-47.891-26.891c-22.33-20.072-38.821-44.566-52.76-70.87
				c-24.993-47.165-40.606-97.616-51.727-149.59c-7.747-36.214-12.821-72.819-15.584-109.746c-0.359-4.8-0.648-9.614-0.726-14.425
				c-0.081-5.05,1.335-6.527,6.329-6.653c4.854-0.123,9.716,0.056,14.575,0.064c52.058,0.081,104.117,0.154,156.175,0.229
				C784.44,147.431,786.928,147.427,790.026,147.427z"/>
			<path fill-rule="evenodd" clip-rule="evenodd" fill="#006A3F" d="M789.395,755.006c0,124.872,0,249.296,0,373.776
				c-63.561,0-126.601,0-189.465,0c-0.27-1.189-0.555-1.686-0.432-2.036c0.453-1.279,1.043-2.511,1.571-3.735
				c1.378,0.113,2.675,0.22,4.013,0.331c0.406-0.852,0.896-1.435,0.95-2.057c1.348-15.424,2.289-30.893,4.021-46.273
				c8.085-71.836,23.26-141.868,54.234-207.721c12.167-25.868,26.929-50.143,46.403-71.28
				c13.786-14.963,29.409-27.456,48.493-35.145C769.638,756.655,781.068,754.361,789.395,755.006z"/>
			<path fill-rule="evenodd" clip-rule="evenodd" fill="#006A3F" d="M147.748,831.241c0-61.577,0-122.359,0-183.655
				c126.594,0,252.825,0,379.408,0c0.823,6.154-0.567,11.744-1.879,17.284c-4.33,18.281-14.079,33.572-26.608,47.237
				c-20.153,21.98-44.698,37.97-70.997,51.459c-39.93,20.481-82.265,34.262-125.78,44.685
				c-35.79,8.572-72.007,14.617-108.612,18.366C178.345,828.146,163.408,829.651,147.748,831.241z"/>
			<path fill-rule="evenodd" clip-rule="evenodd" fill="#006A3F" d="M1442.729,451.413c0,61.232,0,121.784,0,183.218
				c-2.635,0.196-5.281,0.563-7.928,0.565c-39.808,0.045-79.615,0.047-119.423,0.046c-80.54-0.001-161.081-0.011-241.621-0.017
				c-2.701,0-5.401,0-8.36,0c-0.507-8.85,1.35-16.414,3.849-23.838c5.568-16.539,15.194-30.559,27.082-43.152
				c21.101-22.354,46.497-38.721,73.646-52.558c39.764-20.268,81.756-34.523,125.162-44.369c26.33-5.972,53.03-10.327,79.601-15.209
				c3.821-0.703,7.859-0.127,11.776-0.421c15.904-1.194,31.8-2.503,47.701-3.75C1436.91,451.716,1439.613,451.598,1442.729,451.413z
				"/>
			<path fill-rule="evenodd" clip-rule="evenodd" fill="#006A3F" d="M801.887,147.97c59.513,0,118.637,0,177.791,0
				c1.764,6.59,3.493,13.056,5.534,20.681c-2.373-1.286-3.498-1.896-5.149-2.792c-0.31,1.645-0.713,3.077-0.832,4.531
				c-5.709,69.184-17.958,137.024-41.83,202.44c-13.064,35.8-29.335,69.967-52.714,100.367
				c-12.222,15.893-26.153,29.988-43.405,40.486c-11.994,7.299-24.78,12.329-38.898,13.411
				C800.921,521.937,800.417,158.43,801.887,147.97z"/>
			<path fill-rule="evenodd" clip-rule="evenodd" fill="#006A3F" d="M1065.682,647.568c125.735,0,251.031,0,376.285,0
				c1.592,5.836,1.587,177.729,0.036,183.36c-1.637-2.105-2.865-5.027-5.017-6.104c-2.514-1.259-5.826-1.021-8.806-1.239
				c-78.085-5.71-154.422-19.587-227.355-49.063c-26.87-10.859-52.532-24.091-75.965-41.321
				c-19.177-14.102-36.154-30.302-48.011-51.275c-5.048-8.929-8.554-18.437-10.559-28.488
				C1065.941,651.686,1065.911,649.87,1065.682,647.568z"/>
			<path fill-rule="evenodd" clip-rule="evenodd" fill="#006A3F" d="M526.591,634.945c-126.815,0-252.428,0-377.948,0
				c-1.707-5.759-2.445-157.443-0.927-181.946c2.722-0.83,5.702-1.739,8.743-2.666c1.25,1.492,2.356,2.814,3.542,4.23
				c-2.458,1.026-4.669,1.949-8.16,3.405c2.428,0.904,3.531,1.593,4.69,1.705c20.918,2.008,41.924,3.323,62.752,6.012
				c69.094,8.918,136.337,24.799,199.416,55.411c27.844,13.513,53.847,29.833,75.52,52.271
				c14.676,15.193,26.198,32.334,31.074,53.281C525.857,629.068,526.073,631.57,526.591,634.945z"/>
			<path fill-rule="evenodd" clip-rule="evenodd" fill="#006A3F" d="M978.597,1123.403c-3.397,0.353-6.036,0.627-8.673,0.9
				c0.02,0.257,0.039,0.515,0.06,0.772c5.185-0.293,10.368-0.586,15.979-0.903c-1.041,5.063-3.436,6.434-7.531,6.404
				c-41.189-0.294-82.381-0.44-123.571-0.654c-14.577-0.076-29.154-0.225-43.732-0.333c-2.751-0.021-5.504-0.003-9.085-0.003
				c-0.218-4.145-0.567-7.741-0.571-11.337c-0.04-37.029-0.025-74.059-0.025-111.088c0-81.002,0-162.003,0-243.005
				c0-2.965,0-5.929,0-9.255c14.121,1.314,26.26,6.044,37.673,12.792c18.01,10.649,32.43,25.255,45.1,41.678
				c19.221,24.917,33.469,52.628,45.327,81.642c17.302,42.333,28.825,86.303,37.003,131.212
				c5.054,27.756,8.592,55.715,10.959,83.822C977.986,1111.725,978.228,1117.422,978.597,1123.403z"/>
			<path fill-rule="evenodd" clip-rule="evenodd" fill="#006A3F" d="M900.041,558.35c-1.995,1.32-3.91,3.602-6,3.774
				c-5.343,0.44-7.827,3.813-10.443,7.706c-2.011,2.991-4.433,5.818-7.115,8.224c-6.852,6.145-11.126,13.436-11.675,22.778
				c-0.121,2.052-0.543,4.184-1.313,6.082c-4.104,10.13-0.762,19.135,4.42,27.611c4.621,7.561,13.698,9.054,21.014,4.031
				c1.52-1.043,2.844-2.437,4.468-3.246c3.522-1.757,6.072-1.246,8.294,1.995c1.46,2.13,3.003,3.246,5.601,3.292
				c2.904,0.051,3.851,2.115,4.014,4.686c0.044,0.692,0.164,1.401,0.071,2.078c-1.161,8.384,1.312,15.404,5.676,22.801
				c3.356,5.687,4.414,13.111,1.761,20.449c-2.182,6.033-1.067,12.43,1.95,18.171c3.057,5.816,4.89,11.887,5.634,18.422
				c0.272,2.398,1.694,4.726,2.859,6.946c1.485,2.83,3.241,5.519,5.337,9.036c4.154-0.502,8.996-0.772,13.692-1.744
				c4.654-0.962,7.324-4.646,9.343-8.675c1.339-2.674,2.119-5.662,3.677-8.184c1.472-2.382,4.34-4.066,5.297-6.556
				c1.023-2.661-0.369-6.391,0.917-8.779c1.792-3.329,4.74-6.323,7.83-8.596c4.564-3.357,5.705-7.229,4.726-12.638
				c-1.063-5.872-2.115-11.961-1.667-17.841c0.613-8.033,4.537-15.132,10.934-20.121c8.887-6.932,11.396-16.261,12.115-26.787
				c-3.291-1.584-6.098-1.393-9.001-0.133c-2.284,0.991-5.087,1.237-6.171-1.203c-2.306-5.187-7.029-8.505-9.667-13.213
				c-3.686-6.58-6.42-13.691-9.563-20.577c-1.036-2.269-2.168-4.5-3.077-6.82c-0.461-1.176-0.521-2.509-1.003-5.035
				c5.221,3.654,8.434,7.158,9.923,12.152c0.583,1.957,0.91,4.222,2.125,5.72c5.37,6.623,8.632,14.179,10.778,22.319
				c0.168,0.638,0.592,1.207,1.154,2.317c1.696-0.534,3.647-0.681,4.996-1.659c4.674-3.393,9.357-6.833,13.633-10.703
				c6.286-5.69,6.479-9.505,1.723-19.391c2.733,0.234,5.339,0.458,8.632,0.742c-1.546-4.083-5.534-3.297-7.311-5.346
				c-1.675-1.934-2.717-4.416-3.407-7.18c6.442,4.776,15.246,6.062,18.955,14.186c10.181,7.641,12.046,19.217,14.536,30.532
				c0.827,3.762,2.021,7.443,3.408,12.467c3.477-6.247,2.125-11.563,2.386-16.637c0.266-5.167,0.224-10.35,0.316-15.526
				c0.517-0.094,1.034-0.188,1.552-0.282c0.71,1.77,1.683,3.481,2.092,5.319c9.713,43.624,0.433,82.673-29.106,116.334
				c-20.988,23.918-47.785,37.828-79.317,41.613c-34.04,4.086-65.212-4.012-92.906-24.58c-0.186-0.138-0.394-0.257-0.548-0.426
				c-3.165-3.429-6.449-6.555-10.441-9.221c-4.122-2.753-7.317-7.019-10.57-10.912c-3.254-3.896-6.267-8.029-9.037-12.285
				c-2.771-4.256-5.338-8.682-7.579-13.237s-4.174-9.292-5.842-14.088c-0.962-2.766-1.572-5.805-1.589-8.726
				c-0.127-22.216-0.122-44.433-0.005-66.648c0.016-2.944,0.519-6.008,1.432-8.808c15.82-48.519,63.376-84.285,114.315-86.083
				c0.904-0.032,1.813,0.074,3.659,0.159c-8.179,5.6-18.032,5.717-25.518,11.882c3.909,1.497,6.91,0.516,9.81-0.984
				c3.492-1.806,6.886-3.808,10.417-5.53c6.421-3.131,12.904-3.788,20.646-2.081c-3.108,1.496-5.97,2.419-8.266,4.109
				c-2.155,1.585-7.061,1.714-4.635,6.633c-2.711,2.652-5.422,5.304-8.042,7.869c-7.12-5.536-11.21-4.879-18.05,2.603
				c1.877,0.125,3.347,0.223,5.18,0.344c0.313,1.427,0.647,2.981,0.995,4.533c0.677,3.024-0.368,5.108-3.505,5.591
				c-5.246,0.81-7.63,4.982-10.165,8.727c-2.427,3.585-0.862,6.25,3.479,6.519c2.292,0.144,4.604-0.072,6.909-0.127L900.041,558.35z
				 M824.141,640.438c-5.551,10.087-0.913,59.456,13.415,80.801c0-6.946,1.101-13.288-0.26-19.048
				c-2-8.461-2.143-16.897-2.587-25.413c-0.214-4.113-1.284-7.818-3.992-11.451c-4.392-5.89-7.795-12.554-6.603-20.48
				C824.304,643.582,824.141,642.266,824.141,640.438z M983.831,720.962c4.249,1.349,5.999-0.441,6.938-3.437
				c2.276-7.268,3.237-14.976,7.959-21.417c0.93-1.268,0.135-3.801,0.135-6.314c-3.275,2.556-5.69,4.98-8.572,6.543
				c-3.097,1.679-4.073,3.964-4.192,7.213c-0.091,2.454-0.068,5.23-1.189,7.26C983.055,714.169,983.502,717.334,983.831,720.962z"/>
			<path fill-rule="evenodd" clip-rule="evenodd" fill="#006A3F" d="M634.499,762.675c9.701,0.023,19.404,0.181,29.102,0.017
				c5.209-0.089,9.927-1.347,13.202-6.236c1.29-1.926,3.976-3.026,6.186-4.203c6.438-3.428,13.947-5.12,18.395-11.728
				c0.424-0.63,1.601-0.919,2.477-1.055c11.613-1.809,17.926-10.415,24.437-18.843c1.924-2.49,3.983-4.965,6.371-6.985
				c3.22-2.724,4.174-4.993,3.085-9.744c-0.857-3.736-3.028-6.2-6.883-6.87c-1.351-0.235-2.776-0.241-4.148-0.125
				c-7.736,0.655-13.894-3.289-19.692-7.403c-2.063-1.464-2.601-5.079-3.86-7.767c-4.4-0.2-9.002-0.166-13.527-0.734
				c-1.845-0.231-4.438-1.331-5.131-2.782c-3.523-7.369-10.257-8.14-16.943-8.539c-4.221-0.252-7.955-0.249-11.491-3.417
				c-1.583-1.416-5.398-1.431-7.736-0.665c-3.851,1.262-7.324,3.675-10.767,5.501c-3.25-0.127-6.579-0.61-9.832-0.301
				c-4.791,0.456-6.383-0.315-7.388-4.904c-0.293-1.341-0.313-2.75-0.367-4.132c-0.353-8.944-0.345-8.945-8.681-11.941
				c1.4-3.544,2.803-7.092,4.425-11.198c-4.279-0.085-8.325-2.785-11.307,3.047c-1.735,3.393-8.974,1.675-10.867-2.671
				c-1.241-2.848-1.912-6.333-1.559-9.385c0.414-3.571,1.968-7.096,3.486-10.432c1.754-3.85,5.479-3.704,9.02-3.575
				c3.295,0.119,6.216,1.207,9.873-0.847c4.19-2.353,13.112,4.156,14.317,9.329c0.379,1.629,0.664,3.28,1.139,5.655
				c3.51-2.704,2.698-5.649,2.557-8.171c-0.318-5.688,1.994-9.476,7.485-10.893c3.888-1.004,6.262-3.507,6.637-7.117
				c0.806-7.755,5.635-10.516,12.743-11.05c1.543-4.34,3.806-7.145,9.166-6.222c2.084,0.358,4.567-1.6,6.594-2.396
				c-2.486-2.096-4.683-3.947-7.726-6.513c-0.167,0-1.696,0-4.105,0c5.694-5.343,11.758-2.92,17.155-3.283
				c1.43,2.111,2.276,4.56,3.971,5.532c1.736,0.996,4.301,0.548,7.818,0.843c-1.667-2.345-2.272-3.985-3.439-4.679
				c-2.771-1.647-4.836-3.499-4.807-6.998c0.006-0.635-0.285-1.53-0.755-1.872c-7.257-5.293-13.857-11.821-23.507-12.701
				c-2.534-0.23-4.214,0.741-4.107,3.369c0.145,3.577-1.953,5.263-4.569,7.105c-1.88,1.324-3.083,3.608-5.199,6.218
				c-1.193-1.509-2.664-2.854-3.492-4.519c-1.839-3.699-4.343-6.215-8.388-7.699c-5.13-1.882-5.688-5.97-1.352-9.385
				c2.081-1.641,4.933-2.339,7.483-3.34c2.537-0.997,5.512-1.391,5.889-4.926c-6.11-3.826-9.542-3.746-16.796,0.564
				c-0.965-0.671-2.563-1.195-3.09-2.252c-2.14-4.294-4.485-8.274-8.076-11.654c-1.999-1.883-0.99-5.254,1.678-6.312
				c5.478-2.171,11.141-3.872,17.047-5.875c0.431,3.815-1.494,4.586-3.526,5.08c-1.102,0.267-2.3,0.166-3.456,0.178
				c-2.391,0.026-4.835,0.085-5.427,3.078c-0.47,2.374,1.905,4.815,5.363,5.247c2.503,0.313,5.08,0.158,7.617,0.045
				c5.427-0.239,9.438,1.77,11.61,6.938c0.357,0.851,0.809,1.665,1.258,2.474c3.426,6.183,4.422,6.579,11.593,4.796
				c0.642-0.159,1.357-0.021,2.178-0.021c1.378,1.804,2.552,3.832,4.187,5.371c2.722,2.563,5.654,1.719,7.037-1.794
				c0.662-1.683,1.116-3.455,1.864-5.094c0.227-0.496,1.124-0.687,1.945-1.146c6.848,3.482,9.931,12.4,19.132,13.59
				c-0.261-5.025,0.618-9.508,4.145-13.23c0.906-0.958,1.281-3.361,0.736-4.581c-1.797-4.033-0.315-9.465-5.104-12.241
				c-0.25-0.145-0.168-0.862-0.292-1.638c0.547-0.466,1.186-1.489,1.896-1.541c5.781-0.424,11.613-2.283,17.331,0.38
				c2.097,0.977,4.233,1.867,6.328,2.846c9.482,4.436,18.604,9.323,23.55,20.199c-0.266,0.747-0.858,2.417-1.541,4.339
				c-2.622-0.134-5.072-0.259-8.324-0.425c1.404,3.753,2.559,6.836,3.936,10.517c1.489-0.926,2.367-1.472,3.646-2.267
				c1.518,1.048,3.301,2.279,5.085,3.51c0.296-0.215,0.591-0.431,0.887-0.646c-1.227-2.3-2.453-4.599-4.211-7.893
				c1.798,0.786,3.263,0.948,3.658,1.686c1.413,2.636,2.486,5.457,3.645,8.227c0.799,1.91,1.31,3.868,3.957,4.246
				c4.179,0.595,4.257,3.982,3.704,6.951c-1.477,7.939,2.001,13.371,7.923,18.049c1.361,1.074,2.094,3.29,2.524,5.12
				c0.667,2.832,0.862,5.78,1.181,8.688c0.147,1.352,0.517,2.861,0.104,4.065c-3.344,9.757-3.277,19.319,0.871,28.862
				c0.802,1.845,0.757,4.053,1.128,6.088c0.662,3.63,1.053,7.34,2.075,10.866c2.147,7.399,4.956,8.468,12.786,4.906
				c0.279,10.463,0.885,20.419-3.377,30.454c-20.044,47.192-66.427,78.347-117.883,78.1c-9.188-0.044-18.384-1.573-27.538-2.715
				c-2.127-0.266-4.101-1.751-6.145-2.675L634.499,762.675z M723.823,531.41c4.721,6.817,6.298,8.073,12.601,9.72
				C733.599,535.517,730.2,531.865,723.823,531.41z"/>
			<path fill-rule="evenodd" clip-rule="evenodd" fill="#006A3F" d="M634.7,762.508c-3.141-0.521-6.483-0.516-9.392-1.639
				c-47.646-18.404-76.907-52.707-84.038-103.259c-6.712-47.585,10.024-87.288,47.114-118.131c1.716-1.426,3.664-2.573,5.744-4.017
				c2.199,3.242,0.76,5.874-0.383,8.161c-1.326,2.656-3.562,4.845-5.022,7.45c-4.134,7.371-9.162,14.078-14.298,20.766
				c-6.541,8.521-7.154,18.795-7.419,29.035c-0.089,3.463-0.014,6.929,0.681,10.599c0.391-1.776,0.78-3.553,1.178-5.361
				c0.708,0.256,1.343,0.314,1.403,0.532c1.545,5.56,3.03,11.136,4.527,16.709c0.24,0.895,0.759,1.807,0.692,2.676
				c-0.814,10.579,7.241,15.961,14.066,20.586c4.996,3.385,11.577,4.559,15.355,10.098c6.722,0.452,8.257,5.61,9.875,10.775
				c1.376,4.395,6.565,7.206,12.201,6.765c5.89-0.462,7.329,0.682,6.146,6.226c-0.694,3.254-2.45,6.439-4.353,9.23
				c-1.89,2.774-5.091,4.587-3.825,8.921c0.392,1.34-1.229,3.267-1.607,4.166c4.576,7.028,9.199,13.366,12.978,20.172
				c3,5.403,8.016,5.629,12.861,6.554c3.127,12.526-1.995,24.008-14.684,33.152C634.499,762.675,634.7,762.508,634.7,762.508z"/>
			<path fill-rule="evenodd" clip-rule="evenodd" fill="#006A3F" d="M900.186,558.499c0.213-3.523,2.106-5.94,4.954-7.84
				c2.104-1.404,4.033-3.072,6.111-4.521c3.613-2.519,9.498-2.84,12.4-0.633c1.931,1.468,3.698,3.507,2.118,5.859
				c-1.504,2.237-3.91,1.977-5.98,0.187c-0.47-0.407-0.989-0.756-1.757-1.337c-2.057,2.931-0.543,4.987,1.154,6.775
				c2.347,2.473,5.366,2.7,8.313,1.366c4.166-1.886,6.179-5.234,5.988-10.086c-3.507-1.536-8.721-1.154-8.436-7.09
				c7.744,0.291,8.792,1.143,9.486,7.483c0.432,3.938,1.909,6.02,6.218,8.481c1.292-1.995,2.597-4.009,4.184-6.458
				c0.658,1.233,1.143,1.953,1.445,2.742c1.53,3.994,4.33,5.756,8.636,5.251c1.825-0.214,3.838-0.532,5.496,0.015
				c1.727,0.569,3.934,1.826,4.486,3.317c0.883,2.38,0.362,5.389-2.646,6.271c-3.026,0.886-6.261,1.39-9.41,1.421
				c-2.724,0.025-5.483-0.735-8.181-1.351c-3.723-0.849-7.442-2.814-10.047,2.294c-0.411,0.805-3.938,0.704-5.624,0.024
				c-3.035-1.226-5.766-3.205-9.5-5.379c0.064,0.176-0.273-0.665-0.551-1.525c-1.568-4.86-2.12-5.388-7.232-5.529
				c-3.92-0.108-7.848,0.064-11.771,0.112C900.041,558.35,900.186,558.499,900.186,558.499z"/>
			<path fill-rule="evenodd" clip-rule="evenodd" fill="#006A3F" d="M768.668,566.706c7.568,3.449,11.573,9.69,14.117,17.137
				c-4.421,2.761-3.813-2.349-6.058-3.806c-0.863,2.365-1.627,4.457-2.682,7.349c-2.879-4.033-5.666-7.582-7.989-11.414
				c-0.682-1.122-0.369-3.149,0.08-4.575C766.677,569.682,767.848,568.168,768.668,566.706z"/>
		</g>
	</g>
</g>
</svg>
